G04*
G04 #@! TF.GenerationSoftware,Altium Limited,Altium Designer,24.0.1 (36)*
G04*
G04 Layer_Physical_Order=1*
G04 Layer_Color=255*
%FSLAX44Y44*%
%MOMM*%
G71*
G04*
G04 #@! TF.SameCoordinates,F64AAE0E-53C9-4E3E-96B2-16B86AA6748B*
G04*
G04*
G04 #@! TF.FilePolarity,Positive*
G04*
G01*
G75*
%ADD10C,0.2500*%
%ADD11C,0.2000*%
%ADD12C,0.3000*%
%ADD18R,0.6000X1.1000*%
%ADD19R,0.7000X0.9000*%
%ADD20R,0.3500X0.3500*%
%ADD21R,1.3000X1.0000*%
%ADD22R,0.9000X0.7000*%
%ADD23R,0.6000X1.1000*%
%ADD24O,0.7500X0.2500*%
%ADD25O,0.2500X0.7500*%
%ADD26R,3.5000X3.8000*%
%ADD27R,1.6000X0.9000*%
%ADD28R,0.3500X0.3500*%
%ADD29R,0.7500X0.8500*%
%ADD30R,1.8000X0.4000*%
%ADD31R,0.3000X1.1500*%
%ADD32R,0.6000X1.1500*%
%ADD56C,0.5000*%
%ADD57C,0.1908*%
%ADD58R,1.5000X1.5000*%
%ADD59C,1.5000*%
%ADD60O,1.1080X2.2600*%
%ADD61C,0.6500*%
%ADD62O,1.0500X2.1000*%
%ADD63O,1.0000X2.0000*%
%ADD64C,0.8000*%
%ADD65C,0.7000*%
G36*
X29494Y50500D02*
X11529D01*
Y25500D01*
X29494D01*
Y50500D01*
D02*
G37*
G36*
X250000Y186250D02*
X247500D01*
Y176750D01*
Y167250D01*
X250000D01*
Y155274D01*
X249976D01*
Y149000D01*
X240024D01*
Y155274D01*
X230976D01*
Y149000D01*
X172400D01*
Y149500D01*
X160000D01*
Y156013D01*
X161270Y156682D01*
X162600Y156131D01*
Y170099D01*
Y184067D01*
X161270Y183516D01*
X160000Y184185D01*
Y195000D01*
X250000D01*
Y186250D01*
D02*
G37*
G36*
X455824Y-132683D02*
X455935D01*
X456046Y-132696D01*
X456198Y-132724D01*
X456351Y-132766D01*
X456517Y-132807D01*
X456697Y-132877D01*
X456892Y-132946D01*
X457072Y-133043D01*
X457266Y-133154D01*
X457446Y-133279D01*
X457627Y-133431D01*
X457807Y-133612D01*
X457959Y-133806D01*
X457973Y-133820D01*
X458001Y-133861D01*
X458029Y-133917D01*
X458084Y-134000D01*
X458154Y-134111D01*
X458223Y-134250D01*
X458292Y-134402D01*
X458376Y-134569D01*
X458445Y-134763D01*
X458514Y-134971D01*
X458583Y-135207D01*
X458653Y-135456D01*
X458708Y-135706D01*
X458736Y-135983D01*
X458764Y-136274D01*
X458778Y-136580D01*
Y-136593D01*
Y-136663D01*
Y-136760D01*
X458764Y-136885D01*
X458750Y-137037D01*
X458736Y-137204D01*
X458708Y-137412D01*
X458667Y-137620D01*
X458556Y-138063D01*
X458486Y-138299D01*
X458403Y-138535D01*
X458306Y-138757D01*
X458181Y-138979D01*
X458043Y-139187D01*
X457890Y-139381D01*
X457876Y-139395D01*
X457849Y-139423D01*
X457807Y-139464D01*
X457738Y-139534D01*
X457640Y-139603D01*
X457543Y-139686D01*
X457419Y-139769D01*
X457280Y-139853D01*
X457127Y-139950D01*
X456961Y-140033D01*
X456781Y-140116D01*
X456586Y-140185D01*
X456378Y-140255D01*
X456157Y-140296D01*
X455921Y-140324D01*
X455671Y-140338D01*
X455560D01*
X455435Y-140324D01*
X455283Y-140310D01*
X455089Y-140282D01*
X454894Y-140241D01*
X454687Y-140185D01*
X454478Y-140116D01*
X454451Y-140102D01*
X454395Y-140074D01*
X454284Y-140019D01*
X454160Y-139950D01*
X454021Y-139853D01*
X453854Y-139742D01*
X453702Y-139617D01*
X453535Y-139464D01*
Y-142959D01*
X450692D01*
Y-132835D01*
X453327D01*
Y-133917D01*
X453355Y-133903D01*
X453424Y-133820D01*
X453521Y-133695D01*
X453660Y-133556D01*
X453813Y-133404D01*
X453979Y-133251D01*
X454146Y-133112D01*
X454326Y-133001D01*
X454340D01*
X454354Y-132988D01*
X454437Y-132946D01*
X454562Y-132891D01*
X454728Y-132835D01*
X454922Y-132780D01*
X455158Y-132724D01*
X455408Y-132683D01*
X455685Y-132669D01*
X455754D01*
X455824Y-132683D01*
D02*
G37*
G36*
X506513D02*
X506679Y-132710D01*
X506887Y-132766D01*
X507123Y-132835D01*
X507373Y-132932D01*
X507650Y-133057D01*
X506776Y-135068D01*
X506749Y-135054D01*
X506693Y-135040D01*
X506610Y-134999D01*
X506485Y-134957D01*
X506235Y-134888D01*
X506110Y-134874D01*
X505986Y-134860D01*
X505889D01*
X505792Y-134888D01*
X505667Y-134915D01*
X505528Y-134971D01*
X505389Y-135054D01*
X505251Y-135165D01*
X505126Y-135317D01*
Y-135331D01*
X505112Y-135345D01*
X505084Y-135387D01*
X505056Y-135442D01*
X505029Y-135526D01*
X504987Y-135609D01*
X504946Y-135734D01*
X504918Y-135858D01*
X504876Y-136011D01*
X504835Y-136191D01*
X504793Y-136385D01*
X504765Y-136607D01*
X504738Y-136843D01*
X504710Y-137107D01*
X504696Y-137398D01*
Y-137717D01*
Y-140171D01*
X501867D01*
Y-132835D01*
X504502D01*
Y-134028D01*
X504516Y-134014D01*
X504543Y-133972D01*
X504571Y-133917D01*
X504641Y-133778D01*
X504738Y-133612D01*
X504862Y-133445D01*
X504987Y-133265D01*
X505126Y-133099D01*
X505278Y-132974D01*
X505292Y-132960D01*
X505348Y-132932D01*
X505431Y-132877D01*
X505556Y-132821D01*
X505695Y-132766D01*
X505875Y-132710D01*
X506069Y-132683D01*
X506277Y-132669D01*
X506388D01*
X506513Y-132683D01*
D02*
G37*
G36*
X488678Y-140671D02*
Y-140685D01*
X488650Y-140726D01*
X488623Y-140796D01*
X488595Y-140879D01*
X488553Y-140990D01*
X488498Y-141115D01*
X488359Y-141392D01*
X488206Y-141697D01*
X488040Y-141988D01*
X487860Y-142266D01*
X487763Y-142377D01*
X487665Y-142474D01*
X487652Y-142487D01*
X487638Y-142501D01*
X487582Y-142529D01*
X487527Y-142571D01*
X487444Y-142626D01*
X487360Y-142682D01*
X487236Y-142737D01*
X487111Y-142807D01*
X486958Y-142862D01*
X486792Y-142931D01*
X486612Y-142987D01*
X486417Y-143028D01*
X486195Y-143084D01*
X485960Y-143112D01*
X485710Y-143125D01*
X485433Y-143139D01*
X485252D01*
X485169Y-143125D01*
X485072D01*
X484975Y-143112D01*
X484850D01*
X484698Y-143098D01*
X484545Y-143084D01*
X484379Y-143070D01*
X484198Y-143056D01*
X483990Y-143028D01*
X483782Y-143001D01*
X483547Y-142973D01*
X483339Y-141004D01*
X483353D01*
X483366Y-141017D01*
X483450Y-141031D01*
X483560Y-141059D01*
X483727Y-141101D01*
X483935Y-141142D01*
X484157Y-141170D01*
X484407Y-141184D01*
X484684Y-141198D01*
X484767D01*
X484864Y-141184D01*
X484975Y-141170D01*
X485100Y-141142D01*
X485239Y-141101D01*
X485363Y-141045D01*
X485488Y-140962D01*
X485502Y-140948D01*
X485544Y-140920D01*
X485599Y-140865D01*
X485668Y-140782D01*
X485752Y-140671D01*
X485835Y-140532D01*
X485932Y-140366D01*
X486015Y-140171D01*
X482936Y-132835D01*
X485904D01*
X487416Y-137731D01*
X488830Y-132835D01*
X491604D01*
X488678Y-140671D01*
D02*
G37*
G36*
X478415Y-132683D02*
X478693D01*
X479025Y-132710D01*
X479358Y-132738D01*
X479691Y-132766D01*
X479996Y-132821D01*
X480038D01*
X480066Y-132835D01*
X480121Y-132849D01*
X480274Y-132891D01*
X480454Y-132946D01*
X480648Y-133029D01*
X480870Y-133126D01*
X481078Y-133251D01*
X481286Y-133404D01*
X481300Y-133418D01*
X481342Y-133459D01*
X481411Y-133528D01*
X481494Y-133639D01*
X481577Y-133764D01*
X481674Y-133917D01*
X481772Y-134083D01*
X481855Y-134291D01*
X481869Y-134319D01*
X481882Y-134388D01*
X481924Y-134499D01*
X481966Y-134638D01*
X481993Y-134804D01*
X482035Y-134985D01*
X482049Y-135179D01*
X482063Y-135373D01*
Y-138618D01*
Y-138646D01*
Y-138701D01*
Y-138799D01*
X482077Y-138910D01*
Y-139048D01*
X482090Y-139173D01*
X482104Y-139312D01*
X482118Y-139436D01*
Y-139450D01*
X482132Y-139492D01*
X482146Y-139547D01*
X482188Y-139631D01*
X482215Y-139742D01*
X482271Y-139866D01*
X482340Y-140019D01*
X482409Y-140171D01*
X479774D01*
Y-140158D01*
X479747Y-140130D01*
X479719Y-140074D01*
X479691Y-140019D01*
X479608Y-139866D01*
X479552Y-139742D01*
Y-139728D01*
Y-139714D01*
X479539Y-139672D01*
X479525Y-139631D01*
X479511Y-139561D01*
X479497Y-139478D01*
X479483Y-139381D01*
X479469Y-139270D01*
X479442Y-139298D01*
X479372Y-139353D01*
X479261Y-139450D01*
X479123Y-139561D01*
X478956Y-139700D01*
X478762Y-139825D01*
X478568Y-139936D01*
X478360Y-140033D01*
X478346D01*
X478332Y-140047D01*
X478290Y-140061D01*
X478221Y-140074D01*
X478152Y-140102D01*
X478069Y-140130D01*
X477861Y-140185D01*
X477611Y-140241D01*
X477320Y-140296D01*
X476987Y-140324D01*
X476626Y-140338D01*
X476502D01*
X476404Y-140324D01*
X476307D01*
X476169Y-140310D01*
X475877Y-140269D01*
X475558Y-140185D01*
X475226Y-140088D01*
X474907Y-139936D01*
X474768Y-139853D01*
X474629Y-139742D01*
X474615Y-139728D01*
X474602Y-139714D01*
X474518Y-139631D01*
X474421Y-139506D01*
X474296Y-139326D01*
X474172Y-139104D01*
X474061Y-138854D01*
X473977Y-138563D01*
X473964Y-138410D01*
X473950Y-138244D01*
Y-138230D01*
Y-138202D01*
Y-138161D01*
X473964Y-138105D01*
X473977Y-137952D01*
X474005Y-137758D01*
X474075Y-137536D01*
X474158Y-137301D01*
X474269Y-137079D01*
X474435Y-136871D01*
X474463Y-136843D01*
X474532Y-136788D01*
X474588Y-136732D01*
X474657Y-136691D01*
X474754Y-136635D01*
X474851Y-136566D01*
X474962Y-136496D01*
X475101Y-136441D01*
X475253Y-136371D01*
X475406Y-136302D01*
X475600Y-136233D01*
X475794Y-136177D01*
X476016Y-136122D01*
X476252Y-136066D01*
X476266D01*
X476321Y-136053D01*
X476404Y-136039D01*
X476515Y-136011D01*
X476640Y-135983D01*
X476779Y-135955D01*
X477112Y-135886D01*
X477458Y-135817D01*
X477791Y-135747D01*
X477958Y-135706D01*
X478096Y-135678D01*
X478221Y-135650D01*
X478318Y-135623D01*
X478346D01*
X478401Y-135595D01*
X478498Y-135567D01*
X478623Y-135526D01*
X478776Y-135470D01*
X478942Y-135415D01*
X479123Y-135345D01*
X479317Y-135276D01*
Y-135248D01*
Y-135193D01*
X479303Y-135096D01*
X479289Y-134999D01*
X479261Y-134874D01*
X479220Y-134749D01*
X479164Y-134652D01*
X479095Y-134555D01*
X479081Y-134541D01*
X479053Y-134527D01*
X478998Y-134485D01*
X478915Y-134444D01*
X478817Y-134416D01*
X478679Y-134375D01*
X478526Y-134361D01*
X478332Y-134347D01*
X478221D01*
X478096Y-134361D01*
X477944Y-134375D01*
X477777Y-134402D01*
X477597Y-134444D01*
X477431Y-134499D01*
X477292Y-134569D01*
X477278Y-134583D01*
X477250Y-134610D01*
X477195Y-134652D01*
X477139Y-134721D01*
X477070Y-134804D01*
X477001Y-134915D01*
X476931Y-135054D01*
X476862Y-135220D01*
X474172Y-134929D01*
Y-134915D01*
X474185Y-134902D01*
X474199Y-134818D01*
X474227Y-134693D01*
X474282Y-134527D01*
X474338Y-134361D01*
X474407Y-134180D01*
X474504Y-134000D01*
X474602Y-133834D01*
X474615Y-133820D01*
X474657Y-133764D01*
X474726Y-133681D01*
X474809Y-133584D01*
X474934Y-133473D01*
X475073Y-133362D01*
X475239Y-133237D01*
X475434Y-133126D01*
X475448Y-133112D01*
X475503Y-133085D01*
X475586Y-133043D01*
X475711Y-133001D01*
X475863Y-132946D01*
X476044Y-132891D01*
X476266Y-132835D01*
X476502Y-132794D01*
X476529D01*
X476571Y-132780D01*
X476626D01*
X476765Y-132752D01*
X476945Y-132724D01*
X477153Y-132710D01*
X477403Y-132683D01*
X477680Y-132669D01*
X478290D01*
X478415Y-132683D01*
D02*
G37*
G36*
X468180Y-137675D02*
X473062D01*
Y-140171D01*
X465046D01*
Y-130034D01*
X468180D01*
Y-137675D01*
D02*
G37*
G36*
X440014Y-132530D02*
X436824D01*
Y-140171D01*
X433690D01*
Y-132530D01*
X430500D01*
Y-130034D01*
X440014D01*
Y-132530D01*
D02*
G37*
G36*
X496458Y-132683D02*
X496583D01*
X496735Y-132696D01*
X496916Y-132710D01*
X497096Y-132724D01*
X497484Y-132794D01*
X497900Y-132877D01*
X498303Y-132988D01*
X498497Y-133071D01*
X498677Y-133154D01*
X498691D01*
X498719Y-133182D01*
X498760Y-133209D01*
X498830Y-133237D01*
X498996Y-133348D01*
X499190Y-133501D01*
X499412Y-133695D01*
X499648Y-133931D01*
X499870Y-134222D01*
X500064Y-134541D01*
Y-134555D01*
X500092Y-134583D01*
X500106Y-134638D01*
X500147Y-134707D01*
X500175Y-134790D01*
X500216Y-134902D01*
X500258Y-135026D01*
X500313Y-135179D01*
X500355Y-135331D01*
X500397Y-135512D01*
X500438Y-135706D01*
X500480Y-135914D01*
X500508Y-136136D01*
X500535Y-136385D01*
X500549Y-136635D01*
Y-136898D01*
Y-137204D01*
X494905D01*
Y-137218D01*
Y-137231D01*
X494919Y-137315D01*
X494947Y-137439D01*
X494974Y-137578D01*
X495030Y-137745D01*
X495085Y-137911D01*
X495168Y-138077D01*
X495265Y-138216D01*
X495279Y-138230D01*
X495335Y-138285D01*
X495432Y-138369D01*
X495557Y-138452D01*
X495709Y-138535D01*
X495890Y-138618D01*
X496097Y-138674D01*
X496333Y-138688D01*
X496403D01*
X496486Y-138674D01*
X496583Y-138660D01*
X496708Y-138646D01*
X496846Y-138604D01*
X496985Y-138563D01*
X497124Y-138493D01*
X497138Y-138479D01*
X497165Y-138466D01*
X497207Y-138438D01*
X497276Y-138383D01*
X497346Y-138313D01*
X497429Y-138230D01*
X497526Y-138133D01*
X497623Y-138022D01*
X500397Y-138272D01*
X500383Y-138285D01*
X500369Y-138313D01*
X500327Y-138383D01*
X500286Y-138452D01*
X500216Y-138549D01*
X500147Y-138646D01*
X499967Y-138882D01*
X499745Y-139145D01*
X499481Y-139409D01*
X499176Y-139658D01*
X499024Y-139769D01*
X498857Y-139866D01*
X498843D01*
X498816Y-139880D01*
X498760Y-139908D01*
X498691Y-139936D01*
X498594Y-139977D01*
X498483Y-140019D01*
X498344Y-140061D01*
X498192Y-140102D01*
X498025Y-140144D01*
X497831Y-140185D01*
X497623Y-140227D01*
X497387Y-140269D01*
X497138Y-140296D01*
X496874Y-140324D01*
X496583Y-140338D01*
X496042D01*
X495917Y-140324D01*
X495779Y-140310D01*
X495612D01*
X495446Y-140282D01*
X495071Y-140241D01*
X494697Y-140171D01*
X494322Y-140074D01*
X494142Y-140005D01*
X493976Y-139936D01*
X493962D01*
X493934Y-139922D01*
X493893Y-139894D01*
X493837Y-139853D01*
X493684Y-139755D01*
X493490Y-139617D01*
X493268Y-139436D01*
X493046Y-139215D01*
X492811Y-138937D01*
X492589Y-138632D01*
Y-138618D01*
X492561Y-138590D01*
X492533Y-138535D01*
X492506Y-138466D01*
X492464Y-138383D01*
X492422Y-138285D01*
X492367Y-138161D01*
X492325Y-138036D01*
X492270Y-137883D01*
X492214Y-137717D01*
X492131Y-137356D01*
X492076Y-136954D01*
X492048Y-136524D01*
Y-136510D01*
Y-136441D01*
X492062Y-136358D01*
Y-136233D01*
X492076Y-136094D01*
X492103Y-135928D01*
X492145Y-135734D01*
X492187Y-135526D01*
X492242Y-135317D01*
X492312Y-135082D01*
X492408Y-134860D01*
X492506Y-134624D01*
X492630Y-134388D01*
X492783Y-134166D01*
X492949Y-133945D01*
X493144Y-133736D01*
X493157Y-133723D01*
X493199Y-133695D01*
X493255Y-133639D01*
X493352Y-133570D01*
X493462Y-133487D01*
X493587Y-133404D01*
X493754Y-133307D01*
X493934Y-133196D01*
X494142Y-133099D01*
X494364Y-133001D01*
X494627Y-132918D01*
X494891Y-132835D01*
X495182Y-132766D01*
X495501Y-132710D01*
X495834Y-132683D01*
X496195Y-132669D01*
X496347D01*
X496458Y-132683D01*
D02*
G37*
G36*
X445298D02*
X445450D01*
X445630Y-132710D01*
X445852Y-132738D01*
X446074Y-132780D01*
X446338Y-132835D01*
X446601Y-132904D01*
X446865Y-132988D01*
X447142Y-133085D01*
X447420Y-133209D01*
X447697Y-133362D01*
X447946Y-133528D01*
X448196Y-133736D01*
X448418Y-133958D01*
X448432Y-133972D01*
X448460Y-134000D01*
X448501Y-134069D01*
X448557Y-134139D01*
X448626Y-134236D01*
X448709Y-134361D01*
X448792Y-134499D01*
X448876Y-134652D01*
X448959Y-134832D01*
X449042Y-135026D01*
X449125Y-135234D01*
X449195Y-135456D01*
X449250Y-135692D01*
X449292Y-135942D01*
X449319Y-136205D01*
X449333Y-136482D01*
Y-136496D01*
Y-136552D01*
X449319Y-136649D01*
Y-136760D01*
X449306Y-136912D01*
X449278Y-137079D01*
X449236Y-137273D01*
X449195Y-137467D01*
X449125Y-137689D01*
X449056Y-137911D01*
X448959Y-138147D01*
X448848Y-138383D01*
X448723Y-138604D01*
X448571Y-138840D01*
X448390Y-139062D01*
X448196Y-139270D01*
X448182Y-139284D01*
X448141Y-139312D01*
X448085Y-139367D01*
X447988Y-139436D01*
X447877Y-139520D01*
X447738Y-139603D01*
X447572Y-139700D01*
X447392Y-139797D01*
X447184Y-139908D01*
X446948Y-140005D01*
X446684Y-140088D01*
X446407Y-140171D01*
X446116Y-140241D01*
X445797Y-140296D01*
X445450Y-140324D01*
X445090Y-140338D01*
X444923D01*
X444798Y-140324D01*
X444646Y-140310D01*
X444465Y-140296D01*
X444271Y-140269D01*
X444063Y-140227D01*
X443606Y-140116D01*
X443370Y-140047D01*
X443134Y-139963D01*
X442884Y-139866D01*
X442663Y-139742D01*
X442427Y-139603D01*
X442219Y-139450D01*
X442205Y-139436D01*
X442163Y-139395D01*
X442094Y-139339D01*
X442011Y-139242D01*
X441914Y-139131D01*
X441803Y-139007D01*
X441678Y-138840D01*
X441553Y-138674D01*
X441428Y-138466D01*
X441303Y-138244D01*
X441193Y-138008D01*
X441096Y-137745D01*
X441012Y-137467D01*
X440943Y-137176D01*
X440901Y-136857D01*
X440887Y-136524D01*
Y-136510D01*
Y-136455D01*
X440901Y-136358D01*
Y-136247D01*
X440929Y-136108D01*
X440943Y-135942D01*
X440984Y-135747D01*
X441026Y-135553D01*
X441082Y-135331D01*
X441165Y-135110D01*
X441248Y-134888D01*
X441359Y-134652D01*
X441484Y-134416D01*
X441636Y-134194D01*
X441817Y-133972D01*
X442011Y-133764D01*
X442025Y-133750D01*
X442066Y-133723D01*
X442136Y-133667D01*
X442219Y-133598D01*
X442330Y-133515D01*
X442468Y-133418D01*
X442635Y-133321D01*
X442829Y-133209D01*
X443037Y-133112D01*
X443259Y-133015D01*
X443522Y-132918D01*
X443786Y-132835D01*
X444091Y-132766D01*
X444396Y-132710D01*
X444729Y-132683D01*
X445090Y-132669D01*
X445187D01*
X445298Y-132683D01*
D02*
G37*
%LPC*%
G36*
X242500Y186250D02*
X238000D01*
Y183774D01*
X230976D01*
Y180728D01*
X222924D01*
Y182524D01*
X212876D01*
Y170476D01*
X213797D01*
Y167524D01*
X212876D01*
Y155476D01*
X222924D01*
Y167524D01*
X222003D01*
Y170476D01*
X222924D01*
Y172522D01*
X230976D01*
Y169726D01*
X238000D01*
Y167250D01*
X242500D01*
Y176750D01*
Y186250D01*
D02*
G37*
G36*
X167600Y184067D02*
Y170099D01*
Y156131D01*
X169407Y156879D01*
X171191Y158248D01*
X171661Y158861D01*
X173289Y158896D01*
X174237Y158168D01*
X175956Y157457D01*
X177800Y157214D01*
X179644Y157457D01*
X181362Y158168D01*
X182838Y159301D01*
X183970Y160776D01*
X184682Y162495D01*
X184925Y164339D01*
Y165996D01*
X188099D01*
X189669Y166308D01*
X191000Y167198D01*
X193330Y169528D01*
X194600Y169002D01*
Y164000D01*
X209600D01*
Y170000D01*
X208197D01*
X207124Y170476D01*
X207124Y171270D01*
Y182524D01*
X197076D01*
Y178603D01*
X192500D01*
X190930Y178291D01*
X189599Y177401D01*
X186399Y174202D01*
X184925D01*
Y175859D01*
X184682Y177703D01*
X183970Y179421D01*
X182838Y180897D01*
X181362Y182029D01*
X179644Y182741D01*
X177800Y182984D01*
X175956Y182741D01*
X174237Y182029D01*
X173289Y181301D01*
X171661Y181337D01*
X171191Y181950D01*
X169407Y183318D01*
X167600Y184067D01*
D02*
G37*
G36*
X209600Y159000D02*
X204600D01*
Y153000D01*
X209600D01*
Y159000D01*
D02*
G37*
G36*
X199600D02*
X194600D01*
Y153000D01*
X199600D01*
Y159000D01*
D02*
G37*
G36*
X454770Y-134735D02*
X454687D01*
X454576Y-134763D01*
X454451Y-134790D01*
X454312Y-134846D01*
X454160Y-134915D01*
X454007Y-135026D01*
X453868Y-135165D01*
X453854Y-135179D01*
X453813Y-135248D01*
X453757Y-135345D01*
X453688Y-135484D01*
X453619Y-135678D01*
X453563Y-135914D01*
X453521Y-136191D01*
X453508Y-136524D01*
Y-136538D01*
Y-136566D01*
Y-136607D01*
Y-136663D01*
X453521Y-136815D01*
X453549Y-137009D01*
X453591Y-137218D01*
X453660Y-137439D01*
X453743Y-137634D01*
X453868Y-137814D01*
X453882Y-137828D01*
X453938Y-137883D01*
X454021Y-137939D01*
X454132Y-138022D01*
X454257Y-138091D01*
X454423Y-138161D01*
X454603Y-138216D01*
X454797Y-138230D01*
X454881D01*
X454978Y-138202D01*
X455089Y-138174D01*
X455227Y-138133D01*
X455366Y-138063D01*
X455505Y-137966D01*
X455630Y-137828D01*
X455643Y-137814D01*
X455685Y-137745D01*
X455741Y-137647D01*
X455796Y-137509D01*
X455851Y-137315D01*
X455907Y-137079D01*
X455948Y-136802D01*
X455962Y-136469D01*
Y-136455D01*
Y-136427D01*
Y-136385D01*
Y-136316D01*
X455948Y-136164D01*
X455921Y-135969D01*
X455879Y-135761D01*
X455810Y-135539D01*
X455727Y-135345D01*
X455616Y-135165D01*
X455602Y-135151D01*
X455560Y-135096D01*
X455477Y-135026D01*
X455380Y-134943D01*
X455255Y-134874D01*
X455116Y-134804D01*
X454950Y-134749D01*
X454770Y-134735D01*
D02*
G37*
G36*
X479317Y-136691D02*
X479289Y-136704D01*
X479220Y-136718D01*
X479095Y-136760D01*
X478942Y-136815D01*
X478762Y-136871D01*
X478554Y-136940D01*
X478332Y-136996D01*
X478096Y-137065D01*
X478083D01*
X478055Y-137079D01*
X478013Y-137093D01*
X477958Y-137107D01*
X477805Y-137148D01*
X477639Y-137204D01*
X477444Y-137273D01*
X477264Y-137342D01*
X477112Y-137425D01*
X477056Y-137467D01*
X477001Y-137509D01*
X476987Y-137523D01*
X476959Y-137550D01*
X476931Y-137592D01*
X476890Y-137661D01*
X476807Y-137814D01*
X476779Y-137911D01*
X476765Y-138022D01*
Y-138036D01*
Y-138077D01*
X476779Y-138133D01*
X476793Y-138216D01*
X476820Y-138299D01*
X476862Y-138396D01*
X476917Y-138479D01*
X476987Y-138563D01*
X477001Y-138577D01*
X477029Y-138590D01*
X477084Y-138632D01*
X477167Y-138660D01*
X477264Y-138701D01*
X477375Y-138743D01*
X477514Y-138757D01*
X477680Y-138771D01*
X477763D01*
X477847Y-138757D01*
X477971Y-138743D01*
X478096Y-138715D01*
X478249Y-138674D01*
X478401Y-138618D01*
X478554Y-138549D01*
X478568Y-138535D01*
X478623Y-138507D01*
X478693Y-138466D01*
X478790Y-138396D01*
X478873Y-138313D01*
X478970Y-138230D01*
X479067Y-138119D01*
X479137Y-138008D01*
X479150Y-137994D01*
X479164Y-137952D01*
X479192Y-137869D01*
X479234Y-137772D01*
X479261Y-137647D01*
X479289Y-137509D01*
X479303Y-137342D01*
X479317Y-137148D01*
Y-136691D01*
D02*
G37*
G36*
X496306Y-134333D02*
X496278D01*
X496195Y-134347D01*
X496070Y-134361D01*
X495917Y-134402D01*
X495751Y-134458D01*
X495570Y-134555D01*
X495404Y-134693D01*
X495238Y-134874D01*
X495224Y-134888D01*
X495196Y-134929D01*
X495154Y-135012D01*
X495099Y-135123D01*
X495043Y-135262D01*
X494988Y-135428D01*
X494933Y-135623D01*
X494905Y-135858D01*
X497692D01*
Y-135844D01*
Y-135817D01*
X497678Y-135775D01*
Y-135720D01*
X497651Y-135581D01*
X497609Y-135401D01*
X497554Y-135220D01*
X497471Y-135026D01*
X497373Y-134846D01*
X497249Y-134693D01*
X497235Y-134680D01*
X497179Y-134638D01*
X497110Y-134583D01*
X496999Y-134513D01*
X496860Y-134444D01*
X496694Y-134388D01*
X496514Y-134347D01*
X496306Y-134333D01*
D02*
G37*
G36*
X445117Y-134610D02*
X445090D01*
X445020Y-134624D01*
X444909Y-134638D01*
X444757Y-134666D01*
X444604Y-134735D01*
X444438Y-134818D01*
X444258Y-134929D01*
X444105Y-135096D01*
X444091Y-135123D01*
X444049Y-135179D01*
X443980Y-135290D01*
X443911Y-135456D01*
X443828Y-135650D01*
X443772Y-135900D01*
X443717Y-136191D01*
X443703Y-136524D01*
Y-136538D01*
Y-136566D01*
Y-136621D01*
Y-136691D01*
X443717Y-136760D01*
X443731Y-136857D01*
X443758Y-137079D01*
X443800Y-137315D01*
X443869Y-137550D01*
X443966Y-137786D01*
X444091Y-137980D01*
X444105Y-137994D01*
X444160Y-138050D01*
X444258Y-138119D01*
X444368Y-138202D01*
X444521Y-138299D01*
X444687Y-138369D01*
X444882Y-138424D01*
X445103Y-138438D01*
X445131D01*
X445201Y-138424D01*
X445312Y-138410D01*
X445464Y-138383D01*
X445617Y-138327D01*
X445783Y-138244D01*
X445949Y-138133D01*
X446102Y-137980D01*
X446116Y-137952D01*
X446171Y-137897D01*
X446227Y-137786D01*
X446310Y-137620D01*
X446379Y-137412D01*
X446449Y-137162D01*
X446490Y-136857D01*
X446504Y-136496D01*
Y-136482D01*
Y-136455D01*
Y-136399D01*
Y-136344D01*
X446490Y-136177D01*
X446449Y-135969D01*
X446407Y-135734D01*
X446338Y-135498D01*
X446241Y-135276D01*
X446102Y-135082D01*
X446088Y-135068D01*
X446033Y-135012D01*
X445949Y-134929D01*
X445825Y-134846D01*
X445686Y-134763D01*
X445519Y-134680D01*
X445325Y-134624D01*
X445117Y-134610D01*
D02*
G37*
%LPD*%
D10*
X130500Y97500D02*
Y104100D01*
X256000Y146750D02*
X283286D01*
X244000Y137000D02*
X270000D01*
X237000D02*
X244000D01*
X110000Y71000D02*
X114500Y75500D01*
X110000Y62900D02*
Y71000D01*
X114500Y75500D02*
X143500D01*
X264000Y35000D02*
Y51000D01*
X303000Y145000D02*
Y154600D01*
X300726Y142726D02*
X303000Y145000D01*
X275726Y142726D02*
X300726D01*
X270000Y137000D02*
X275726Y142726D01*
X235500Y138500D02*
X237000Y137000D01*
X235500Y138500D02*
Y148250D01*
X284750Y148215D02*
Y152350D01*
X254500Y148250D02*
X256000Y146750D01*
X283286D02*
X284750Y148215D01*
Y152350D02*
X285000D01*
X287250Y154600D02*
X288000D01*
X285000Y152350D02*
X287250Y154600D01*
X430500Y57500D02*
Y73550D01*
X424000Y51000D02*
X430500Y57500D01*
X385000Y51000D02*
X424000D01*
X381000Y55000D02*
Y63100D01*
Y55000D02*
X385000Y51000D01*
X151000Y95000D02*
X154036D01*
X133000D02*
X151000D01*
X150500Y87500D02*
Y94500D01*
X151000Y95000D01*
X130500Y97500D02*
X133000Y95000D01*
X155500Y87500D02*
Y93535D01*
X154036Y95000D02*
X155500Y93535D01*
X113500Y104100D02*
X128500D01*
X244000Y40000D02*
Y60000D01*
X229900Y37000D02*
X241000D01*
X244000Y40000D01*
X248500Y64500D02*
X263000D01*
X244000Y60000D02*
X248500Y64500D01*
X196000Y32000D02*
X199000Y35000D01*
X195000Y32000D02*
X196000D01*
X183809D02*
X183833Y31976D01*
X182000Y32000D02*
X183809D01*
X183833Y31976D02*
X194976D01*
X195000Y32000D01*
X180500Y33500D02*
X182000Y32000D01*
X180500Y33500D02*
Y38500D01*
X213850Y38250D02*
Y52250D01*
X205750Y40250D02*
X211850D01*
X213850Y38250D01*
X200500Y45500D02*
X205750Y40250D01*
X192500Y45500D02*
X200500D01*
X213600Y52500D02*
X213850Y52250D01*
X213600Y67500D02*
Y82500D01*
X213100Y67000D02*
X213600Y67500D01*
X206000Y67000D02*
X213100D01*
X204000Y65000D02*
X206000Y67000D01*
X204000Y53000D02*
Y65000D01*
X201500Y50500D02*
X204000Y53000D01*
X192500Y50500D02*
X201500D01*
X160500Y25900D02*
Y38500D01*
Y25900D02*
X161000Y25400D01*
X142414Y27650D02*
X144664Y25400D01*
X145500D01*
X142414Y27650D02*
Y33586D01*
X141000Y35000D02*
X142414Y33586D01*
X139000Y35000D02*
X141000D01*
X136000Y38000D02*
X139000Y35000D01*
X136000Y46191D02*
X139333Y49524D01*
X140024D01*
X141000Y50500D01*
X143500D01*
X136000Y38000D02*
Y46191D01*
X130500Y25400D02*
Y46500D01*
X139500Y55500D02*
X143500D01*
X130500Y46500D02*
X139500Y55500D01*
X132000Y58000D02*
X133488D01*
X135988Y60500D02*
X143500D01*
X133488Y58000D02*
X135988Y60500D01*
X133488Y68000D02*
X135988Y65500D01*
X143500D01*
X132000Y68000D02*
X133488D01*
D11*
X192000Y116919D02*
Y125000D01*
X461000Y49000D02*
Y73050D01*
X460500Y73550D02*
X461000Y73050D01*
X381000Y40900D02*
X452900D01*
X461000Y49000D01*
X170500Y95419D02*
X192000Y116919D01*
X170500Y87500D02*
Y95419D01*
X176900Y114000D02*
X178000Y115100D01*
X171000Y114000D02*
X176900D01*
X162250Y109750D02*
X165000Y112500D01*
X162250Y109250D02*
Y109750D01*
X165000Y112500D02*
X169500D01*
X171000Y114000D01*
X162250Y100750D02*
Y109250D01*
Y100750D02*
X165500Y97500D01*
Y87500D02*
Y97500D01*
X151500Y123000D02*
X151750Y122750D01*
X149100Y125400D02*
X151500Y123000D01*
X149100Y125400D02*
Y141000D01*
X137000Y120000D02*
X140000Y123000D01*
X137000Y102000D02*
Y120000D01*
X140000Y123000D02*
X151500D01*
X137000Y102000D02*
X139000Y100000D01*
X156000D01*
X160500Y95500D01*
Y87500D02*
Y95500D01*
X138000Y72000D02*
Y75000D01*
X143404Y70596D02*
X143500Y70500D01*
X139404Y70596D02*
X143404D01*
X138000Y72000D02*
X139404Y70596D01*
D12*
X381000Y25100D02*
X398900D01*
X399800Y26000D01*
X398774Y71550D02*
X400168Y72944D01*
X385207Y71550D02*
X398774D01*
X382000Y74757D02*
Y77900D01*
Y74757D02*
X385207Y71550D01*
X381000Y78900D02*
X382000Y77900D01*
X262000Y9000D02*
X263000Y10000D01*
X174000Y9000D02*
X262000D01*
X101541Y87801D02*
Y96000D01*
X76000Y87801D02*
Y96000D01*
X213850Y28850D02*
Y38250D01*
X159000Y18000D02*
X161000Y20000D01*
Y25400D01*
X148000Y18000D02*
X159000D01*
X145500Y15500D02*
X148000Y18000D01*
X145500Y9600D02*
Y15500D01*
X210400Y25400D02*
X213850Y28850D01*
X161000Y25400D02*
X210400D01*
D18*
X254500Y176750D02*
D03*
X245000D02*
D03*
X235500D02*
D03*
Y148250D02*
D03*
X254500D02*
D03*
D19*
X202100Y176500D02*
D03*
X217900D02*
D03*
X202100Y161500D02*
D03*
X217900D02*
D03*
X285600Y132500D02*
D03*
X301400D02*
D03*
Y117500D02*
D03*
X285600D02*
D03*
X229400Y52500D02*
D03*
X213600D02*
D03*
X214100Y37000D02*
D03*
X229900D02*
D03*
X213600Y82500D02*
D03*
X229400D02*
D03*
X213600Y67500D02*
D03*
X229400D02*
D03*
X164900Y141000D02*
D03*
X149100D02*
D03*
D20*
X85358Y81313D02*
D03*
X91858D02*
D03*
D21*
X349000Y112300D02*
D03*
Y131700D02*
D03*
X467000Y112800D02*
D03*
Y132200D02*
D03*
D22*
X366500Y114600D02*
D03*
Y130400D02*
D03*
X381500Y114600D02*
D03*
Y130400D02*
D03*
X449500Y130400D02*
D03*
Y114600D02*
D03*
X434500Y130400D02*
D03*
Y114600D02*
D03*
X110000Y47100D02*
D03*
Y62900D02*
D03*
X80000Y47100D02*
D03*
Y62900D02*
D03*
X95000Y47100D02*
D03*
Y62900D02*
D03*
X303000Y170400D02*
D03*
Y154600D02*
D03*
X288000Y170400D02*
D03*
Y154600D02*
D03*
X272500Y154600D02*
D03*
Y170400D02*
D03*
X161000Y9600D02*
D03*
Y25400D02*
D03*
X130500Y9600D02*
D03*
Y25400D02*
D03*
X145500Y9600D02*
D03*
Y25400D02*
D03*
X131000Y173900D02*
D03*
Y158100D02*
D03*
X178000Y115100D02*
D03*
Y130900D02*
D03*
X113500Y119900D02*
D03*
Y104100D02*
D03*
X128500D02*
D03*
Y119900D02*
D03*
X381000Y40900D02*
D03*
Y25100D02*
D03*
Y63100D02*
D03*
Y78900D02*
D03*
D23*
X417602Y136500D02*
D03*
Y108500D02*
D03*
X408102D02*
D03*
X398602Y136500D02*
D03*
Y108500D02*
D03*
D24*
X143500Y80500D02*
D03*
Y75500D02*
D03*
Y70500D02*
D03*
Y65500D02*
D03*
Y60500D02*
D03*
Y55500D02*
D03*
Y50500D02*
D03*
Y45500D02*
D03*
X192500D02*
D03*
Y50500D02*
D03*
Y55500D02*
D03*
Y60500D02*
D03*
Y65500D02*
D03*
Y70500D02*
D03*
Y75500D02*
D03*
Y80500D02*
D03*
D25*
X150500Y38500D02*
D03*
X155500D02*
D03*
X160500D02*
D03*
X165500D02*
D03*
X170500D02*
D03*
X175500D02*
D03*
X180500D02*
D03*
X185500D02*
D03*
Y87500D02*
D03*
X180500D02*
D03*
X175500D02*
D03*
X170500D02*
D03*
X165500D02*
D03*
X160500D02*
D03*
X155500D02*
D03*
X150500D02*
D03*
D26*
X168000Y63000D02*
D03*
D27*
X263000Y10000D02*
D03*
Y51000D02*
D03*
Y64500D02*
D03*
Y105500D02*
D03*
D28*
X101541Y81301D02*
D03*
Y87801D02*
D03*
X76000Y81301D02*
D03*
Y87801D02*
D03*
D29*
X151750Y109250D02*
D03*
X162250D02*
D03*
X151750Y122750D02*
D03*
X162250D02*
D03*
D30*
X20500Y50000D02*
D03*
Y81000D02*
D03*
D31*
X425500Y73550D02*
D03*
X430500D02*
D03*
X435500D02*
D03*
X460500D02*
D03*
X455500D02*
D03*
X450500D02*
D03*
X440500D02*
D03*
X445500D02*
D03*
D32*
X467000D02*
D03*
X419000D02*
D03*
X475000D02*
D03*
X411000D02*
D03*
D56*
X229400Y99400D02*
X235500Y105500D01*
X263000D01*
X229400Y82500D02*
Y99400D01*
X331000Y110000D02*
Y126000D01*
X349650Y131050D02*
X380850D01*
X331000Y126000D02*
X336700Y131700D01*
X349000D01*
X165000Y156000D02*
Y169999D01*
X165100Y170099D01*
X161000Y152000D02*
X165000Y156000D01*
X245000Y162000D02*
X259000D01*
X202771Y152600D02*
X203100Y152929D01*
Y160500D01*
X202100Y161500D02*
X203100Y160500D01*
X112997Y104603D02*
X113500Y104100D01*
X105397Y104603D02*
X112997D01*
X98000Y112000D02*
X105397Y104603D01*
X97000Y135406D02*
Y157000D01*
Y135406D02*
X98000Y134406D01*
Y112000D02*
Y134406D01*
X102500Y62900D02*
X110000D01*
X95000D02*
X102500D01*
X110000D02*
X110544Y62356D01*
X118063D02*
X120992Y59427D01*
X123921Y10600D02*
X129500D01*
X120992Y13529D02*
X123921Y10600D01*
X110544Y62356D02*
X118063D01*
X129500Y10600D02*
X130500Y9600D01*
X120992Y13529D02*
Y59427D01*
X272500Y170400D02*
X337600D01*
X80000Y62900D02*
X95000D01*
X165100Y170099D02*
X166263Y171262D01*
X244500Y177250D02*
X245000Y176750D01*
X145000Y152000D02*
X161000D01*
X139900Y157100D02*
X145000Y152000D01*
X97000Y157000D02*
X113900Y173900D01*
X131000D01*
X254500Y176750D02*
Y178500D01*
X131000Y158100D02*
X132000Y157100D01*
X139900D01*
X131000Y173900D02*
X149591D01*
X217900Y161500D02*
Y176500D01*
X218025Y176625D02*
X235375D01*
X217900Y176500D02*
X218025Y176625D01*
X235375D02*
X235500Y176750D01*
X188099Y170099D02*
X192500Y174500D01*
X202100Y175500D02*
Y176500D01*
X201100Y174500D02*
X202100Y175500D01*
X192500Y174500D02*
X201100D01*
X177800Y170099D02*
X188099D01*
X265400Y155600D02*
X271500D01*
X272500Y154600D01*
X259000Y162000D02*
X265400Y155600D01*
X245000Y162000D02*
Y176750D01*
X254500Y178500D02*
X255000Y179000D01*
X269071D01*
X272000Y170900D02*
Y176071D01*
X269071Y179000D02*
X272000Y176071D01*
Y170900D02*
X272500Y170400D01*
X337600D02*
X349000Y159000D01*
Y131700D02*
Y159000D01*
X398602Y138500D02*
Y146602D01*
X383500Y136071D02*
X386429Y139000D01*
X383500Y131400D02*
Y136071D01*
X398602Y136500D02*
Y138500D01*
X398102Y139000D02*
X398602Y138500D01*
X386429Y139000D02*
X398102D01*
X381500Y130400D02*
X382500D01*
X383500Y131400D01*
X349000Y131700D02*
X349650Y131050D01*
X380850D02*
X381500Y130400D01*
X452400Y159400D02*
Y183000D01*
X445000Y152000D02*
X452400Y159400D01*
X404000Y152000D02*
X445000D01*
X398602Y146602D02*
X404000Y152000D01*
X435400Y113700D02*
X466100D01*
X477800Y183000D02*
X478000Y182800D01*
Y162000D02*
Y182800D01*
Y162000D02*
X482000Y158000D01*
Y116000D02*
Y158000D01*
X467000Y112800D02*
X478800D01*
X482000Y116000D01*
X350300Y113600D02*
X380500D01*
X349000Y112300D02*
X350300Y113600D01*
X380500D02*
X381500Y114600D01*
X398602Y108500D02*
Y122602D01*
X402000Y126000D01*
X414673D01*
X417602Y108500D02*
Y123071D01*
X414673Y126000D02*
X417602Y123071D01*
X408000Y108602D02*
Y116000D01*
Y108602D02*
X408102Y108500D01*
X435400Y131300D02*
X466100D01*
X434500Y130400D02*
X435400Y131300D01*
X466100D02*
X467000Y132200D01*
X417602Y107500D02*
Y108500D01*
X431071Y107000D02*
X434000Y109929D01*
Y114100D01*
X417602Y107500D02*
X418102Y107000D01*
X431071D01*
X434000Y114100D02*
X434500Y114600D01*
X466100Y113700D02*
X467000Y112800D01*
X434500Y114600D02*
X435400Y113700D01*
X467000Y83000D02*
Y112800D01*
X467000Y112800D02*
X467000Y112800D01*
Y83000D02*
X467000Y83000D01*
X475000Y71175D02*
X475500Y70675D01*
X483659D02*
X486200Y68134D01*
X475000Y71175D02*
Y73550D01*
X475500Y70675D02*
X483659D01*
X486200Y67800D02*
Y68134D01*
X399800D02*
X402341Y70675D01*
X411000Y71175D02*
Y73550D01*
X410500Y70675D02*
X411000Y71175D01*
X402341Y70675D02*
X410500D01*
X399800Y67800D02*
Y68134D01*
X163900Y140000D02*
X175071D01*
X178000Y137071D01*
Y130900D02*
Y137071D01*
X163900Y140000D02*
X163900Y140000D01*
X162250Y122750D02*
X163400Y123900D01*
X162000Y123000D02*
X162250Y122750D01*
X162000Y123000D02*
Y131000D01*
X163900Y132900D02*
Y140000D01*
X162000Y131000D02*
X163900Y132900D01*
X151625Y109125D02*
X151750Y109250D01*
X144000Y109000D02*
X144125Y109125D01*
X151625D01*
X113500Y119900D02*
X128500D01*
X161600Y9000D02*
X174000D01*
X161000Y9600D02*
X161600Y9000D01*
X229400Y67500D02*
Y82500D01*
Y52500D02*
Y67500D01*
X95000Y47100D02*
X110000D01*
X80000D02*
X95000D01*
X130500Y9600D02*
X145500D01*
X467000Y73550D02*
Y83000D01*
X419000Y73550D02*
Y83000D01*
D57*
X76000Y81313D02*
X85358D01*
X75699Y81000D02*
X76000Y81301D01*
X20500Y81000D02*
X75699D01*
X92837Y80500D02*
X101541D01*
X92630Y81329D02*
X92670Y81290D01*
X101541Y80500D02*
X143500D01*
X143387Y80613D02*
X143500Y80500D01*
X175500Y95500D02*
X202000Y122000D01*
Y132000D01*
X436000Y91992D02*
X441008D01*
X327348D02*
X436000D01*
X435500Y73550D02*
X436000Y74050D01*
Y91992D01*
X444954Y74096D02*
Y88046D01*
X441008Y91992D02*
X444954Y88046D01*
X329008Y96000D02*
X444000D01*
X449508Y73550D02*
Y90492D01*
Y66804D02*
Y73550D01*
X444000Y96000D02*
X449508Y90492D01*
X313000Y106340D02*
X327348Y91992D01*
X444954Y74096D02*
X445500Y73550D01*
X175500Y87500D02*
Y95500D01*
X440500Y73550D02*
X441046Y73004D01*
Y67249D02*
Y73004D01*
X448026Y65322D02*
X449508Y66804D01*
X441046Y67249D02*
X442974Y65322D01*
X448026D01*
X317008Y108000D02*
X329008Y96000D01*
X317008Y108000D02*
Y119656D01*
X308000Y122996D02*
X313000Y117996D01*
X305064Y127004D02*
X309660D01*
X317008Y119656D01*
X313000Y106340D02*
Y117996D01*
X305064Y122996D02*
X308000D01*
X301400Y117500D02*
X303946Y120046D01*
Y121878D01*
X305064Y122996D01*
X301400Y132500D02*
X303946Y129954D01*
Y128122D02*
Y129954D01*
Y128122D02*
X305064Y127004D01*
X185004Y93336D02*
X214664Y122996D01*
X180996Y90656D02*
Y94996D01*
X180500Y90160D02*
X180996Y90656D01*
X180500Y87500D02*
Y90160D01*
X185500Y87500D02*
Y90160D01*
X185004Y90656D02*
Y93336D01*
Y90656D02*
X185500Y90160D01*
X283054Y120046D02*
X285600Y117500D01*
X213004Y127004D02*
X281936D01*
X283054Y129954D02*
X285600Y132500D01*
X214664Y122996D02*
X281936D01*
X283054Y121878D01*
Y128122D02*
Y129954D01*
X281936Y127004D02*
X283054Y128122D01*
Y120046D02*
Y121878D01*
X180996Y94996D02*
X213004Y127004D01*
D58*
X477800Y183000D02*
D03*
D59*
X452400D02*
D03*
X427000D02*
D03*
X401600D02*
D03*
X376200D02*
D03*
D60*
X152400Y170099D02*
D03*
X177800D02*
D03*
X165100D02*
D03*
D61*
X414100Y62800D02*
D03*
X471900D02*
D03*
D62*
X486200Y67800D02*
D03*
X399800D02*
D03*
D63*
X486200Y26000D02*
D03*
X399800D02*
D03*
D64*
X331375Y110000D02*
D03*
X228375Y162000D02*
D03*
X202771Y153000D02*
D03*
X245500Y188000D02*
D03*
X228875D02*
D03*
X179000D02*
D03*
Y153000D02*
D03*
X195625Y188000D02*
D03*
X212250D02*
D03*
X245000Y162000D02*
D03*
X98000Y112000D02*
D03*
X101541Y96000D02*
D03*
X76000D02*
D03*
X102500Y62900D02*
D03*
X244000Y137000D02*
D03*
X192000Y125000D02*
D03*
X202000Y132000D02*
D03*
X263000Y147000D02*
D03*
X374000Y114000D02*
D03*
X408000Y116000D02*
D03*
X442000Y131000D02*
D03*
X162950Y131950D02*
D03*
X144000Y109000D02*
D03*
X121000Y119900D02*
D03*
X174000Y9000D02*
D03*
X241000Y37000D02*
D03*
X229400Y60000D02*
D03*
X199000Y35000D02*
D03*
X102500Y47100D02*
D03*
X264000Y35000D02*
D03*
X141000Y35000D02*
D03*
X467000Y83000D02*
D03*
X419000D02*
D03*
X132000Y58000D02*
D03*
Y68000D02*
D03*
D65*
X157000Y74000D02*
D03*
X168000D02*
D03*
X179000D02*
D03*
X157000Y63000D02*
D03*
X168000D02*
D03*
X179000D02*
D03*
X157000Y52000D02*
D03*
X168000D02*
D03*
X179000D02*
D03*
M02*
