M48
;Layer_Color=9474304
;FILE_FORMAT=4:4
METRIC,LZ
;TYPE=PLATED
T01F00S00C0.4000
T02F00S00C0.6000
T04F00S00C0.9000
;TYPE=NON_PLATED
T05F00S00C0.6500
T06F00S00C3.1000
%
T01
X00374Y00114
X00408Y00116
X00419Y00083
X00467
X00442Y00131
X00331375Y0011
X00263Y00147
X00244Y00137
X00245Y00162
X00228375
X00228875Y00188
X002455
X0021225
X00195625
X00179
Y00153
X00202771
X00202Y00132
X00192Y00125
X0016295Y0013195
X00144Y00109
X00121Y001199
X00098Y00112
X00101541Y00096
X00076
X001025Y000629
Y000471
X00132Y00058
Y00068
X00157Y00063
Y00074
X00168
X00179
Y00063
X00168
Y00052
X00157
X00179
X00199Y00035
X00241Y00037
X00264Y00035
X002294Y0006
X00174Y00009
X00141Y00035
T02
X001524Y00170099
X001651
X001778
T04
X003762Y00183
X004016
X00427
X004524
X004778
T05
X004141Y000628
X004719
T06
X00043Y00153
X00331Y00048
M30
