G04*
G04 #@! TF.GenerationSoftware,Altium Limited,Altium Designer,24.0.1 (36)*
G04*
G04 Layer_Color=2752767*
%FSLAX44Y44*%
%MOMM*%
G71*
G04*
G04 #@! TF.SameCoordinates,F64AAE0E-53C9-4E3E-96B2-16B86AA6748B*
G04*
G04*
G04 #@! TF.FilePolarity,Positive*
G04*
G01*
G75*
%ADD15C,0.2540*%
%ADD68C,0.1270*%
%ADD69C,0.3810*%
%ADD70C,0.0254*%
%ADD71C,0.4064*%
%ADD72C,0.3556*%
G36*
X509467Y-284914D02*
X506651D01*
Y-283000D01*
X509467D01*
Y-284914D01*
D02*
G37*
G36*
X450484D02*
X447669D01*
Y-283000D01*
X450484D01*
Y-284914D01*
D02*
G37*
G36*
X482118Y-285649D02*
X482285Y-285677D01*
X482493Y-285732D01*
X482728Y-285801D01*
X482978Y-285898D01*
X483255Y-286023D01*
X482382Y-288034D01*
X482354Y-288020D01*
X482299Y-288006D01*
X482215Y-287965D01*
X482090Y-287923D01*
X481841Y-287854D01*
X481716Y-287840D01*
X481591Y-287826D01*
X481494D01*
X481397Y-287854D01*
X481272Y-287882D01*
X481133Y-287937D01*
X480995Y-288020D01*
X480856Y-288131D01*
X480731Y-288284D01*
Y-288298D01*
X480718Y-288312D01*
X480690Y-288353D01*
X480662Y-288409D01*
X480634Y-288492D01*
X480593Y-288575D01*
X480551Y-288700D01*
X480523Y-288825D01*
X480482Y-288977D01*
X480440Y-289158D01*
X480398Y-289352D01*
X480371Y-289574D01*
X480343Y-289809D01*
X480315Y-290073D01*
X480301Y-290364D01*
Y-290683D01*
Y-293138D01*
X477472D01*
Y-285801D01*
X480107D01*
Y-286994D01*
X480121Y-286980D01*
X480149Y-286939D01*
X480177Y-286883D01*
X480246Y-286744D01*
X480343Y-286578D01*
X480468Y-286412D01*
X480593Y-286231D01*
X480731Y-286065D01*
X480884Y-285940D01*
X480898Y-285926D01*
X480953Y-285898D01*
X481036Y-285843D01*
X481161Y-285788D01*
X481300Y-285732D01*
X481480Y-285677D01*
X481674Y-285649D01*
X481882Y-285635D01*
X481993D01*
X482118Y-285649D01*
D02*
G37*
G36*
X445949D02*
X446116Y-285677D01*
X446324Y-285732D01*
X446560Y-285801D01*
X446809Y-285898D01*
X447087Y-286023D01*
X446213Y-288034D01*
X446185Y-288020D01*
X446130Y-288006D01*
X446046Y-287965D01*
X445922Y-287923D01*
X445672Y-287854D01*
X445547Y-287840D01*
X445422Y-287826D01*
X445325D01*
X445228Y-287854D01*
X445103Y-287882D01*
X444965Y-287937D01*
X444826Y-288020D01*
X444687Y-288131D01*
X444563Y-288284D01*
Y-288298D01*
X444549Y-288312D01*
X444521Y-288353D01*
X444493Y-288409D01*
X444465Y-288492D01*
X444424Y-288575D01*
X444382Y-288700D01*
X444355Y-288825D01*
X444313Y-288977D01*
X444271Y-289158D01*
X444230Y-289352D01*
X444202Y-289574D01*
X444174Y-289809D01*
X444146Y-290073D01*
X444133Y-290364D01*
Y-290683D01*
Y-293138D01*
X441303D01*
Y-285801D01*
X443938D01*
Y-286994D01*
X443952Y-286980D01*
X443980Y-286939D01*
X444008Y-286883D01*
X444077Y-286744D01*
X444174Y-286578D01*
X444299Y-286412D01*
X444424Y-286231D01*
X444563Y-286065D01*
X444715Y-285940D01*
X444729Y-285926D01*
X444785Y-285898D01*
X444868Y-285843D01*
X444992Y-285788D01*
X445131Y-285732D01*
X445312Y-285677D01*
X445506Y-285649D01*
X445714Y-285635D01*
X445825D01*
X445949Y-285649D01*
D02*
G37*
G36*
X516720D02*
X516817Y-285663D01*
X516928Y-285677D01*
X517191Y-285718D01*
X517483Y-285801D01*
X517788Y-285926D01*
X517940Y-286009D01*
X518093Y-286106D01*
X518232Y-286217D01*
X518356Y-286342D01*
X518370Y-286356D01*
X518384Y-286370D01*
X518412Y-286412D01*
X518467Y-286467D01*
X518509Y-286550D01*
X518564Y-286633D01*
X518634Y-286744D01*
X518689Y-286869D01*
X518759Y-287008D01*
X518814Y-287174D01*
X518869Y-287341D01*
X518925Y-287535D01*
X518966Y-287743D01*
X518994Y-287965D01*
X519008Y-288214D01*
X519022Y-288478D01*
Y-293138D01*
X516193D01*
Y-289116D01*
Y-289102D01*
Y-289088D01*
Y-289005D01*
X516179Y-288880D01*
X516165Y-288728D01*
X516124Y-288575D01*
X516082Y-288409D01*
X516013Y-288256D01*
X515929Y-288131D01*
X515915Y-288117D01*
X515888Y-288090D01*
X515832Y-288034D01*
X515749Y-287979D01*
X515638Y-287937D01*
X515527Y-287882D01*
X515375Y-287854D01*
X515208Y-287840D01*
X515125D01*
X515028Y-287854D01*
X514917Y-287882D01*
X514778Y-287937D01*
X514640Y-288006D01*
X514501Y-288104D01*
X514376Y-288228D01*
X514362Y-288242D01*
X514334Y-288298D01*
X514279Y-288409D01*
X514224Y-288547D01*
X514168Y-288741D01*
X514113Y-288977D01*
X514085Y-289268D01*
X514071Y-289435D01*
Y-289615D01*
Y-293138D01*
X511256D01*
Y-285801D01*
X513877D01*
Y-287008D01*
X513891Y-286994D01*
X513905Y-286980D01*
X513974Y-286883D01*
X514099Y-286758D01*
X514237Y-286606D01*
X514418Y-286425D01*
X514626Y-286259D01*
X514834Y-286093D01*
X515056Y-285954D01*
X515070D01*
X515083Y-285940D01*
X515167Y-285898D01*
X515291Y-285857D01*
X515472Y-285788D01*
X515680Y-285732D01*
X515929Y-285690D01*
X516221Y-285649D01*
X516526Y-285635D01*
X516637D01*
X516720Y-285649D01*
D02*
G37*
G36*
X503018Y-293138D02*
X500508D01*
X499024Y-288728D01*
X497581Y-293138D01*
X495071D01*
X492353Y-285801D01*
X495071D01*
X496250Y-290420D01*
X497734Y-285801D01*
X500272D01*
X501825Y-290420D01*
X503018Y-285801D01*
X505722D01*
X503018Y-293138D01*
D02*
G37*
G36*
X509467D02*
X506651D01*
Y-285801D01*
X509467D01*
Y-293138D01*
D02*
G37*
G36*
X487846Y-285649D02*
X488123D01*
X488456Y-285677D01*
X488789Y-285704D01*
X489122Y-285732D01*
X489427Y-285788D01*
X489468D01*
X489496Y-285801D01*
X489552Y-285815D01*
X489704Y-285857D01*
X489884Y-285912D01*
X490079Y-285996D01*
X490300Y-286093D01*
X490509Y-286217D01*
X490717Y-286370D01*
X490731Y-286384D01*
X490772Y-286425D01*
X490841Y-286495D01*
X490925Y-286606D01*
X491008Y-286731D01*
X491105Y-286883D01*
X491202Y-287050D01*
X491285Y-287258D01*
X491299Y-287285D01*
X491313Y-287355D01*
X491354Y-287466D01*
X491396Y-287604D01*
X491424Y-287771D01*
X491465Y-287951D01*
X491479Y-288145D01*
X491493Y-288339D01*
Y-291584D01*
Y-291612D01*
Y-291668D01*
Y-291765D01*
X491507Y-291876D01*
Y-292015D01*
X491521Y-292139D01*
X491535Y-292278D01*
X491549Y-292403D01*
Y-292417D01*
X491563Y-292458D01*
X491576Y-292514D01*
X491618Y-292597D01*
X491646Y-292708D01*
X491701Y-292833D01*
X491771Y-292985D01*
X491840Y-293138D01*
X489205D01*
Y-293124D01*
X489177Y-293096D01*
X489150Y-293041D01*
X489122Y-292985D01*
X489039Y-292833D01*
X488983Y-292708D01*
Y-292694D01*
Y-292680D01*
X488969Y-292638D01*
X488955Y-292597D01*
X488941Y-292528D01*
X488928Y-292444D01*
X488914Y-292347D01*
X488900Y-292236D01*
X488872Y-292264D01*
X488803Y-292320D01*
X488692Y-292417D01*
X488553Y-292528D01*
X488387Y-292666D01*
X488192Y-292791D01*
X487998Y-292902D01*
X487790Y-292999D01*
X487776D01*
X487763Y-293013D01*
X487721Y-293027D01*
X487652Y-293041D01*
X487582Y-293069D01*
X487499Y-293096D01*
X487291Y-293152D01*
X487042Y-293207D01*
X486750Y-293263D01*
X486417Y-293290D01*
X486057Y-293304D01*
X485932D01*
X485835Y-293290D01*
X485738D01*
X485599Y-293277D01*
X485308Y-293235D01*
X484989Y-293152D01*
X484656Y-293055D01*
X484337Y-292902D01*
X484198Y-292819D01*
X484060Y-292708D01*
X484046Y-292694D01*
X484032Y-292680D01*
X483949Y-292597D01*
X483852Y-292472D01*
X483727Y-292292D01*
X483602Y-292070D01*
X483491Y-291820D01*
X483408Y-291529D01*
X483394Y-291376D01*
X483380Y-291210D01*
Y-291196D01*
Y-291168D01*
Y-291127D01*
X483394Y-291071D01*
X483408Y-290919D01*
X483436Y-290725D01*
X483505Y-290503D01*
X483588Y-290267D01*
X483699Y-290045D01*
X483866Y-289837D01*
X483893Y-289809D01*
X483963Y-289754D01*
X484018Y-289698D01*
X484087Y-289657D01*
X484185Y-289601D01*
X484282Y-289532D01*
X484393Y-289463D01*
X484531Y-289407D01*
X484684Y-289338D01*
X484836Y-289268D01*
X485031Y-289199D01*
X485225Y-289144D01*
X485447Y-289088D01*
X485682Y-289033D01*
X485696D01*
X485752Y-289019D01*
X485835Y-289005D01*
X485946Y-288977D01*
X486071Y-288950D01*
X486209Y-288922D01*
X486542Y-288853D01*
X486889Y-288783D01*
X487222Y-288714D01*
X487388Y-288672D01*
X487527Y-288644D01*
X487652Y-288617D01*
X487749Y-288589D01*
X487776D01*
X487832Y-288561D01*
X487929Y-288533D01*
X488054Y-288492D01*
X488206Y-288436D01*
X488373Y-288381D01*
X488553Y-288312D01*
X488747Y-288242D01*
Y-288214D01*
Y-288159D01*
X488733Y-288062D01*
X488719Y-287965D01*
X488692Y-287840D01*
X488650Y-287715D01*
X488595Y-287618D01*
X488525Y-287521D01*
X488512Y-287507D01*
X488484Y-287493D01*
X488428Y-287452D01*
X488345Y-287410D01*
X488248Y-287382D01*
X488109Y-287341D01*
X487957Y-287327D01*
X487763Y-287313D01*
X487652D01*
X487527Y-287327D01*
X487374Y-287341D01*
X487208Y-287369D01*
X487028Y-287410D01*
X486861Y-287466D01*
X486722Y-287535D01*
X486709Y-287549D01*
X486681Y-287577D01*
X486625Y-287618D01*
X486570Y-287687D01*
X486501Y-287771D01*
X486431Y-287882D01*
X486362Y-288020D01*
X486293Y-288187D01*
X483602Y-287896D01*
Y-287882D01*
X483616Y-287868D01*
X483630Y-287785D01*
X483658Y-287660D01*
X483713Y-287493D01*
X483769Y-287327D01*
X483838Y-287147D01*
X483935Y-286966D01*
X484032Y-286800D01*
X484046Y-286786D01*
X484087Y-286731D01*
X484157Y-286647D01*
X484240Y-286550D01*
X484365Y-286439D01*
X484504Y-286328D01*
X484670Y-286204D01*
X484864Y-286093D01*
X484878Y-286079D01*
X484934Y-286051D01*
X485017Y-286009D01*
X485141Y-285968D01*
X485294Y-285912D01*
X485474Y-285857D01*
X485696Y-285801D01*
X485932Y-285760D01*
X485960D01*
X486001Y-285746D01*
X486057D01*
X486195Y-285718D01*
X486376Y-285690D01*
X486584Y-285677D01*
X486833Y-285649D01*
X487111Y-285635D01*
X487721D01*
X487846Y-285649D01*
D02*
G37*
G36*
X471661Y-283014D02*
X471800D01*
X471939Y-283028D01*
X472105Y-283042D01*
X472466Y-283097D01*
X472826Y-283153D01*
X473201Y-283250D01*
X473534Y-283374D01*
X473548D01*
X473575Y-283388D01*
X473617Y-283416D01*
X473672Y-283444D01*
X473825Y-283527D01*
X474033Y-283652D01*
X474241Y-283804D01*
X474477Y-283985D01*
X474712Y-284207D01*
X474934Y-284456D01*
Y-284470D01*
X474962Y-284484D01*
X474990Y-284526D01*
X475031Y-284581D01*
X475129Y-284720D01*
X475239Y-284914D01*
X475378Y-285163D01*
X475503Y-285427D01*
X475628Y-285746D01*
X475739Y-286079D01*
Y-286093D01*
X475753Y-286120D01*
X475766Y-286176D01*
X475780Y-286245D01*
X475794Y-286328D01*
X475822Y-286425D01*
X475836Y-286536D01*
X475863Y-286675D01*
X475905Y-286966D01*
X475947Y-287299D01*
X475975Y-287660D01*
X475988Y-288034D01*
Y-288048D01*
Y-288104D01*
Y-288187D01*
Y-288298D01*
X475975Y-288436D01*
Y-288603D01*
X475961Y-288769D01*
X475947Y-288963D01*
X475891Y-289380D01*
X475836Y-289795D01*
X475739Y-290198D01*
X475683Y-290392D01*
X475614Y-290572D01*
Y-290586D01*
X475600Y-290614D01*
X475572Y-290655D01*
X475545Y-290725D01*
X475503Y-290794D01*
X475461Y-290891D01*
X475350Y-291085D01*
X475198Y-291321D01*
X475018Y-291584D01*
X474823Y-291834D01*
X474588Y-292070D01*
X474574D01*
X474560Y-292098D01*
X474477Y-292167D01*
X474338Y-292264D01*
X474172Y-292389D01*
X473950Y-292528D01*
X473714Y-292666D01*
X473450Y-292777D01*
X473173Y-292874D01*
X473159D01*
X473131Y-292888D01*
X473076Y-292902D01*
X473007Y-292916D01*
X472910Y-292930D01*
X472799Y-292957D01*
X472563Y-292999D01*
X472272Y-293055D01*
X471953Y-293096D01*
X471634Y-293124D01*
X471315Y-293138D01*
X466669D01*
Y-283000D01*
X471537D01*
X471661Y-283014D01*
D02*
G37*
G36*
X459901Y-293138D02*
X457086D01*
Y-283000D01*
X459901D01*
Y-293138D01*
D02*
G37*
G36*
X455186D02*
X452370D01*
Y-283000D01*
X455186D01*
Y-293138D01*
D02*
G37*
G36*
X450484D02*
X447669D01*
Y-285801D01*
X450484D01*
Y-293138D01*
D02*
G37*
G36*
X435493Y-283014D02*
X435631D01*
X435770Y-283028D01*
X435936Y-283042D01*
X436297Y-283097D01*
X436658Y-283153D01*
X437032Y-283250D01*
X437365Y-283374D01*
X437379D01*
X437407Y-283388D01*
X437448Y-283416D01*
X437504Y-283444D01*
X437656Y-283527D01*
X437864Y-283652D01*
X438072Y-283804D01*
X438308Y-283985D01*
X438544Y-284207D01*
X438766Y-284456D01*
Y-284470D01*
X438793Y-284484D01*
X438821Y-284526D01*
X438863Y-284581D01*
X438960Y-284720D01*
X439071Y-284914D01*
X439209Y-285163D01*
X439334Y-285427D01*
X439459Y-285746D01*
X439570Y-286079D01*
Y-286093D01*
X439584Y-286120D01*
X439598Y-286176D01*
X439612Y-286245D01*
X439625Y-286328D01*
X439653Y-286425D01*
X439667Y-286536D01*
X439695Y-286675D01*
X439736Y-286966D01*
X439778Y-287299D01*
X439806Y-287660D01*
X439820Y-288034D01*
Y-288048D01*
Y-288104D01*
Y-288187D01*
Y-288298D01*
X439806Y-288436D01*
Y-288603D01*
X439792Y-288769D01*
X439778Y-288963D01*
X439723Y-289380D01*
X439667Y-289795D01*
X439570Y-290198D01*
X439515Y-290392D01*
X439445Y-290572D01*
Y-290586D01*
X439431Y-290614D01*
X439403Y-290655D01*
X439376Y-290725D01*
X439334Y-290794D01*
X439293Y-290891D01*
X439182Y-291085D01*
X439029Y-291321D01*
X438849Y-291584D01*
X438655Y-291834D01*
X438419Y-292070D01*
X438405D01*
X438391Y-292098D01*
X438308Y-292167D01*
X438169Y-292264D01*
X438003Y-292389D01*
X437781Y-292528D01*
X437545Y-292666D01*
X437282Y-292777D01*
X437004Y-292874D01*
X436990D01*
X436963Y-292888D01*
X436907Y-292902D01*
X436838Y-292916D01*
X436741Y-292930D01*
X436630Y-292957D01*
X436394Y-292999D01*
X436103Y-293055D01*
X435784Y-293096D01*
X435465Y-293124D01*
X435146Y-293138D01*
X430500D01*
Y-283000D01*
X435368D01*
X435493Y-283014D01*
D02*
G37*
G36*
X523654Y-285649D02*
X523848Y-285677D01*
X524070Y-285704D01*
X524306Y-285760D01*
X524542Y-285829D01*
X524763Y-285926D01*
X524791Y-285940D01*
X524861Y-285982D01*
X524972Y-286051D01*
X525110Y-286162D01*
X525277Y-286287D01*
X525443Y-286453D01*
X525637Y-286661D01*
X525817Y-286897D01*
Y-285801D01*
X528452D01*
Y-292736D01*
Y-293055D01*
Y-293069D01*
Y-293082D01*
Y-293165D01*
X528439Y-293304D01*
X528411Y-293471D01*
X528383Y-293665D01*
X528328Y-293887D01*
X528258Y-294122D01*
X528161Y-294358D01*
X528147Y-294386D01*
X528106Y-294455D01*
X528036Y-294580D01*
X527953Y-294719D01*
X527842Y-294885D01*
X527704Y-295052D01*
X527551Y-295218D01*
X527371Y-295371D01*
X527343Y-295385D01*
X527288Y-295440D01*
X527177Y-295495D01*
X527038Y-295579D01*
X526858Y-295676D01*
X526650Y-295773D01*
X526400Y-295856D01*
X526137Y-295925D01*
X526123D01*
X526109Y-295939D01*
X526067D01*
X526012Y-295953D01*
X525928Y-295967D01*
X525845Y-295981D01*
X525637Y-296009D01*
X525388Y-296050D01*
X525096Y-296078D01*
X524763Y-296092D01*
X524417Y-296106D01*
X524209D01*
X524056Y-296092D01*
X523876D01*
X523668Y-296064D01*
X523446Y-296050D01*
X523210Y-296022D01*
X522697Y-295939D01*
X522198Y-295828D01*
X521962Y-295745D01*
X521740Y-295662D01*
X521532Y-295551D01*
X521366Y-295440D01*
X521352Y-295426D01*
X521324Y-295412D01*
X521296Y-295371D01*
X521241Y-295315D01*
X521172Y-295246D01*
X521102Y-295176D01*
X520964Y-294968D01*
X520811Y-294719D01*
X520672Y-294414D01*
X520617Y-294233D01*
X520589Y-294053D01*
X520561Y-293873D01*
X520547Y-293665D01*
Y-293637D01*
Y-293568D01*
Y-293457D01*
X520561Y-293304D01*
X523293Y-293609D01*
Y-293623D01*
X523307Y-293665D01*
X523335Y-293734D01*
X523377Y-293817D01*
X523474Y-293984D01*
X523529Y-294067D01*
X523612Y-294122D01*
X523626Y-294136D01*
X523668Y-294150D01*
X523737Y-294192D01*
X523820Y-294233D01*
X523931Y-294275D01*
X524070Y-294303D01*
X524223Y-294331D01*
X524389Y-294344D01*
X524486D01*
X524597Y-294331D01*
X524736Y-294303D01*
X524888Y-294261D01*
X525041Y-294206D01*
X525193Y-294122D01*
X525318Y-294011D01*
X525332Y-293998D01*
X525360Y-293942D01*
X525415Y-293873D01*
X525471Y-293748D01*
X525526Y-293596D01*
X525582Y-293415D01*
X525610Y-293179D01*
X525623Y-292902D01*
Y-291793D01*
X525610Y-291820D01*
X525554Y-291876D01*
X525471Y-291959D01*
X525360Y-292056D01*
X525235Y-292181D01*
X525096Y-292292D01*
X524944Y-292403D01*
X524791Y-292500D01*
X524777D01*
X524763Y-292514D01*
X524680Y-292555D01*
X524542Y-292611D01*
X524375Y-292666D01*
X524153Y-292736D01*
X523918Y-292791D01*
X523654Y-292833D01*
X523377Y-292847D01*
X523307D01*
X523238Y-292833D01*
X523127D01*
X523002Y-292805D01*
X522864Y-292777D01*
X522697Y-292736D01*
X522531Y-292680D01*
X522337Y-292625D01*
X522142Y-292542D01*
X521948Y-292430D01*
X521754Y-292306D01*
X521546Y-292167D01*
X521352Y-291987D01*
X521172Y-291793D01*
X520991Y-291571D01*
Y-291557D01*
X520964Y-291529D01*
X520936Y-291474D01*
X520894Y-291404D01*
X520839Y-291307D01*
X520783Y-291196D01*
X520728Y-291071D01*
X520672Y-290919D01*
X520617Y-290766D01*
X520561Y-290572D01*
X520506Y-290378D01*
X520450Y-290170D01*
X520409Y-289934D01*
X520381Y-289685D01*
X520367Y-289435D01*
X520353Y-289158D01*
Y-289144D01*
Y-289088D01*
Y-288991D01*
X520367Y-288880D01*
X520381Y-288728D01*
X520395Y-288561D01*
X520423Y-288381D01*
X520450Y-288187D01*
X520547Y-287757D01*
X520617Y-287549D01*
X520700Y-287327D01*
X520797Y-287119D01*
X520908Y-286911D01*
X521033Y-286717D01*
X521172Y-286536D01*
X521185Y-286523D01*
X521213Y-286495D01*
X521255Y-286453D01*
X521324Y-286398D01*
X521407Y-286328D01*
X521504Y-286245D01*
X521629Y-286176D01*
X521754Y-286079D01*
X521907Y-285996D01*
X522073Y-285926D01*
X522253Y-285843D01*
X522448Y-285774D01*
X522655Y-285718D01*
X522864Y-285677D01*
X523099Y-285649D01*
X523349Y-285635D01*
X523488D01*
X523654Y-285649D01*
D02*
G37*
%LPC*%
G36*
X488747Y-289657D02*
X488719Y-289671D01*
X488650Y-289685D01*
X488525Y-289726D01*
X488373Y-289782D01*
X488192Y-289837D01*
X487985Y-289907D01*
X487763Y-289962D01*
X487527Y-290031D01*
X487513D01*
X487485Y-290045D01*
X487444Y-290059D01*
X487388Y-290073D01*
X487236Y-290114D01*
X487069Y-290170D01*
X486875Y-290239D01*
X486695Y-290309D01*
X486542Y-290392D01*
X486487Y-290434D01*
X486431Y-290475D01*
X486417Y-290489D01*
X486390Y-290517D01*
X486362Y-290558D01*
X486320Y-290628D01*
X486237Y-290780D01*
X486209Y-290877D01*
X486195Y-290988D01*
Y-291002D01*
Y-291044D01*
X486209Y-291099D01*
X486223Y-291182D01*
X486251Y-291266D01*
X486293Y-291363D01*
X486348Y-291446D01*
X486417Y-291529D01*
X486431Y-291543D01*
X486459Y-291557D01*
X486515Y-291598D01*
X486598Y-291626D01*
X486695Y-291668D01*
X486806Y-291709D01*
X486944Y-291723D01*
X487111Y-291737D01*
X487194D01*
X487277Y-291723D01*
X487402Y-291709D01*
X487527Y-291682D01*
X487679Y-291640D01*
X487832Y-291584D01*
X487985Y-291515D01*
X487998Y-291501D01*
X488054Y-291474D01*
X488123Y-291432D01*
X488220Y-291363D01*
X488303Y-291279D01*
X488401Y-291196D01*
X488498Y-291085D01*
X488567Y-290974D01*
X488581Y-290961D01*
X488595Y-290919D01*
X488623Y-290836D01*
X488664Y-290739D01*
X488692Y-290614D01*
X488719Y-290475D01*
X488733Y-290309D01*
X488747Y-290114D01*
Y-289657D01*
D02*
G37*
G36*
X470802Y-285302D02*
X469803D01*
Y-290836D01*
X470718D01*
X470899Y-290822D01*
X471107Y-290808D01*
X471329Y-290780D01*
X471564Y-290752D01*
X471772Y-290697D01*
X471953Y-290628D01*
X471967Y-290614D01*
X472022Y-290586D01*
X472091Y-290530D01*
X472188Y-290447D01*
X472299Y-290350D01*
X472410Y-290212D01*
X472507Y-290059D01*
X472604Y-289865D01*
X472618Y-289837D01*
X472646Y-289754D01*
X472660Y-289698D01*
X472674Y-289629D01*
X472701Y-289546D01*
X472729Y-289435D01*
X472743Y-289324D01*
X472771Y-289199D01*
X472785Y-289047D01*
X472799Y-288894D01*
X472812Y-288714D01*
X472826Y-288533D01*
X472840Y-288326D01*
Y-288104D01*
Y-288090D01*
Y-288034D01*
Y-287951D01*
X472826Y-287840D01*
Y-287715D01*
X472812Y-287563D01*
X472799Y-287396D01*
X472771Y-287230D01*
X472715Y-286855D01*
X472618Y-286495D01*
X472563Y-286328D01*
X472494Y-286162D01*
X472410Y-286023D01*
X472313Y-285898D01*
Y-285885D01*
X472285Y-285871D01*
X472216Y-285801D01*
X472077Y-285704D01*
X471994Y-285649D01*
X471897Y-285593D01*
X471786Y-285538D01*
X471661Y-285496D01*
X471523Y-285441D01*
X471356Y-285399D01*
X471190Y-285358D01*
X470996Y-285330D01*
X470802Y-285302D01*
D02*
G37*
G36*
X434633D02*
X433634D01*
Y-290836D01*
X434550D01*
X434730Y-290822D01*
X434938Y-290808D01*
X435160Y-290780D01*
X435396Y-290752D01*
X435604Y-290697D01*
X435784Y-290628D01*
X435798Y-290614D01*
X435853Y-290586D01*
X435923Y-290530D01*
X436020Y-290447D01*
X436131Y-290350D01*
X436241Y-290212D01*
X436339Y-290059D01*
X436436Y-289865D01*
X436450Y-289837D01*
X436477Y-289754D01*
X436491Y-289698D01*
X436505Y-289629D01*
X436533Y-289546D01*
X436561Y-289435D01*
X436574Y-289324D01*
X436602Y-289199D01*
X436616Y-289047D01*
X436630Y-288894D01*
X436644Y-288714D01*
X436658Y-288533D01*
X436671Y-288326D01*
Y-288104D01*
Y-288090D01*
Y-288034D01*
Y-287951D01*
X436658Y-287840D01*
Y-287715D01*
X436644Y-287563D01*
X436630Y-287396D01*
X436602Y-287230D01*
X436547Y-286855D01*
X436450Y-286495D01*
X436394Y-286328D01*
X436325Y-286162D01*
X436241Y-286023D01*
X436144Y-285898D01*
Y-285885D01*
X436117Y-285871D01*
X436047Y-285801D01*
X435909Y-285704D01*
X435826Y-285649D01*
X435728Y-285593D01*
X435617Y-285538D01*
X435493Y-285496D01*
X435354Y-285441D01*
X435187Y-285399D01*
X435021Y-285358D01*
X434827Y-285330D01*
X434633Y-285302D01*
D02*
G37*
G36*
X524334Y-287674D02*
X524250D01*
X524139Y-287687D01*
X524029Y-287729D01*
X523890Y-287771D01*
X523737Y-287840D01*
X523599Y-287937D01*
X523474Y-288076D01*
X523460Y-288090D01*
X523418Y-288145D01*
X523377Y-288242D01*
X523321Y-288381D01*
X523252Y-288561D01*
X523210Y-288783D01*
X523169Y-289047D01*
X523155Y-289366D01*
Y-289380D01*
Y-289393D01*
Y-289435D01*
Y-289490D01*
X523169Y-289629D01*
X523196Y-289809D01*
X523238Y-290004D01*
X523293Y-290198D01*
X523377Y-290378D01*
X523488Y-290544D01*
X523502Y-290558D01*
X523557Y-290600D01*
X523626Y-290669D01*
X523737Y-290725D01*
X523862Y-290794D01*
X524015Y-290863D01*
X524195Y-290905D01*
X524389Y-290919D01*
X524472D01*
X524569Y-290891D01*
X524694Y-290863D01*
X524833Y-290822D01*
X524985Y-290752D01*
X525138Y-290655D01*
X525277Y-290530D01*
X525290Y-290517D01*
X525332Y-290461D01*
X525388Y-290364D01*
X525457Y-290225D01*
X525526Y-290059D01*
X525582Y-289851D01*
X525623Y-289601D01*
X525637Y-289324D01*
Y-289310D01*
Y-289282D01*
Y-289255D01*
Y-289199D01*
X525623Y-289047D01*
X525596Y-288880D01*
X525540Y-288672D01*
X525485Y-288478D01*
X525388Y-288284D01*
X525263Y-288104D01*
X525249Y-288090D01*
X525193Y-288034D01*
X525110Y-287965D01*
X525013Y-287882D01*
X524874Y-287812D01*
X524708Y-287743D01*
X524528Y-287687D01*
X524334Y-287674D01*
D02*
G37*
%LPD*%
D15*
X656183Y-212693D02*
G03*
X656183Y-212693I-8467J0D01*
G01*
X639250Y-26427D02*
X643483D01*
X639250D02*
Y-17960D01*
X643483D01*
Y-13727D01*
X651950D01*
Y-17960D02*
Y-13727D01*
Y-17960D02*
X656183D01*
Y-26427D02*
Y-17960D01*
X651950Y-26427D02*
X656183D01*
X651950Y-30660D02*
Y-26427D01*
X643483Y-30660D02*
X651950D01*
X643483D02*
Y-26427D01*
X639250Y-68760D02*
X647717Y-64527D01*
X656183Y-68760D01*
X651950Y-60293D02*
X656183Y-68760D01*
X651950Y-60293D02*
X656183Y-51827D01*
X647717Y-56060D02*
X656183Y-51827D01*
X639250D02*
X647717Y-56060D01*
X639250Y-51827D02*
X643483Y-60293D01*
X639250Y-68760D02*
X643483Y-60293D01*
Y-102627D02*
X647717Y-106860D01*
X639250Y-102627D02*
X643483D01*
X639250D02*
X643483Y-98393D01*
X639250Y-94160D02*
X643483Y-98393D01*
X639250Y-94160D02*
X643483D01*
X647717Y-89927D01*
X651950Y-94160D01*
X656183D01*
X651950Y-98393D02*
X656183Y-94160D01*
X651950Y-98393D02*
X656183Y-102627D01*
X651950D02*
X656183D01*
X647717Y-106860D02*
X651950Y-102627D01*
X639250Y-144960D02*
X656183D01*
Y-128027D01*
X639250D02*
X656183D01*
X639250Y-144960D02*
Y-128027D01*
X647717Y-183060D02*
X656183Y-166127D01*
X639250D02*
X656183D01*
X639250D02*
X647717Y-183060D01*
X639250Y-259260D02*
Y-255027D01*
X643483Y-250793D01*
X639250Y-246560D02*
X643483Y-250793D01*
X639250Y-246560D02*
Y-242327D01*
X643483D01*
X647717Y-246560D01*
X651950Y-242327D01*
X656183D01*
Y-246560D02*
Y-242327D01*
X651950Y-250793D02*
X656183Y-246560D01*
X651950Y-250793D02*
X656183Y-255027D01*
Y-259260D02*
Y-255027D01*
X651950Y-259260D02*
X656183D01*
X647717Y-255027D02*
X651950Y-259260D01*
X643483D02*
X647717Y-255027D01*
X639250Y-259260D02*
X643483D01*
X1516893Y-30660D02*
Y-15425D01*
X1524511D01*
X1527050Y-17964D01*
Y-23042D01*
X1524511Y-25582D01*
X1516893D01*
X1534668Y-20503D02*
X1539746D01*
X1542285Y-23042D01*
Y-30660D01*
X1534668D01*
X1532129Y-28121D01*
X1534668Y-25582D01*
X1542285D01*
X1557520Y-15425D02*
Y-30660D01*
X1549903D01*
X1547364Y-28121D01*
Y-23042D01*
X1549903Y-20503D01*
X1557520D01*
X1516893Y-68760D02*
Y-53525D01*
X1524511D01*
X1527050Y-56064D01*
Y-61142D01*
X1524511Y-63682D01*
X1516893D01*
X1534668Y-58603D02*
X1539746D01*
X1542285Y-61142D01*
Y-68760D01*
X1534668D01*
X1532129Y-66221D01*
X1534668Y-63682D01*
X1542285D01*
X1557520Y-53525D02*
Y-68760D01*
X1549903D01*
X1547364Y-66221D01*
Y-61142D01*
X1549903Y-58603D01*
X1557520D01*
X1516893Y-106860D02*
Y-91625D01*
X1524511D01*
X1527050Y-94164D01*
Y-99242D01*
X1524511Y-101782D01*
X1516893D01*
X1534668Y-96703D02*
X1539746D01*
X1542285Y-99242D01*
Y-106860D01*
X1534668D01*
X1532129Y-104321D01*
X1534668Y-101782D01*
X1542285D01*
X1557520Y-91625D02*
Y-106860D01*
X1549903D01*
X1547364Y-104321D01*
Y-99242D01*
X1549903Y-96703D01*
X1557520D01*
X1516893Y-144960D02*
Y-129725D01*
X1524511D01*
X1527050Y-132264D01*
Y-137342D01*
X1524511Y-139882D01*
X1516893D01*
X1534668Y-134803D02*
X1539746D01*
X1542285Y-137342D01*
Y-144960D01*
X1534668D01*
X1532129Y-142421D01*
X1534668Y-139882D01*
X1542285D01*
X1557520Y-129725D02*
Y-144960D01*
X1549903D01*
X1547364Y-142421D01*
Y-137342D01*
X1549903Y-134803D01*
X1557520D01*
X1516893Y-183060D02*
Y-167825D01*
X1524511D01*
X1527050Y-170364D01*
Y-175442D01*
X1524511Y-177982D01*
X1516893D01*
X1534668Y-172903D02*
X1539746D01*
X1542285Y-175442D01*
Y-183060D01*
X1534668D01*
X1532129Y-180521D01*
X1534668Y-177982D01*
X1542285D01*
X1557520Y-167825D02*
Y-183060D01*
X1549903D01*
X1547364Y-180521D01*
Y-175442D01*
X1549903Y-172903D01*
X1557520D01*
X1516893Y-221160D02*
Y-205925D01*
X1524511D01*
X1527050Y-208464D01*
Y-213542D01*
X1524511Y-216082D01*
X1516893D01*
X1534668Y-211003D02*
X1539746D01*
X1542285Y-213542D01*
Y-221160D01*
X1534668D01*
X1532129Y-218621D01*
X1534668Y-216082D01*
X1542285D01*
X1557520Y-205925D02*
Y-221160D01*
X1549903D01*
X1547364Y-218621D01*
Y-213542D01*
X1549903Y-211003D01*
X1557520D01*
X1516893Y-244025D02*
Y-254182D01*
X1521972Y-259260D01*
X1527050Y-254182D01*
Y-244025D01*
X1532129Y-259260D02*
X1537207D01*
X1534668D01*
Y-249103D01*
X1532129D01*
X1547364D02*
X1552442D01*
X1554981Y-251642D01*
Y-259260D01*
X1547364D01*
X1544825Y-256721D01*
X1547364Y-254182D01*
X1554981D01*
X1340665Y-17964D02*
X1338125Y-15425D01*
X1333047D01*
X1330508Y-17964D01*
Y-20503D01*
X1333047Y-23042D01*
X1338125D01*
X1340665Y-25582D01*
Y-28121D01*
X1338125Y-30660D01*
X1333047D01*
X1330508Y-28121D01*
X1345743Y-30660D02*
X1350821D01*
X1348282D01*
Y-15425D01*
X1345743D01*
X1360978Y-30660D02*
X1366056D01*
X1368595Y-28121D01*
Y-23042D01*
X1366056Y-20503D01*
X1360978D01*
X1358439Y-23042D01*
Y-28121D01*
X1360978Y-30660D01*
X1376213Y-17964D02*
Y-20503D01*
X1373674D01*
X1378752D01*
X1376213D01*
Y-28121D01*
X1378752Y-30660D01*
X1340665Y-56064D02*
X1338125Y-53525D01*
X1333047D01*
X1330508Y-56064D01*
Y-58603D01*
X1333047Y-61142D01*
X1338125D01*
X1340665Y-63682D01*
Y-66221D01*
X1338125Y-68760D01*
X1333047D01*
X1330508Y-66221D01*
X1345743Y-68760D02*
X1350821D01*
X1348282D01*
Y-53525D01*
X1345743D01*
X1360978Y-68760D02*
X1366056D01*
X1368595Y-66221D01*
Y-61142D01*
X1366056Y-58603D01*
X1360978D01*
X1358439Y-61142D01*
Y-66221D01*
X1360978Y-68760D01*
X1376213Y-56064D02*
Y-58603D01*
X1373674D01*
X1378752D01*
X1376213D01*
Y-66221D01*
X1378752Y-68760D01*
X1330508Y-106860D02*
Y-91625D01*
X1338125D01*
X1340665Y-94164D01*
Y-99242D01*
X1338125Y-101782D01*
X1330508D01*
X1335586D02*
X1340665Y-106860D01*
X1348282D02*
X1353360D01*
X1355900Y-104321D01*
Y-99242D01*
X1353360Y-96703D01*
X1348282D01*
X1345743Y-99242D01*
Y-104321D01*
X1348282Y-106860D01*
X1360978Y-96703D02*
Y-104321D01*
X1363517Y-106860D01*
X1371135D01*
Y-96703D01*
X1376213Y-106860D02*
Y-96703D01*
X1383831D01*
X1386370Y-99242D01*
Y-106860D01*
X1401605Y-91625D02*
Y-106860D01*
X1393987D01*
X1391448Y-104321D01*
Y-99242D01*
X1393987Y-96703D01*
X1401605D01*
X1330508Y-144960D02*
Y-129725D01*
X1338125D01*
X1340665Y-132264D01*
Y-137342D01*
X1338125Y-139882D01*
X1330508D01*
X1335586D02*
X1340665Y-144960D01*
X1348282D02*
X1353360D01*
X1355900Y-142421D01*
Y-137342D01*
X1353360Y-134803D01*
X1348282D01*
X1345743Y-137342D01*
Y-142421D01*
X1348282Y-144960D01*
X1360978Y-134803D02*
Y-142421D01*
X1363517Y-144960D01*
X1371135D01*
Y-134803D01*
X1376213Y-144960D02*
Y-134803D01*
X1383831D01*
X1386370Y-137342D01*
Y-144960D01*
X1401605Y-129725D02*
Y-144960D01*
X1393987D01*
X1391448Y-142421D01*
Y-137342D01*
X1393987Y-134803D01*
X1401605D01*
X1330508Y-183060D02*
Y-167825D01*
X1338125D01*
X1340665Y-170364D01*
Y-175442D01*
X1338125Y-177982D01*
X1330508D01*
X1335586D02*
X1340665Y-183060D01*
X1348282D02*
X1353360D01*
X1355900Y-180521D01*
Y-175442D01*
X1353360Y-172903D01*
X1348282D01*
X1345743Y-175442D01*
Y-180521D01*
X1348282Y-183060D01*
X1360978Y-172903D02*
Y-180521D01*
X1363517Y-183060D01*
X1371135D01*
Y-172903D01*
X1376213Y-183060D02*
Y-172903D01*
X1383831D01*
X1386370Y-175442D01*
Y-183060D01*
X1401605Y-167825D02*
Y-183060D01*
X1393987D01*
X1391448Y-180521D01*
Y-175442D01*
X1393987Y-172903D01*
X1401605D01*
X1330508Y-221160D02*
Y-205925D01*
X1338125D01*
X1340665Y-208464D01*
Y-213542D01*
X1338125Y-216082D01*
X1330508D01*
X1335586D02*
X1340665Y-221160D01*
X1348282D02*
X1353360D01*
X1355900Y-218621D01*
Y-213542D01*
X1353360Y-211003D01*
X1348282D01*
X1345743Y-213542D01*
Y-218621D01*
X1348282Y-221160D01*
X1360978Y-211003D02*
Y-218621D01*
X1363517Y-221160D01*
X1371135D01*
Y-211003D01*
X1376213Y-221160D02*
Y-211003D01*
X1383831D01*
X1386370Y-213542D01*
Y-221160D01*
X1401605Y-205925D02*
Y-221160D01*
X1393987D01*
X1391448Y-218621D01*
Y-213542D01*
X1393987Y-211003D01*
X1401605D01*
X1330508Y-259260D02*
Y-244025D01*
X1338125D01*
X1340665Y-246564D01*
Y-251642D01*
X1338125Y-254182D01*
X1330508D01*
X1335586D02*
X1340665Y-259260D01*
X1348282D02*
X1353360D01*
X1355900Y-256721D01*
Y-251642D01*
X1353360Y-249103D01*
X1348282D01*
X1345743Y-251642D01*
Y-256721D01*
X1348282Y-259260D01*
X1360978Y-249103D02*
Y-256721D01*
X1363517Y-259260D01*
X1371135D01*
Y-249103D01*
X1376213Y-259260D02*
Y-249103D01*
X1383831D01*
X1386370Y-251642D01*
Y-259260D01*
X1401605Y-244025D02*
Y-259260D01*
X1393987D01*
X1391448Y-256721D01*
Y-251642D01*
X1393987Y-249103D01*
X1401605D01*
X1202015Y-30660D02*
Y-15425D01*
X1209633D01*
X1212172Y-17964D01*
Y-23042D01*
X1209633Y-25582D01*
X1202015D01*
X1217250Y-15425D02*
X1227407D01*
X1222329D01*
Y-30660D01*
X1232486Y-15425D02*
Y-30660D01*
Y-23042D01*
X1242642D01*
Y-15425D01*
Y-30660D01*
X1202015Y-68760D02*
Y-53525D01*
X1209633D01*
X1212172Y-56064D01*
Y-61142D01*
X1209633Y-63682D01*
X1202015D01*
X1217250Y-53525D02*
X1227407D01*
X1222329D01*
Y-68760D01*
X1232486Y-53525D02*
Y-68760D01*
Y-61142D01*
X1242642D01*
Y-53525D01*
Y-68760D01*
X1202015Y-106860D02*
Y-91625D01*
X1212172Y-106860D01*
Y-91625D01*
X1217250Y-106860D02*
Y-91625D01*
X1224868D01*
X1227407Y-94164D01*
Y-99242D01*
X1224868Y-101782D01*
X1217250D01*
X1232486Y-91625D02*
X1242642D01*
X1237564D01*
Y-106860D01*
X1247721Y-91625D02*
Y-106860D01*
Y-99242D01*
X1257877D01*
Y-91625D01*
Y-106860D01*
X1202015Y-144960D02*
Y-129725D01*
X1212172Y-144960D01*
Y-129725D01*
X1217250Y-144960D02*
Y-129725D01*
X1224868D01*
X1227407Y-132264D01*
Y-137342D01*
X1224868Y-139882D01*
X1217250D01*
X1232486Y-129725D02*
X1242642D01*
X1237564D01*
Y-144960D01*
X1247721Y-129725D02*
Y-144960D01*
Y-137342D01*
X1257877D01*
Y-129725D01*
Y-144960D01*
X1202015Y-183060D02*
Y-167825D01*
X1209633D01*
X1212172Y-170364D01*
Y-175442D01*
X1209633Y-177982D01*
X1202015D01*
X1217250Y-167825D02*
X1227407D01*
X1222329D01*
Y-183060D01*
X1232486Y-167825D02*
Y-183060D01*
Y-175442D01*
X1242642D01*
Y-167825D01*
Y-183060D01*
X1202015Y-221160D02*
Y-205925D01*
X1209633D01*
X1212172Y-208464D01*
Y-213542D01*
X1209633Y-216082D01*
X1202015D01*
X1217250Y-205925D02*
X1227407D01*
X1222329D01*
Y-221160D01*
X1232486Y-205925D02*
Y-221160D01*
Y-213542D01*
X1242642D01*
Y-205925D01*
Y-221160D01*
X1202015Y-259260D02*
Y-244025D01*
X1209633D01*
X1212172Y-246564D01*
Y-251642D01*
X1209633Y-254182D01*
X1202015D01*
X1217250Y-244025D02*
X1227407D01*
X1222329D01*
Y-259260D01*
X1232486Y-244025D02*
Y-259260D01*
Y-251642D01*
X1242642D01*
Y-244025D01*
Y-259260D01*
X912540Y-17964D02*
X915079Y-15425D01*
X920157D01*
X922697Y-17964D01*
Y-28121D01*
X920157Y-30660D01*
X915079D01*
X912540Y-28121D01*
Y-17964D01*
X927775Y-30660D02*
Y-28121D01*
X930314D01*
Y-30660D01*
X927775D01*
X950628Y-15425D02*
X945549Y-17964D01*
X940471Y-23042D01*
Y-28121D01*
X943010Y-30660D01*
X948089D01*
X950628Y-28121D01*
Y-25582D01*
X948089Y-23042D01*
X940471D01*
X955706Y-17964D02*
X958245Y-15425D01*
X963324D01*
X965863Y-17964D01*
Y-28121D01*
X963324Y-30660D01*
X958245D01*
X955706Y-28121D01*
Y-17964D01*
X970941D02*
X973480Y-15425D01*
X978559D01*
X981098Y-17964D01*
Y-28121D01*
X978559Y-30660D01*
X973480D01*
X970941Y-28121D01*
Y-17964D01*
X986176Y-30660D02*
Y-20503D01*
X988715D01*
X991255Y-23042D01*
Y-30660D01*
Y-23042D01*
X993794Y-20503D01*
X996333Y-23042D01*
Y-30660D01*
X1001411D02*
Y-20503D01*
X1003950D01*
X1006490Y-23042D01*
Y-30660D01*
Y-23042D01*
X1009029Y-20503D01*
X1011568Y-23042D01*
Y-30660D01*
X1036960D02*
X1031881Y-25582D01*
Y-20503D01*
X1036960Y-15425D01*
X1054734Y-30660D02*
X1044577D01*
X1054734Y-20503D01*
Y-17964D01*
X1052195Y-15425D01*
X1047116D01*
X1044577Y-17964D01*
X1059812D02*
X1062352Y-15425D01*
X1067430D01*
X1069969Y-17964D01*
Y-20503D01*
X1067430Y-23042D01*
X1064891D01*
X1067430D01*
X1069969Y-25582D01*
Y-28121D01*
X1067430Y-30660D01*
X1062352D01*
X1059812Y-28121D01*
X1075047Y-30660D02*
Y-28121D01*
X1077587D01*
Y-30660D01*
X1075047D01*
X1097900Y-15425D02*
X1092822Y-17964D01*
X1087743Y-23042D01*
Y-28121D01*
X1090283Y-30660D01*
X1095361D01*
X1097900Y-28121D01*
Y-25582D01*
X1095361Y-23042D01*
X1087743D01*
X1113135Y-30660D02*
X1102978D01*
X1113135Y-20503D01*
Y-17964D01*
X1110596Y-15425D01*
X1105518D01*
X1102978Y-17964D01*
X1118214Y-30660D02*
Y-20503D01*
X1120753D01*
X1123292Y-23042D01*
Y-30660D01*
Y-23042D01*
X1125831Y-20503D01*
X1128370Y-23042D01*
Y-30660D01*
X1133448D02*
X1138527D01*
X1135988D01*
Y-20503D01*
X1133448D01*
X1146144Y-30660D02*
X1151223D01*
X1148684D01*
Y-15425D01*
X1146144D01*
X1158840Y-30660D02*
X1163919Y-25582D01*
Y-20503D01*
X1158840Y-15425D01*
X912540Y-56064D02*
X915079Y-53525D01*
X920157D01*
X922697Y-56064D01*
Y-66221D01*
X920157Y-68760D01*
X915079D01*
X912540Y-66221D01*
Y-56064D01*
X927775Y-68760D02*
Y-66221D01*
X930314D01*
Y-68760D01*
X927775D01*
X950628Y-53525D02*
X945549Y-56064D01*
X940471Y-61142D01*
Y-66221D01*
X943010Y-68760D01*
X948089D01*
X950628Y-66221D01*
Y-63682D01*
X948089Y-61142D01*
X940471D01*
X955706Y-56064D02*
X958245Y-53525D01*
X963324D01*
X965863Y-56064D01*
Y-66221D01*
X963324Y-68760D01*
X958245D01*
X955706Y-66221D01*
Y-56064D01*
X970941D02*
X973480Y-53525D01*
X978559D01*
X981098Y-56064D01*
Y-66221D01*
X978559Y-68760D01*
X973480D01*
X970941Y-66221D01*
Y-56064D01*
X986176Y-68760D02*
Y-58603D01*
X988715D01*
X991255Y-61142D01*
Y-68760D01*
Y-61142D01*
X993794Y-58603D01*
X996333Y-61142D01*
Y-68760D01*
X1001411D02*
Y-58603D01*
X1003950D01*
X1006490Y-61142D01*
Y-68760D01*
Y-61142D01*
X1009029Y-58603D01*
X1011568Y-61142D01*
Y-68760D01*
X1036960D02*
X1031881Y-63682D01*
Y-58603D01*
X1036960Y-53525D01*
X1054734Y-68760D02*
X1044577D01*
X1054734Y-58603D01*
Y-56064D01*
X1052195Y-53525D01*
X1047116D01*
X1044577Y-56064D01*
X1059812D02*
X1062352Y-53525D01*
X1067430D01*
X1069969Y-56064D01*
Y-58603D01*
X1067430Y-61142D01*
X1064891D01*
X1067430D01*
X1069969Y-63682D01*
Y-66221D01*
X1067430Y-68760D01*
X1062352D01*
X1059812Y-66221D01*
X1075047Y-68760D02*
Y-66221D01*
X1077587D01*
Y-68760D01*
X1075047D01*
X1097900Y-53525D02*
X1092822Y-56064D01*
X1087743Y-61142D01*
Y-66221D01*
X1090283Y-68760D01*
X1095361D01*
X1097900Y-66221D01*
Y-63682D01*
X1095361Y-61142D01*
X1087743D01*
X1113135Y-68760D02*
X1102978D01*
X1113135Y-58603D01*
Y-56064D01*
X1110596Y-53525D01*
X1105518D01*
X1102978Y-56064D01*
X1118214Y-68760D02*
Y-58603D01*
X1120753D01*
X1123292Y-61142D01*
Y-68760D01*
Y-61142D01*
X1125831Y-58603D01*
X1128370Y-61142D01*
Y-68760D01*
X1133448D02*
X1138527D01*
X1135988D01*
Y-58603D01*
X1133448D01*
X1146144Y-68760D02*
X1151223D01*
X1148684D01*
Y-53525D01*
X1146144D01*
X1158840Y-68760D02*
X1163919Y-63682D01*
Y-58603D01*
X1158840Y-53525D01*
X912540Y-94164D02*
X915079Y-91625D01*
X920157D01*
X922697Y-94164D01*
Y-104321D01*
X920157Y-106860D01*
X915079D01*
X912540Y-104321D01*
Y-94164D01*
X927775Y-106860D02*
Y-104321D01*
X930314D01*
Y-106860D01*
X927775D01*
X950628Y-91625D02*
X945549Y-94164D01*
X940471Y-99242D01*
Y-104321D01*
X943010Y-106860D01*
X948089D01*
X950628Y-104321D01*
Y-101782D01*
X948089Y-99242D01*
X940471D01*
X965863Y-91625D02*
X955706D01*
Y-99242D01*
X960784Y-96703D01*
X963324D01*
X965863Y-99242D01*
Y-104321D01*
X963324Y-106860D01*
X958245D01*
X955706Y-104321D01*
X970941Y-94164D02*
X973480Y-91625D01*
X978559D01*
X981098Y-94164D01*
Y-104321D01*
X978559Y-106860D01*
X973480D01*
X970941Y-104321D01*
Y-94164D01*
X986176Y-106860D02*
Y-96703D01*
X988715D01*
X991255Y-99242D01*
Y-106860D01*
Y-99242D01*
X993794Y-96703D01*
X996333Y-99242D01*
Y-106860D01*
X1001411D02*
Y-96703D01*
X1003950D01*
X1006490Y-99242D01*
Y-106860D01*
Y-99242D01*
X1009029Y-96703D01*
X1011568Y-99242D01*
Y-106860D01*
X1036960D02*
X1031881Y-101782D01*
Y-96703D01*
X1036960Y-91625D01*
X1054734Y-106860D02*
X1044577D01*
X1054734Y-96703D01*
Y-94164D01*
X1052195Y-91625D01*
X1047116D01*
X1044577Y-94164D01*
X1069969Y-91625D02*
X1059812D01*
Y-99242D01*
X1064891Y-96703D01*
X1067430D01*
X1069969Y-99242D01*
Y-104321D01*
X1067430Y-106860D01*
X1062352D01*
X1059812Y-104321D01*
X1075047Y-106860D02*
Y-104321D01*
X1077587D01*
Y-106860D01*
X1075047D01*
X1097900Y-91625D02*
X1087743D01*
Y-99242D01*
X1092822Y-96703D01*
X1095361D01*
X1097900Y-99242D01*
Y-104321D01*
X1095361Y-106860D01*
X1090283D01*
X1087743Y-104321D01*
X1102978D02*
X1105518Y-106860D01*
X1110596D01*
X1113135Y-104321D01*
Y-94164D01*
X1110596Y-91625D01*
X1105518D01*
X1102978Y-94164D01*
Y-96703D01*
X1105518Y-99242D01*
X1113135D01*
X1118214Y-106860D02*
Y-96703D01*
X1120753D01*
X1123292Y-99242D01*
Y-106860D01*
Y-99242D01*
X1125831Y-96703D01*
X1128370Y-99242D01*
Y-106860D01*
X1133448D02*
X1138527D01*
X1135988D01*
Y-96703D01*
X1133448D01*
X1146144Y-106860D02*
X1151223D01*
X1148684D01*
Y-91625D01*
X1146144D01*
X1158840Y-106860D02*
X1163919Y-101782D01*
Y-96703D01*
X1158840Y-91625D01*
X912540Y-132264D02*
X915079Y-129725D01*
X920157D01*
X922697Y-132264D01*
Y-134803D01*
X920157Y-137342D01*
X917618D01*
X920157D01*
X922697Y-139882D01*
Y-142421D01*
X920157Y-144960D01*
X915079D01*
X912540Y-142421D01*
X927775Y-144960D02*
Y-142421D01*
X930314D01*
Y-144960D01*
X927775D01*
X940471D02*
X945549D01*
X943010D01*
Y-129725D01*
X940471Y-132264D01*
X953167D02*
X955706Y-129725D01*
X960784D01*
X963324Y-132264D01*
Y-142421D01*
X960784Y-144960D01*
X955706D01*
X953167Y-142421D01*
Y-132264D01*
X968402D02*
X970941Y-129725D01*
X976020D01*
X978559Y-132264D01*
Y-142421D01*
X976020Y-144960D01*
X970941D01*
X968402Y-142421D01*
Y-132264D01*
X983637Y-144960D02*
Y-134803D01*
X986176D01*
X988715Y-137342D01*
Y-144960D01*
Y-137342D01*
X991255Y-134803D01*
X993794Y-137342D01*
Y-144960D01*
X998872D02*
Y-134803D01*
X1001411D01*
X1003950Y-137342D01*
Y-144960D01*
Y-137342D01*
X1006490Y-134803D01*
X1009029Y-137342D01*
Y-144960D01*
X1034421D02*
X1029342Y-139882D01*
Y-134803D01*
X1034421Y-129725D01*
X1042038Y-144960D02*
X1047116D01*
X1044577D01*
Y-129725D01*
X1042038Y-132264D01*
X1064891Y-144960D02*
X1054734D01*
X1064891Y-134803D01*
Y-132264D01*
X1062352Y-129725D01*
X1057273D01*
X1054734Y-132264D01*
X1080126Y-144960D02*
X1069969D01*
X1080126Y-134803D01*
Y-132264D01*
X1077587Y-129725D01*
X1072508D01*
X1069969Y-132264D01*
X1085204Y-144960D02*
Y-142421D01*
X1087743D01*
Y-144960D01*
X1085204D01*
X1097900Y-132264D02*
X1100439Y-129725D01*
X1105518D01*
X1108057Y-132264D01*
Y-142421D01*
X1105518Y-144960D01*
X1100439D01*
X1097900Y-142421D01*
Y-132264D01*
X1123292Y-129725D02*
X1113135D01*
Y-137342D01*
X1118213Y-134803D01*
X1120753D01*
X1123292Y-137342D01*
Y-142421D01*
X1120753Y-144960D01*
X1115674D01*
X1113135Y-142421D01*
X1128370Y-144960D02*
Y-134803D01*
X1130909D01*
X1133448Y-137342D01*
Y-144960D01*
Y-137342D01*
X1135988Y-134803D01*
X1138527Y-137342D01*
Y-144960D01*
X1143605D02*
X1148684D01*
X1146144D01*
Y-134803D01*
X1143605D01*
X1156301Y-144960D02*
X1161379D01*
X1158840D01*
Y-129725D01*
X1156301D01*
X1168997Y-144960D02*
X1174075Y-139882D01*
Y-134803D01*
X1168997Y-129725D01*
X912540Y-170364D02*
X915079Y-167825D01*
X920157D01*
X922697Y-170364D01*
Y-180521D01*
X920157Y-183060D01*
X915079D01*
X912540Y-180521D01*
Y-170364D01*
X927775Y-183060D02*
Y-180521D01*
X930314D01*
Y-183060D01*
X927775D01*
X950628Y-167825D02*
X945549Y-170364D01*
X940471Y-175442D01*
Y-180521D01*
X943010Y-183060D01*
X948089D01*
X950628Y-180521D01*
Y-177982D01*
X948089Y-175442D01*
X940471D01*
X955706Y-170364D02*
X958245Y-167825D01*
X963324D01*
X965863Y-170364D01*
Y-180521D01*
X963324Y-183060D01*
X958245D01*
X955706Y-180521D01*
Y-170364D01*
X970941D02*
X973480Y-167825D01*
X978559D01*
X981098Y-170364D01*
Y-180521D01*
X978559Y-183060D01*
X973480D01*
X970941Y-180521D01*
Y-170364D01*
X986176Y-183060D02*
Y-172903D01*
X988715D01*
X991255Y-175442D01*
Y-183060D01*
Y-175442D01*
X993794Y-172903D01*
X996333Y-175442D01*
Y-183060D01*
X1001411D02*
Y-172903D01*
X1003950D01*
X1006490Y-175442D01*
Y-183060D01*
Y-175442D01*
X1009029Y-172903D01*
X1011568Y-175442D01*
Y-183060D01*
X1036960D02*
X1031881Y-177982D01*
Y-172903D01*
X1036960Y-167825D01*
X1054734Y-183060D02*
X1044577D01*
X1054734Y-172903D01*
Y-170364D01*
X1052195Y-167825D01*
X1047116D01*
X1044577Y-170364D01*
X1059812D02*
X1062352Y-167825D01*
X1067430D01*
X1069969Y-170364D01*
Y-172903D01*
X1067430Y-175442D01*
X1064891D01*
X1067430D01*
X1069969Y-177982D01*
Y-180521D01*
X1067430Y-183060D01*
X1062352D01*
X1059812Y-180521D01*
X1075047Y-183060D02*
Y-180521D01*
X1077587D01*
Y-183060D01*
X1075047D01*
X1097900Y-167825D02*
X1092822Y-170364D01*
X1087743Y-175442D01*
Y-180521D01*
X1090283Y-183060D01*
X1095361D01*
X1097900Y-180521D01*
Y-177982D01*
X1095361Y-175442D01*
X1087743D01*
X1113135Y-183060D02*
X1102978D01*
X1113135Y-172903D01*
Y-170364D01*
X1110596Y-167825D01*
X1105518D01*
X1102978Y-170364D01*
X1118214Y-183060D02*
Y-172903D01*
X1120753D01*
X1123292Y-175442D01*
Y-183060D01*
Y-175442D01*
X1125831Y-172903D01*
X1128370Y-175442D01*
Y-183060D01*
X1133448D02*
X1138527D01*
X1135988D01*
Y-172903D01*
X1133448D01*
X1146144Y-183060D02*
X1151223D01*
X1148684D01*
Y-167825D01*
X1146144D01*
X1158840Y-183060D02*
X1163919Y-177982D01*
Y-172903D01*
X1158840Y-167825D01*
X912540Y-208464D02*
X915079Y-205925D01*
X920157D01*
X922697Y-208464D01*
Y-218621D01*
X920157Y-221160D01*
X915079D01*
X912540Y-218621D01*
Y-208464D01*
X927775Y-221160D02*
Y-218621D01*
X930314D01*
Y-221160D01*
X927775D01*
X940471Y-218621D02*
X943010Y-221160D01*
X948089D01*
X950628Y-218621D01*
Y-208464D01*
X948089Y-205925D01*
X943010D01*
X940471Y-208464D01*
Y-211003D01*
X943010Y-213542D01*
X950628D01*
X955706Y-208464D02*
X958245Y-205925D01*
X963324D01*
X965863Y-208464D01*
Y-218621D01*
X963324Y-221160D01*
X958245D01*
X955706Y-218621D01*
Y-208464D01*
X970941D02*
X973480Y-205925D01*
X978559D01*
X981098Y-208464D01*
Y-218621D01*
X978559Y-221160D01*
X973480D01*
X970941Y-218621D01*
Y-208464D01*
X986176Y-221160D02*
Y-211003D01*
X988715D01*
X991255Y-213542D01*
Y-221160D01*
Y-213542D01*
X993794Y-211003D01*
X996333Y-213542D01*
Y-221160D01*
X1001411D02*
Y-211003D01*
X1003950D01*
X1006490Y-213542D01*
Y-221160D01*
Y-213542D01*
X1009029Y-211003D01*
X1011568Y-213542D01*
Y-221160D01*
X1036960D02*
X1031881Y-216082D01*
Y-211003D01*
X1036960Y-205925D01*
X1044577Y-208464D02*
X1047116Y-205925D01*
X1052195D01*
X1054734Y-208464D01*
Y-211003D01*
X1052195Y-213542D01*
X1049656D01*
X1052195D01*
X1054734Y-216082D01*
Y-218621D01*
X1052195Y-221160D01*
X1047116D01*
X1044577Y-218621D01*
X1069969Y-205925D02*
X1059812D01*
Y-213542D01*
X1064891Y-211003D01*
X1067430D01*
X1069969Y-213542D01*
Y-218621D01*
X1067430Y-221160D01*
X1062352D01*
X1059812Y-218621D01*
X1075047Y-221160D02*
Y-218621D01*
X1077587D01*
Y-221160D01*
X1075047D01*
X1095361D02*
Y-205925D01*
X1087743Y-213542D01*
X1097900D01*
X1102978Y-208464D02*
X1105518Y-205925D01*
X1110596D01*
X1113135Y-208464D01*
Y-211003D01*
X1110596Y-213542D01*
X1108057D01*
X1110596D01*
X1113135Y-216082D01*
Y-218621D01*
X1110596Y-221160D01*
X1105518D01*
X1102978Y-218621D01*
X1118214Y-221160D02*
Y-211003D01*
X1120753D01*
X1123292Y-213542D01*
Y-221160D01*
Y-213542D01*
X1125831Y-211003D01*
X1128370Y-213542D01*
Y-221160D01*
X1133448D02*
X1138527D01*
X1135988D01*
Y-211003D01*
X1133448D01*
X1146144Y-221160D02*
X1151223D01*
X1148684D01*
Y-205925D01*
X1146144D01*
X1158840Y-221160D02*
X1163919Y-216082D01*
Y-211003D01*
X1158840Y-205925D01*
X912540Y-246564D02*
X915079Y-244025D01*
X920157D01*
X922697Y-246564D01*
Y-256721D01*
X920157Y-259260D01*
X915079D01*
X912540Y-256721D01*
Y-246564D01*
X927775Y-259260D02*
Y-256721D01*
X930314D01*
Y-259260D01*
X927775D01*
X948089D02*
Y-244025D01*
X940471Y-251642D01*
X950628D01*
X955706Y-246564D02*
X958245Y-244025D01*
X963324D01*
X965863Y-246564D01*
Y-256721D01*
X963324Y-259260D01*
X958245D01*
X955706Y-256721D01*
Y-246564D01*
X970941D02*
X973480Y-244025D01*
X978559D01*
X981098Y-246564D01*
Y-256721D01*
X978559Y-259260D01*
X973480D01*
X970941Y-256721D01*
Y-246564D01*
X986176Y-259260D02*
Y-249103D01*
X988715D01*
X991255Y-251642D01*
Y-259260D01*
Y-251642D01*
X993794Y-249103D01*
X996333Y-251642D01*
Y-259260D01*
X1001411D02*
Y-249103D01*
X1003950D01*
X1006490Y-251642D01*
Y-259260D01*
Y-251642D01*
X1009029Y-249103D01*
X1011568Y-251642D01*
Y-259260D01*
X1036960D02*
X1031881Y-254182D01*
Y-249103D01*
X1036960Y-244025D01*
X1044577Y-259260D02*
X1049656D01*
X1047116D01*
Y-244025D01*
X1044577Y-246564D01*
X1067430Y-244025D02*
X1057273D01*
Y-251642D01*
X1062352Y-249103D01*
X1064891D01*
X1067430Y-251642D01*
Y-256721D01*
X1064891Y-259260D01*
X1059812D01*
X1057273Y-256721D01*
X1072508Y-259260D02*
Y-256721D01*
X1075047D01*
Y-259260D01*
X1072508D01*
X1085204Y-244025D02*
X1095361D01*
Y-246564D01*
X1085204Y-256721D01*
Y-259260D01*
X1110596Y-244025D02*
X1100439D01*
Y-251642D01*
X1105518Y-249103D01*
X1108057D01*
X1110596Y-251642D01*
Y-256721D01*
X1108057Y-259260D01*
X1102978D01*
X1100439Y-256721D01*
X1115674Y-259260D02*
Y-249103D01*
X1118214D01*
X1120753Y-251642D01*
Y-259260D01*
Y-251642D01*
X1123292Y-249103D01*
X1125831Y-251642D01*
Y-259260D01*
X1130909D02*
X1135988D01*
X1133448D01*
Y-249103D01*
X1130909D01*
X1143605Y-259260D02*
X1148684D01*
X1146144D01*
Y-244025D01*
X1143605D01*
X1156301Y-259260D02*
X1161379Y-254182D01*
Y-249103D01*
X1156301Y-244025D01*
X785572Y-282125D02*
X780494Y-284664D01*
X775415Y-289742D01*
Y-294821D01*
X777954Y-297360D01*
X783033D01*
X785572Y-294821D01*
Y-292282D01*
X783033Y-289742D01*
X775415D01*
X790650Y-284664D02*
X793190Y-282125D01*
X798268D01*
X800807Y-284664D01*
Y-294821D01*
X798268Y-297360D01*
X793190D01*
X790650Y-294821D01*
Y-284664D01*
X821121Y-282125D02*
X831277D01*
X826199D01*
Y-297360D01*
X838895D02*
X843973D01*
X846512Y-294821D01*
Y-289742D01*
X843973Y-287203D01*
X838895D01*
X836356Y-289742D01*
Y-294821D01*
X838895Y-297360D01*
X854130Y-284664D02*
Y-287203D01*
X851591D01*
X856669D01*
X854130D01*
Y-294821D01*
X856669Y-297360D01*
X866826Y-287203D02*
X871904D01*
X874443Y-289742D01*
Y-297360D01*
X866826D01*
X864287Y-294821D01*
X866826Y-292282D01*
X874443D01*
X879522Y-297360D02*
X884600D01*
X882061D01*
Y-282125D01*
X879522D01*
X785572Y-30660D02*
X775415D01*
X785572Y-20503D01*
Y-17964D01*
X783033Y-15425D01*
X777954D01*
X775415Y-17964D01*
X785572Y-68760D02*
X775415D01*
X785572Y-58603D01*
Y-56064D01*
X783033Y-53525D01*
X777954D01*
X775415Y-56064D01*
X785572Y-106860D02*
X775415D01*
X785572Y-96703D01*
Y-94164D01*
X783033Y-91625D01*
X777954D01*
X775415Y-94164D01*
X785572Y-144960D02*
X775415D01*
X785572Y-134803D01*
Y-132264D01*
X783033Y-129725D01*
X777954D01*
X775415Y-132264D01*
Y-170364D02*
X777954Y-167825D01*
X783033D01*
X785572Y-170364D01*
Y-172903D01*
X783033Y-175442D01*
X780494D01*
X783033D01*
X785572Y-177982D01*
Y-180521D01*
X783033Y-183060D01*
X777954D01*
X775415Y-180521D01*
X785572Y-205925D02*
X775415D01*
Y-213542D01*
X780494Y-211003D01*
X783033D01*
X785572Y-213542D01*
Y-218621D01*
X783033Y-221160D01*
X777954D01*
X775415Y-218621D01*
X783033Y-259260D02*
Y-244025D01*
X775415Y-251642D01*
X785572D01*
X798268Y-259260D02*
Y-244025D01*
X790650Y-251642D01*
X800807D01*
X1100432Y-354498D02*
X1110589D01*
X1100432Y-349420D02*
X1110589D01*
X1130902Y-359577D02*
Y-344342D01*
X1138520D01*
X1141059Y-346881D01*
Y-351959D01*
X1138520Y-354498D01*
X1130902D01*
X1135981D02*
X1141059Y-359577D01*
X1148677D02*
X1153755D01*
X1156294Y-357038D01*
Y-351959D01*
X1153755Y-349420D01*
X1148677D01*
X1146137Y-351959D01*
Y-357038D01*
X1148677Y-359577D01*
X1161373Y-349420D02*
Y-357038D01*
X1163912Y-359577D01*
X1171529D01*
Y-349420D01*
X1179147Y-346881D02*
Y-349420D01*
X1176608D01*
X1181686D01*
X1179147D01*
Y-357038D01*
X1181686Y-359577D01*
X1196921D02*
X1191843D01*
X1189303Y-357038D01*
Y-351959D01*
X1191843Y-349420D01*
X1196921D01*
X1199460Y-351959D01*
Y-354498D01*
X1189303D01*
X1214695Y-344342D02*
Y-359577D01*
X1207078D01*
X1204538Y-357038D01*
Y-351959D01*
X1207078Y-349420D01*
X1214695D01*
X1235009Y-359577D02*
Y-344342D01*
X1242626D01*
X1245165Y-346881D01*
Y-351959D01*
X1242626Y-354498D01*
X1235009D01*
X1252783Y-349420D02*
X1257861D01*
X1260400Y-351959D01*
Y-359577D01*
X1252783D01*
X1250244Y-357038D01*
X1252783Y-354498D01*
X1260400D01*
X1268018Y-346881D02*
Y-349420D01*
X1265479D01*
X1270557D01*
X1268018D01*
Y-357038D01*
X1270557Y-359577D01*
X1278175Y-344342D02*
Y-359577D01*
Y-351959D01*
X1280714Y-349420D01*
X1285792D01*
X1288331Y-351959D01*
Y-359577D01*
X1308645Y-344342D02*
Y-359577D01*
X1318802D01*
X1331497D02*
X1326419D01*
X1323880Y-357038D01*
Y-351959D01*
X1326419Y-349420D01*
X1331497D01*
X1334037Y-351959D01*
Y-354498D01*
X1323880D01*
X1339115Y-359577D02*
Y-349420D01*
X1346732D01*
X1349272Y-351959D01*
Y-359577D01*
X1359428Y-364655D02*
X1361968D01*
X1364507Y-362116D01*
Y-349420D01*
X1356889D01*
X1354350Y-351959D01*
Y-357038D01*
X1356889Y-359577D01*
X1364507D01*
X1372124Y-346881D02*
Y-349420D01*
X1369585D01*
X1374663D01*
X1372124D01*
Y-357038D01*
X1374663Y-359577D01*
X1382281Y-344342D02*
Y-359577D01*
Y-351959D01*
X1384820Y-349420D01*
X1389899D01*
X1392438Y-351959D01*
Y-359577D01*
X1412751Y-351959D02*
X1422908D01*
X1417829Y-346881D02*
Y-357038D01*
X1443221Y-344342D02*
X1453378D01*
X1448300D01*
Y-359577D01*
X1460995D02*
X1466074D01*
X1468613Y-357038D01*
Y-351959D01*
X1466074Y-349420D01*
X1460995D01*
X1458456Y-351959D01*
Y-357038D01*
X1460995Y-359577D01*
X1476231D02*
X1481309D01*
X1483848Y-357038D01*
Y-351959D01*
X1481309Y-349420D01*
X1476231D01*
X1473691Y-351959D01*
Y-357038D01*
X1476231Y-359577D01*
X1488927D02*
X1494005D01*
X1491466D01*
Y-344342D01*
X1488927D01*
X1527014Y-346881D02*
X1524475Y-344342D01*
X1519397D01*
X1516857Y-346881D01*
Y-349420D01*
X1519397Y-351959D01*
X1524475D01*
X1527014Y-354498D01*
Y-357038D01*
X1524475Y-359577D01*
X1519397D01*
X1516857Y-357038D01*
X1532092Y-359577D02*
X1537171D01*
X1534632D01*
Y-349420D01*
X1532092D01*
X1544788D02*
X1554945D01*
X1544788Y-359577D01*
X1554945D01*
X1567641D02*
X1562563D01*
X1560023Y-357038D01*
Y-351959D01*
X1562563Y-349420D01*
X1567641D01*
X1570180Y-351959D01*
Y-354498D01*
X1560023D01*
X1590494D02*
X1600650D01*
X1590494Y-349420D02*
X1600650D01*
X1631120Y-346881D02*
X1628581Y-344342D01*
X1623503D01*
X1620964Y-346881D01*
Y-349420D01*
X1623503Y-351959D01*
X1628581D01*
X1631120Y-354498D01*
Y-357038D01*
X1628581Y-359577D01*
X1623503D01*
X1620964Y-357038D01*
X1636199Y-359577D02*
X1641277D01*
X1638738D01*
Y-344342D01*
X1636199D01*
X1651434Y-359577D02*
X1656512D01*
X1659051Y-357038D01*
Y-351959D01*
X1656512Y-349420D01*
X1651434D01*
X1648895Y-351959D01*
Y-357038D01*
X1651434Y-359577D01*
X1666669Y-346881D02*
Y-349420D01*
X1664130D01*
X1669208D01*
X1666669D01*
Y-357038D01*
X1669208Y-359577D01*
X1692061D02*
X1697139D01*
X1694600D01*
Y-344342D01*
X1692061D01*
X1712374Y-359577D02*
X1707296D01*
X1704757Y-357038D01*
Y-351959D01*
X1707296Y-349420D01*
X1712374D01*
X1714913Y-351959D01*
Y-354498D01*
X1704757D01*
X1719992Y-359577D02*
Y-349420D01*
X1727609D01*
X1730148Y-351959D01*
Y-359577D01*
X1740305Y-364655D02*
X1742844D01*
X1745383Y-362116D01*
Y-349420D01*
X1737766D01*
X1735227Y-351959D01*
Y-357038D01*
X1737766Y-359577D01*
X1745383D01*
X1753001Y-346881D02*
Y-349420D01*
X1750462D01*
X1755540D01*
X1753001D01*
Y-357038D01*
X1755540Y-359577D01*
X1763158Y-344342D02*
Y-359577D01*
Y-351959D01*
X1765697Y-349420D01*
X1770775D01*
X1773315Y-351959D01*
Y-359577D01*
X1796167Y-349420D02*
X1801245D01*
X1803785Y-351959D01*
Y-359577D01*
X1796167D01*
X1793628Y-357038D01*
X1796167Y-354498D01*
X1803785D01*
X1808863Y-359577D02*
X1816481D01*
X1819020Y-357038D01*
X1816481Y-354498D01*
X1811402D01*
X1808863Y-351959D01*
X1811402Y-349420D01*
X1819020D01*
X1849490Y-344342D02*
Y-359577D01*
X1841872D01*
X1839333Y-357038D01*
Y-351959D01*
X1841872Y-349420D01*
X1849490D01*
X1862186Y-359577D02*
X1857107D01*
X1854568Y-357038D01*
Y-351959D01*
X1857107Y-349420D01*
X1862186D01*
X1864725Y-351959D01*
Y-354498D01*
X1854568D01*
X1872342Y-359577D02*
Y-346881D01*
Y-351959D01*
X1869803D01*
X1874882D01*
X1872342D01*
Y-346881D01*
X1874882Y-344342D01*
X1882499Y-359577D02*
X1887578D01*
X1885038D01*
Y-349420D01*
X1882499D01*
X1895195Y-359577D02*
Y-349420D01*
X1902813D01*
X1905352Y-351959D01*
Y-359577D01*
X1918048D02*
X1912969D01*
X1910430Y-357038D01*
Y-351959D01*
X1912969Y-349420D01*
X1918048D01*
X1920587Y-351959D01*
Y-354498D01*
X1910430D01*
X1935822Y-344342D02*
Y-359577D01*
X1928204D01*
X1925665Y-357038D01*
Y-351959D01*
X1928204Y-349420D01*
X1935822D01*
X1956135Y-359577D02*
X1961214D01*
X1958674D01*
Y-349420D01*
X1956135D01*
X1968831Y-359577D02*
Y-349420D01*
X1976449D01*
X1978988Y-351959D01*
Y-359577D01*
X2001841Y-346881D02*
Y-349420D01*
X1999301D01*
X2004380D01*
X2001841D01*
Y-357038D01*
X2004380Y-359577D01*
X2011997Y-344342D02*
Y-359577D01*
Y-351959D01*
X2014536Y-349420D01*
X2019615D01*
X2022154Y-351959D01*
Y-359577D01*
X2034850D02*
X2029772D01*
X2027232Y-357038D01*
Y-351959D01*
X2029772Y-349420D01*
X2034850D01*
X2037389Y-351959D01*
Y-354498D01*
X2027232D01*
X2057702Y-359577D02*
Y-344342D01*
X2065320D01*
X2067859Y-346881D01*
Y-351959D01*
X2065320Y-354498D01*
X2057702D01*
X2083094Y-346881D02*
X2080555Y-344342D01*
X2075477D01*
X2072937Y-346881D01*
Y-357038D01*
X2075477Y-359577D01*
X2080555D01*
X2083094Y-357038D01*
X2088173Y-344342D02*
Y-359577D01*
X2095790D01*
X2098329Y-357038D01*
Y-354498D01*
X2095790Y-351959D01*
X2088173D01*
X2095790D01*
X2098329Y-349420D01*
Y-346881D01*
X2095790Y-344342D01*
X2088173D01*
X2118643Y-359577D02*
X2123721D01*
X2121182D01*
Y-344342D01*
X2118643D01*
X2133878Y-349420D02*
X2138956D01*
X2141495Y-351959D01*
Y-359577D01*
X2133878D01*
X2131339Y-357038D01*
X2133878Y-354498D01*
X2141495D01*
X2146574Y-349420D02*
Y-357038D01*
X2149113Y-359577D01*
X2156730D01*
Y-362116D01*
X2154191Y-364655D01*
X2151652D01*
X2156730Y-359577D02*
Y-349420D01*
X2164348Y-359577D02*
X2169426D01*
X2171965Y-357038D01*
Y-351959D01*
X2169426Y-349420D01*
X2164348D01*
X2161809Y-351959D01*
Y-357038D01*
X2164348Y-359577D01*
X2177044Y-349420D02*
Y-357038D01*
X2179583Y-359577D01*
X2187201D01*
Y-349420D01*
X2194818Y-346881D02*
Y-349420D01*
X2192279D01*
X2197357D01*
X2194818D01*
Y-357038D01*
X2197357Y-359577D01*
X1189303Y-329105D02*
X1199460D01*
X1189303Y-324027D02*
X1199460D01*
X1229930Y-321488D02*
X1227391Y-318948D01*
X1222313D01*
X1219774Y-321488D01*
Y-331644D01*
X1222313Y-334183D01*
X1227391D01*
X1229930Y-331644D01*
X1237548Y-324027D02*
X1242626D01*
X1245165Y-326566D01*
Y-334183D01*
X1237548D01*
X1235009Y-331644D01*
X1237548Y-329105D01*
X1245165D01*
X1250244Y-334183D02*
X1255322D01*
X1252783D01*
Y-318948D01*
X1250244D01*
X1273096Y-324027D02*
X1265479D01*
X1262940Y-326566D01*
Y-331644D01*
X1265479Y-334183D01*
X1273096D01*
X1278175Y-324027D02*
Y-331644D01*
X1280714Y-334183D01*
X1288331D01*
Y-324027D01*
X1293410Y-334183D02*
X1298488D01*
X1295949D01*
Y-318948D01*
X1293410D01*
X1308645Y-324027D02*
X1313723D01*
X1316262Y-326566D01*
Y-334183D01*
X1308645D01*
X1306106Y-331644D01*
X1308645Y-329105D01*
X1316262D01*
X1323880Y-321488D02*
Y-324027D01*
X1321341D01*
X1326419D01*
X1323880D01*
Y-331644D01*
X1326419Y-334183D01*
X1341654D02*
X1336576D01*
X1334037Y-331644D01*
Y-326566D01*
X1336576Y-324027D01*
X1341654D01*
X1344193Y-326566D01*
Y-329105D01*
X1334037D01*
X1359428Y-318948D02*
Y-334183D01*
X1351811D01*
X1349272Y-331644D01*
Y-326566D01*
X1351811Y-324027D01*
X1359428D01*
X1382281Y-334183D02*
Y-321488D01*
Y-326566D01*
X1379742D01*
X1384820D01*
X1382281D01*
Y-321488D01*
X1384820Y-318948D01*
X1392438Y-324027D02*
Y-334183D01*
Y-329105D01*
X1394977Y-326566D01*
X1397516Y-324027D01*
X1400055D01*
X1410212Y-334183D02*
X1415290D01*
X1417829Y-331644D01*
Y-326566D01*
X1415290Y-324027D01*
X1410212D01*
X1407673Y-326566D01*
Y-331644D01*
X1410212Y-334183D01*
X1422908D02*
Y-324027D01*
X1425447D01*
X1427986Y-326566D01*
Y-334183D01*
Y-326566D01*
X1430525Y-324027D01*
X1433065Y-326566D01*
Y-334183D01*
X1455917Y-321488D02*
Y-324027D01*
X1453378D01*
X1458456D01*
X1455917D01*
Y-331644D01*
X1458456Y-334183D01*
X1468613D02*
X1473691D01*
X1476231Y-331644D01*
Y-326566D01*
X1473691Y-324027D01*
X1468613D01*
X1466074Y-326566D01*
Y-331644D01*
X1468613Y-334183D01*
X1483848D02*
X1488927D01*
X1491466Y-331644D01*
Y-326566D01*
X1488927Y-324027D01*
X1483848D01*
X1481309Y-326566D01*
Y-331644D01*
X1483848Y-334183D01*
X1496544D02*
X1501622D01*
X1499083D01*
Y-318948D01*
X1496544D01*
X1524475Y-334183D02*
X1532092D01*
X1534632Y-331644D01*
X1532092Y-329105D01*
X1527014D01*
X1524475Y-326566D01*
X1527014Y-324027D01*
X1534632D01*
X1542249Y-321488D02*
Y-324027D01*
X1539710D01*
X1544788D01*
X1542249D01*
Y-331644D01*
X1544788Y-334183D01*
X1554945Y-324027D02*
X1560023D01*
X1562563Y-326566D01*
Y-334183D01*
X1554945D01*
X1552406Y-331644D01*
X1554945Y-329105D01*
X1562563D01*
X1567641Y-324027D02*
Y-334183D01*
Y-329105D01*
X1570180Y-326566D01*
X1572719Y-324027D01*
X1575258D01*
X1585415Y-321488D02*
Y-324027D01*
X1582876D01*
X1587954D01*
X1585415D01*
Y-331644D01*
X1587954Y-334183D01*
X1620964Y-324027D02*
X1613346D01*
X1610807Y-326566D01*
Y-331644D01*
X1613346Y-334183D01*
X1620964D01*
X1633660D02*
X1628581D01*
X1626042Y-331644D01*
Y-326566D01*
X1628581Y-324027D01*
X1633660D01*
X1636199Y-326566D01*
Y-329105D01*
X1626042D01*
X1641277Y-334183D02*
Y-324027D01*
X1648895D01*
X1651434Y-326566D01*
Y-334183D01*
X1659051Y-321488D02*
Y-324027D01*
X1656512D01*
X1661591D01*
X1659051D01*
Y-331644D01*
X1661591Y-334183D01*
X1669208Y-324027D02*
Y-334183D01*
Y-329105D01*
X1671747Y-326566D01*
X1674286Y-324027D01*
X1676826D01*
X1692061Y-334183D02*
X1686982D01*
X1684443Y-331644D01*
Y-326566D01*
X1686982Y-324027D01*
X1692061D01*
X1694600Y-326566D01*
Y-329105D01*
X1684443D01*
X1714913Y-339262D02*
Y-324027D01*
X1722531D01*
X1725070Y-326566D01*
Y-331644D01*
X1722531Y-334183D01*
X1714913D01*
X1732688D02*
X1737766D01*
X1740305Y-331644D01*
Y-326566D01*
X1737766Y-324027D01*
X1732688D01*
X1730148Y-326566D01*
Y-331644D01*
X1732688Y-334183D01*
X1745383D02*
X1753001D01*
X1755540Y-331644D01*
X1753001Y-329105D01*
X1747923D01*
X1745383Y-326566D01*
X1747923Y-324027D01*
X1755540D01*
X1760619Y-334183D02*
X1765697D01*
X1763158D01*
Y-324027D01*
X1760619D01*
X1775854Y-321488D02*
Y-324027D01*
X1773314D01*
X1778393D01*
X1775854D01*
Y-331644D01*
X1778393Y-334183D01*
X1786010D02*
X1791089D01*
X1788549D01*
Y-324027D01*
X1786010D01*
X1801245Y-334183D02*
X1806324D01*
X1808863Y-331644D01*
Y-326566D01*
X1806324Y-324027D01*
X1801245D01*
X1798706Y-326566D01*
Y-331644D01*
X1801245Y-334183D01*
X1813941D02*
Y-324027D01*
X1821559D01*
X1824098Y-326566D01*
Y-334183D01*
X1846951Y-321488D02*
Y-324027D01*
X1844411D01*
X1849490D01*
X1846951D01*
Y-331644D01*
X1849490Y-334183D01*
X1859646D02*
X1864725D01*
X1867264Y-331644D01*
Y-326566D01*
X1864725Y-324027D01*
X1859646D01*
X1857107Y-326566D01*
Y-331644D01*
X1859646Y-334183D01*
X1890117Y-321488D02*
Y-324027D01*
X1887578D01*
X1892656D01*
X1890117D01*
Y-331644D01*
X1892656Y-334183D01*
X1902812D02*
X1907891D01*
X1910430Y-331644D01*
Y-326566D01*
X1907891Y-324027D01*
X1902812D01*
X1900273Y-326566D01*
Y-331644D01*
X1902812Y-334183D01*
X1918048D02*
X1923126D01*
X1925665Y-331644D01*
Y-326566D01*
X1923126Y-324027D01*
X1918048D01*
X1915508Y-326566D01*
Y-331644D01*
X1918048Y-334183D01*
X1930744D02*
X1935822D01*
X1933283D01*
Y-318948D01*
X1930744D01*
X1966292Y-334183D02*
X1961214D01*
X1958674Y-331644D01*
Y-326566D01*
X1961214Y-324027D01*
X1966292D01*
X1968831Y-326566D01*
Y-329105D01*
X1958674D01*
X1973909Y-334183D02*
Y-324027D01*
X1981527D01*
X1984066Y-326566D01*
Y-334183D01*
X1999301Y-318948D02*
Y-334183D01*
X1991684D01*
X1989145Y-331644D01*
Y-326566D01*
X1991684Y-324027D01*
X1999301D01*
X2029772D02*
X2022154D01*
X2019615Y-326566D01*
Y-331644D01*
X2022154Y-334183D01*
X2029772D01*
X2042467D02*
X2037389D01*
X2034850Y-331644D01*
Y-326566D01*
X2037389Y-324027D01*
X2042467D01*
X2045007Y-326566D01*
Y-329105D01*
X2034850D01*
X2050085Y-334183D02*
Y-324027D01*
X2057702D01*
X2060242Y-326566D01*
Y-334183D01*
X2067859Y-321488D02*
Y-324027D01*
X2065320D01*
X2070398D01*
X2067859D01*
Y-331644D01*
X2070398Y-334183D01*
X2078016Y-324027D02*
Y-334183D01*
Y-329105D01*
X2080555Y-326566D01*
X2083094Y-324027D01*
X2085633D01*
X2100868Y-334183D02*
X2095790D01*
X2093251Y-331644D01*
Y-326566D01*
X2095790Y-324027D01*
X2100868D01*
X2103408Y-326566D01*
Y-329105D01*
X2093251D01*
X2123721Y-339262D02*
Y-324027D01*
X2131339D01*
X2133878Y-326566D01*
Y-331644D01*
X2131339Y-334183D01*
X2123721D01*
X2141495D02*
X2146574D01*
X2149113Y-331644D01*
Y-326566D01*
X2146574Y-324027D01*
X2141495D01*
X2138956Y-326566D01*
Y-331644D01*
X2141495Y-334183D01*
X2154191D02*
X2161809D01*
X2164348Y-331644D01*
X2161809Y-329105D01*
X2156730D01*
X2154191Y-326566D01*
X2156730Y-324027D01*
X2164348D01*
X2169426Y-334183D02*
X2174505D01*
X2171965D01*
Y-324027D01*
X2169426D01*
X2184661Y-321488D02*
Y-324027D01*
X2182122D01*
X2187200D01*
X2184661D01*
Y-331644D01*
X2187200Y-334183D01*
X2194818D02*
X2199896D01*
X2197357D01*
Y-324027D01*
X2194818D01*
X2210053Y-334183D02*
X2215132D01*
X2217671Y-331644D01*
Y-326566D01*
X2215132Y-324027D01*
X2210053D01*
X2207514Y-326566D01*
Y-331644D01*
X2210053Y-334183D01*
X2222749D02*
Y-324027D01*
X2230367D01*
X2232906Y-326566D01*
Y-334183D01*
X2237984D02*
Y-331644D01*
X2240523D01*
Y-334183D01*
X2237984D01*
X645422Y437253D02*
Y422018D01*
X655579D01*
X663196Y432175D02*
X668275D01*
X670814Y429636D01*
Y422018D01*
X663196D01*
X660657Y424557D01*
X663196Y427097D01*
X670814D01*
X675892Y432175D02*
Y424557D01*
X678431Y422018D01*
X686049D01*
Y419479D01*
X683510Y416940D01*
X680971D01*
X686049Y422018D02*
Y432175D01*
X698745Y422018D02*
X693667D01*
X691127Y424557D01*
Y429636D01*
X693667Y432175D01*
X698745D01*
X701284Y429636D01*
Y427097D01*
X691127D01*
X706363Y432175D02*
Y422018D01*
Y427097D01*
X708902Y429636D01*
X711441Y432175D01*
X713980D01*
X653040Y147698D02*
Y162933D01*
X645422Y155316D01*
X655579D01*
X645422Y221354D02*
X647961Y223893D01*
X653040D01*
X655579Y221354D01*
Y218815D01*
X653040Y216276D01*
X650500D01*
X653040D01*
X655579Y213737D01*
Y211197D01*
X653040Y208658D01*
X647961D01*
X645422Y211197D01*
X655579Y269618D02*
X645422D01*
X655579Y279775D01*
Y282314D01*
X653040Y284853D01*
X647961D01*
X645422Y282314D01*
Y330578D02*
X650500D01*
X647961D01*
Y345813D01*
X645422Y343274D01*
X749540Y422018D02*
Y437253D01*
X759697Y422018D01*
Y437253D01*
X767314Y432175D02*
X772393D01*
X774932Y429636D01*
Y422018D01*
X767314D01*
X764775Y424557D01*
X767314Y427097D01*
X774932D01*
X780010Y422018D02*
Y432175D01*
X782549D01*
X785089Y429636D01*
Y422018D01*
Y429636D01*
X787628Y432175D01*
X790167Y429636D01*
Y422018D01*
X802863D02*
X797784D01*
X795245Y424557D01*
Y429636D01*
X797784Y432175D01*
X802863D01*
X805402Y429636D01*
Y427097D01*
X795245D01*
X749540Y101973D02*
Y86738D01*
X757158D01*
X759697Y89277D01*
Y91817D01*
X757158Y94356D01*
X749540D01*
X757158D01*
X759697Y96895D01*
Y99434D01*
X757158Y101973D01*
X749540D01*
X767314Y86738D02*
X772393D01*
X774932Y89277D01*
Y94356D01*
X772393Y96895D01*
X767314D01*
X764775Y94356D01*
Y89277D01*
X767314Y86738D01*
X782549Y99434D02*
Y96895D01*
X780010D01*
X785089D01*
X782549D01*
Y89277D01*
X785089Y86738D01*
X795245Y99434D02*
Y96895D01*
X792706D01*
X797784D01*
X795245D01*
Y89277D01*
X797784Y86738D01*
X807941D02*
X813019D01*
X815559Y89277D01*
Y94356D01*
X813019Y96895D01*
X807941D01*
X805402Y94356D01*
Y89277D01*
X807941Y86738D01*
X820637D02*
Y96895D01*
X823176D01*
X825715Y94356D01*
Y86738D01*
Y94356D01*
X828254Y96895D01*
X830794Y94356D01*
Y86738D01*
X858725Y101973D02*
X853646D01*
X851107Y99434D01*
Y89277D01*
X853646Y86738D01*
X858725D01*
X861264Y89277D01*
Y99434D01*
X858725Y101973D01*
X866342Y96895D02*
X871421Y86738D01*
X876499Y96895D01*
X889195Y86738D02*
X884117D01*
X881577Y89277D01*
Y94356D01*
X884117Y96895D01*
X889195D01*
X891734Y94356D01*
Y91817D01*
X881577D01*
X896812Y96895D02*
Y86738D01*
Y91817D01*
X899352Y94356D01*
X901891Y96895D01*
X904430D01*
X912047Y86738D02*
X917126D01*
X914587D01*
Y101973D01*
X912047D01*
X927282Y96895D02*
X932361D01*
X934900Y94356D01*
Y86738D01*
X927282D01*
X924743Y89277D01*
X927282Y91817D01*
X934900D01*
X939978Y96895D02*
Y89277D01*
X942518Y86738D01*
X950135D01*
Y84199D01*
X947596Y81660D01*
X945057D01*
X950135Y86738D02*
Y96895D01*
X749540Y132453D02*
Y117218D01*
X757158D01*
X759697Y119757D01*
Y122297D01*
X757158Y124836D01*
X749540D01*
X757158D01*
X759697Y127375D01*
Y129914D01*
X757158Y132453D01*
X749540D01*
X767314Y117218D02*
X772393D01*
X774932Y119757D01*
Y124836D01*
X772393Y127375D01*
X767314D01*
X764775Y124836D01*
Y119757D01*
X767314Y117218D01*
X782549Y129914D02*
Y127375D01*
X780010D01*
X785089D01*
X782549D01*
Y119757D01*
X785089Y117218D01*
X795245Y129914D02*
Y127375D01*
X792706D01*
X797784D01*
X795245D01*
Y119757D01*
X797784Y117218D01*
X807941D02*
X813019D01*
X815559Y119757D01*
Y124836D01*
X813019Y127375D01*
X807941D01*
X805402Y124836D01*
Y119757D01*
X807941Y117218D01*
X820637D02*
Y127375D01*
X823176D01*
X825715Y124836D01*
Y117218D01*
Y124836D01*
X828254Y127375D01*
X830794Y124836D01*
Y117218D01*
X861264Y129914D02*
X858725Y132453D01*
X853646D01*
X851107Y129914D01*
Y127375D01*
X853646Y124836D01*
X858725D01*
X861264Y122297D01*
Y119757D01*
X858725Y117218D01*
X853646D01*
X851107Y119757D01*
X868881Y117218D02*
X873960D01*
X876499Y119757D01*
Y124836D01*
X873960Y127375D01*
X868881D01*
X866342Y124836D01*
Y119757D01*
X868881Y117218D01*
X881577D02*
X886656D01*
X884117D01*
Y132453D01*
X881577D01*
X904430D02*
Y117218D01*
X896812D01*
X894273Y119757D01*
Y124836D01*
X896812Y127375D01*
X904430D01*
X917126Y117218D02*
X912047D01*
X909508Y119757D01*
Y124836D01*
X912047Y127375D01*
X917126D01*
X919665Y124836D01*
Y122297D01*
X909508D01*
X924743Y127375D02*
Y117218D01*
Y122297D01*
X927282Y124836D01*
X929822Y127375D01*
X932361D01*
X749540Y162933D02*
Y147698D01*
X757158D01*
X759697Y150238D01*
Y152777D01*
X757158Y155316D01*
X749540D01*
X757158D01*
X759697Y157855D01*
Y160394D01*
X757158Y162933D01*
X749540D01*
X767314Y147698D02*
X772393D01*
X774932Y150238D01*
Y155316D01*
X772393Y157855D01*
X767314D01*
X764775Y155316D01*
Y150238D01*
X767314Y147698D01*
X782549Y160394D02*
Y157855D01*
X780010D01*
X785089D01*
X782549D01*
Y150238D01*
X785089Y147698D01*
X795245Y160394D02*
Y157855D01*
X792706D01*
X797784D01*
X795245D01*
Y150238D01*
X797784Y147698D01*
X807941D02*
X813019D01*
X815559Y150238D01*
Y155316D01*
X813019Y157855D01*
X807941D01*
X805402Y155316D01*
Y150238D01*
X807941Y147698D01*
X820637D02*
Y157855D01*
X823176D01*
X825715Y155316D01*
Y147698D01*
Y155316D01*
X828254Y157855D01*
X830794Y155316D01*
Y147698D01*
X851107Y162933D02*
Y147698D01*
X861264D01*
X868881Y157855D02*
X873960D01*
X876499Y155316D01*
Y147698D01*
X868881D01*
X866342Y150238D01*
X868881Y152777D01*
X876499D01*
X881577Y157855D02*
Y150238D01*
X884117Y147698D01*
X891734D01*
Y145159D01*
X889195Y142620D01*
X886656D01*
X891734Y147698D02*
Y157855D01*
X904430Y147698D02*
X899352D01*
X896812Y150238D01*
Y155316D01*
X899352Y157855D01*
X904430D01*
X906969Y155316D01*
Y152777D01*
X896812D01*
X912047Y157855D02*
Y147698D01*
Y152777D01*
X914587Y155316D01*
X917126Y157855D01*
X919665D01*
X749540Y193413D02*
Y178178D01*
X757158D01*
X759697Y180718D01*
Y190874D01*
X757158Y193413D01*
X749540D01*
X764775Y178178D02*
X769853D01*
X767314D01*
Y188335D01*
X764775D01*
X785089Y178178D02*
X780010D01*
X777471Y180718D01*
Y185796D01*
X780010Y188335D01*
X785089D01*
X787628Y185796D01*
Y183257D01*
X777471D01*
X792706Y178178D02*
X797784D01*
X795245D01*
Y193413D01*
X792706D01*
X813019Y178178D02*
X807941D01*
X805402Y180718D01*
Y185796D01*
X807941Y188335D01*
X813019D01*
X815559Y185796D01*
Y183257D01*
X805402D01*
X830794Y188335D02*
X823176D01*
X820637Y185796D01*
Y180718D01*
X823176Y178178D01*
X830794D01*
X838411Y190874D02*
Y188335D01*
X835872D01*
X840950D01*
X838411D01*
Y180718D01*
X840950Y178178D01*
X848568Y188335D02*
Y178178D01*
Y183257D01*
X851107Y185796D01*
X853646Y188335D01*
X856186D01*
X863803Y178178D02*
X868881D01*
X866342D01*
Y188335D01*
X863803D01*
X886656D02*
X879038D01*
X876499Y185796D01*
Y180718D01*
X879038Y178178D01*
X886656D01*
X906969Y190874D02*
X909508Y193413D01*
X914587D01*
X917126Y190874D01*
Y188335D01*
X914587Y185796D01*
X912047D01*
X914587D01*
X917126Y183257D01*
Y180718D01*
X914587Y178178D01*
X909508D01*
X906969Y180718D01*
X749540Y223893D02*
Y208658D01*
X759697D01*
X767314Y218815D02*
X772393D01*
X774932Y216276D01*
Y208658D01*
X767314D01*
X764775Y211197D01*
X767314Y213737D01*
X774932D01*
X780010Y218815D02*
Y211197D01*
X782549Y208658D01*
X790167D01*
Y206119D01*
X787628Y203580D01*
X785089D01*
X790167Y208658D02*
Y218815D01*
X802863Y208658D02*
X797784D01*
X795245Y211197D01*
Y216276D01*
X797784Y218815D01*
X802863D01*
X805402Y216276D01*
Y213737D01*
X795245D01*
X810480Y218815D02*
Y208658D01*
Y213737D01*
X813019Y216276D01*
X815559Y218815D01*
X818098D01*
X851107Y208658D02*
X840950D01*
X851107Y218815D01*
Y221354D01*
X848568Y223893D01*
X843490D01*
X840950Y221354D01*
X749540Y254373D02*
Y239138D01*
X757158D01*
X759697Y241677D01*
Y251834D01*
X757158Y254373D01*
X749540D01*
X764775Y239138D02*
X769853D01*
X767314D01*
Y249295D01*
X764775D01*
X785089Y239138D02*
X780010D01*
X777471Y241677D01*
Y246756D01*
X780010Y249295D01*
X785089D01*
X787628Y246756D01*
Y244217D01*
X777471D01*
X792706Y239138D02*
X797784D01*
X795245D01*
Y254373D01*
X792706D01*
X813019Y239138D02*
X807941D01*
X805402Y241677D01*
Y246756D01*
X807941Y249295D01*
X813019D01*
X815559Y246756D01*
Y244217D01*
X805402D01*
X830794Y249295D02*
X823176D01*
X820637Y246756D01*
Y241677D01*
X823176Y239138D01*
X830794D01*
X838411Y251834D02*
Y249295D01*
X835872D01*
X840950D01*
X838411D01*
Y241677D01*
X840950Y239138D01*
X848568Y249295D02*
Y239138D01*
Y244217D01*
X851107Y246756D01*
X853646Y249295D01*
X856186D01*
X863803Y239138D02*
X868881D01*
X866342D01*
Y249295D01*
X863803D01*
X886656D02*
X879038D01*
X876499Y246756D01*
Y241677D01*
X879038Y239138D01*
X886656D01*
X906969D02*
X912047D01*
X909508D01*
Y254373D01*
X906969Y251834D01*
X749540Y284853D02*
Y269618D01*
X759697D01*
X767314Y279775D02*
X772393D01*
X774932Y277236D01*
Y269618D01*
X767314D01*
X764775Y272157D01*
X767314Y274697D01*
X774932D01*
X780010Y279775D02*
Y272157D01*
X782549Y269618D01*
X790167D01*
Y267079D01*
X787628Y264540D01*
X785089D01*
X790167Y269618D02*
Y279775D01*
X802863Y269618D02*
X797784D01*
X795245Y272157D01*
Y277236D01*
X797784Y279775D01*
X802863D01*
X805402Y277236D01*
Y274697D01*
X795245D01*
X810480Y279775D02*
Y269618D01*
Y274697D01*
X813019Y277236D01*
X815559Y279775D01*
X818098D01*
X840950Y269618D02*
X846029D01*
X843490D01*
Y284853D01*
X840950Y282314D01*
X749540Y315333D02*
Y300098D01*
X757158D01*
X759697Y302638D01*
Y312794D01*
X757158Y315333D01*
X749540D01*
X764775Y300098D02*
X769853D01*
X767314D01*
Y310255D01*
X764775D01*
X785089Y300098D02*
X780010D01*
X777471Y302638D01*
Y307716D01*
X780010Y310255D01*
X785089D01*
X787628Y307716D01*
Y305177D01*
X777471D01*
X792706Y300098D02*
X797784D01*
X795245D01*
Y315333D01*
X792706D01*
X813019Y300098D02*
X807941D01*
X805402Y302638D01*
Y307716D01*
X807941Y310255D01*
X813019D01*
X815559Y307716D01*
Y305177D01*
X805402D01*
X830794Y310255D02*
X823176D01*
X820637Y307716D01*
Y302638D01*
X823176Y300098D01*
X830794D01*
X838411Y312794D02*
Y310255D01*
X835872D01*
X840950D01*
X838411D01*
Y302638D01*
X840950Y300098D01*
X848568Y310255D02*
Y300098D01*
Y305177D01*
X851107Y307716D01*
X853646Y310255D01*
X856186D01*
X863803Y300098D02*
X868881D01*
X866342D01*
Y310255D01*
X863803D01*
X886656D02*
X879038D01*
X876499Y307716D01*
Y302638D01*
X879038Y300098D01*
X886656D01*
X917126D02*
X906969D01*
X917126Y310255D01*
Y312794D01*
X914587Y315333D01*
X909508D01*
X906969Y312794D01*
X749540Y345813D02*
X759697D01*
X754618D01*
Y330578D01*
X767314D02*
X772393D01*
X774932Y333117D01*
Y338196D01*
X772393Y340735D01*
X767314D01*
X764775Y338196D01*
Y333117D01*
X767314Y330578D01*
X780010Y325500D02*
Y340735D01*
X787628D01*
X790167Y338196D01*
Y333117D01*
X787628Y330578D01*
X780010D01*
X810480Y345813D02*
Y330578D01*
X820637D01*
X828255Y340735D02*
X833333D01*
X835872Y338196D01*
Y330578D01*
X828255D01*
X825715Y333117D01*
X828255Y335657D01*
X835872D01*
X840950Y340735D02*
Y333117D01*
X843490Y330578D01*
X851107D01*
Y328039D01*
X848568Y325500D01*
X846029D01*
X851107Y330578D02*
Y340735D01*
X863803Y330578D02*
X858725D01*
X856186Y333117D01*
Y338196D01*
X858725Y340735D01*
X863803D01*
X866342Y338196D01*
Y335657D01*
X856186D01*
X871421Y340735D02*
Y330578D01*
Y335657D01*
X873960Y338196D01*
X876499Y340735D01*
X879038D01*
X749540Y376293D02*
X759697D01*
X754618D01*
Y361058D01*
X767314D02*
X772393D01*
X774932Y363597D01*
Y368676D01*
X772393Y371215D01*
X767314D01*
X764775Y368676D01*
Y363597D01*
X767314Y361058D01*
X780010Y355980D02*
Y371215D01*
X787628D01*
X790167Y368676D01*
Y363597D01*
X787628Y361058D01*
X780010D01*
X820637Y373754D02*
X818098Y376293D01*
X813019D01*
X810480Y373754D01*
Y371215D01*
X813019Y368676D01*
X818098D01*
X820637Y366137D01*
Y363597D01*
X818098Y361058D01*
X813019D01*
X810480Y363597D01*
X828255Y361058D02*
X833333D01*
X835872Y363597D01*
Y368676D01*
X833333Y371215D01*
X828255D01*
X825715Y368676D01*
Y363597D01*
X828255Y361058D01*
X840950D02*
X846029D01*
X843490D01*
Y376293D01*
X840950D01*
X863803D02*
Y361058D01*
X856186D01*
X853646Y363597D01*
Y368676D01*
X856186Y371215D01*
X863803D01*
X876499Y361058D02*
X871421D01*
X868881Y363597D01*
Y368676D01*
X871421Y371215D01*
X876499D01*
X879038Y368676D01*
Y366137D01*
X868881D01*
X884117Y371215D02*
Y361058D01*
Y366137D01*
X886656Y368676D01*
X889195Y371215D01*
X891734D01*
X749540Y406773D02*
X759697D01*
X754618D01*
Y391538D01*
X767314D02*
X772393D01*
X774932Y394077D01*
Y399156D01*
X772393Y401695D01*
X767314D01*
X764775Y399156D01*
Y394077D01*
X767314Y391538D01*
X780010Y386460D02*
Y401695D01*
X787628D01*
X790167Y399156D01*
Y394077D01*
X787628Y391538D01*
X780010D01*
X818098Y406773D02*
X813019D01*
X810480Y404234D01*
Y394077D01*
X813019Y391538D01*
X818098D01*
X820637Y394077D01*
Y404234D01*
X818098Y406773D01*
X825715Y401695D02*
X830794Y391538D01*
X835872Y401695D01*
X848568Y391538D02*
X843490D01*
X840950Y394077D01*
Y399156D01*
X843490Y401695D01*
X848568D01*
X851107Y399156D01*
Y396617D01*
X840950D01*
X856186Y401695D02*
Y391538D01*
Y396617D01*
X858725Y399156D01*
X861264Y401695D01*
X863803D01*
X871421Y391538D02*
X876499D01*
X873960D01*
Y406773D01*
X871421D01*
X886656Y401695D02*
X891734D01*
X894273Y399156D01*
Y391538D01*
X886656D01*
X884117Y394077D01*
X886656Y396617D01*
X894273D01*
X899352Y401695D02*
Y394077D01*
X901891Y391538D01*
X909508D01*
Y388999D01*
X906969Y386460D01*
X904430D01*
X909508Y391538D02*
Y401695D01*
X985695Y422018D02*
Y437253D01*
X990773Y432175D01*
X995852Y437253D01*
Y422018D01*
X1003469Y432175D02*
X1008548D01*
X1011087Y429636D01*
Y422018D01*
X1003469D01*
X1000930Y424557D01*
X1003469Y427097D01*
X1011087D01*
X1018704Y434714D02*
Y432175D01*
X1016165D01*
X1021244D01*
X1018704D01*
Y424557D01*
X1021244Y422018D01*
X1036479D02*
X1031400D01*
X1028861Y424557D01*
Y429636D01*
X1031400Y432175D01*
X1036479D01*
X1039018Y429636D01*
Y427097D01*
X1028861D01*
X1044096Y432175D02*
Y422018D01*
Y427097D01*
X1046635Y429636D01*
X1049175Y432175D01*
X1051714D01*
X1059331Y422018D02*
X1064410D01*
X1061870D01*
Y432175D01*
X1059331D01*
X1074566D02*
X1079645D01*
X1082184Y429636D01*
Y422018D01*
X1074566D01*
X1072027Y424557D01*
X1074566Y427097D01*
X1082184D01*
X1087262Y422018D02*
X1092341D01*
X1089801D01*
Y437253D01*
X1087262D01*
X995852Y129914D02*
X993313Y132453D01*
X988234D01*
X985695Y129914D01*
Y127375D01*
X988234Y124836D01*
X993313D01*
X995852Y122297D01*
Y119757D01*
X993313Y117218D01*
X988234D01*
X985695Y119757D01*
X1003469Y117218D02*
X1008548D01*
X1011087Y119757D01*
Y124836D01*
X1008548Y127375D01*
X1003469D01*
X1000930Y124836D01*
Y119757D01*
X1003469Y117218D01*
X1016165D02*
X1021244D01*
X1018704D01*
Y132453D01*
X1016165D01*
X1039018D02*
Y117218D01*
X1031400D01*
X1028861Y119757D01*
Y124836D01*
X1031400Y127375D01*
X1039018D01*
X1051714Y117218D02*
X1046635D01*
X1044096Y119757D01*
Y124836D01*
X1046635Y127375D01*
X1051714D01*
X1054253Y124836D01*
Y122297D01*
X1044096D01*
X1059331Y127375D02*
Y117218D01*
Y122297D01*
X1061870Y124836D01*
X1064410Y127375D01*
X1066949D01*
X1089801Y117218D02*
Y132453D01*
X1097419D01*
X1099958Y129914D01*
Y124836D01*
X1097419Y122297D01*
X1089801D01*
X1094880D02*
X1099958Y117218D01*
X1112654D02*
X1107576D01*
X1105036Y119757D01*
Y124836D01*
X1107576Y127375D01*
X1112654D01*
X1115193Y124836D01*
Y122297D01*
X1105036D01*
X1120272Y117218D02*
X1127889D01*
X1130428Y119757D01*
X1127889Y122297D01*
X1122811D01*
X1120272Y124836D01*
X1122811Y127375D01*
X1130428D01*
X1135507Y117218D02*
X1140585D01*
X1138046D01*
Y127375D01*
X1135507D01*
X1148203Y117218D02*
X1155820D01*
X1158359Y119757D01*
X1155820Y122297D01*
X1150742D01*
X1148203Y124836D01*
X1150742Y127375D01*
X1158359D01*
X1165977Y129914D02*
Y127375D01*
X1163438D01*
X1168516D01*
X1165977D01*
Y119757D01*
X1168516Y117218D01*
X985695Y178178D02*
Y193413D01*
X993313D01*
X995852Y190874D01*
Y185796D01*
X993313Y183257D01*
X985695D01*
X1000930Y178178D02*
Y193413D01*
X1008548D01*
X1011087Y190874D01*
Y185796D01*
X1008548Y183257D01*
X1000930D01*
X1016165Y185796D02*
X1026322D01*
X1031400Y190874D02*
X1033940Y193413D01*
X1039018D01*
X1041557Y190874D01*
Y180718D01*
X1039018Y178178D01*
X1033940D01*
X1031400Y180718D01*
Y190874D01*
X1046635D02*
X1049175Y193413D01*
X1054253D01*
X1056792Y190874D01*
Y180718D01*
X1054253Y178178D01*
X1049175D01*
X1046635Y180718D01*
Y190874D01*
X1072027Y193413D02*
X1066949Y190874D01*
X1061870Y185796D01*
Y180718D01*
X1064410Y178178D01*
X1069488D01*
X1072027Y180718D01*
Y183257D01*
X1069488Y185796D01*
X1061870D01*
X995852Y221354D02*
X993313Y223893D01*
X988234D01*
X985695Y221354D01*
Y211197D01*
X988234Y208658D01*
X993313D01*
X995852Y211197D01*
X1011087Y223893D02*
X1000930D01*
Y216276D01*
X1006009D01*
X1000930D01*
Y208658D01*
X1016165Y216276D02*
X1026322D01*
X1031400Y221354D02*
X1033940Y223893D01*
X1039018D01*
X1041557Y221354D01*
Y211197D01*
X1039018Y208658D01*
X1033940D01*
X1031400Y211197D01*
Y221354D01*
X1046635D02*
X1049175Y223893D01*
X1054253D01*
X1056792Y221354D01*
Y211197D01*
X1054253Y208658D01*
X1049175D01*
X1046635Y211197D01*
Y221354D01*
X1069488Y208658D02*
Y223893D01*
X1061870Y216276D01*
X1072027D01*
X995852Y254373D02*
X985695D01*
Y246756D01*
X990773D01*
X985695D01*
Y239138D01*
X1000930D02*
Y254373D01*
X1008548D01*
X1011087Y251834D01*
Y246756D01*
X1008548Y244217D01*
X1000930D01*
X1006009D02*
X1011087Y239138D01*
X1016165Y246756D02*
X1026322D01*
X1039018Y239138D02*
Y254373D01*
X1031400Y246756D01*
X1041557D01*
X995852Y282314D02*
X993313Y284853D01*
X988234D01*
X985695Y282314D01*
Y272157D01*
X988234Y269618D01*
X993313D01*
X995852Y272157D01*
X1011087Y284853D02*
X1000930D01*
Y277236D01*
X1006009D01*
X1000930D01*
Y269618D01*
X1016165Y277236D02*
X1026322D01*
X1031400Y282314D02*
X1033940Y284853D01*
X1039018D01*
X1041557Y282314D01*
Y272157D01*
X1039018Y269618D01*
X1033940D01*
X1031400Y272157D01*
Y282314D01*
X1046635D02*
X1049175Y284853D01*
X1054253D01*
X1056792Y282314D01*
Y272157D01*
X1054253Y269618D01*
X1049175D01*
X1046635Y272157D01*
Y282314D01*
X1069488Y269618D02*
Y284853D01*
X1061870Y277236D01*
X1072027D01*
X985695Y300098D02*
Y315333D01*
X993313D01*
X995852Y312794D01*
Y307716D01*
X993313Y305177D01*
X985695D01*
X1000930Y300098D02*
Y315333D01*
X1008548D01*
X1011087Y312794D01*
Y307716D01*
X1008548Y305177D01*
X1000930D01*
X1016165Y307716D02*
X1026322D01*
X1031400Y312794D02*
X1033940Y315333D01*
X1039018D01*
X1041557Y312794D01*
Y302638D01*
X1039018Y300098D01*
X1033940D01*
X1031400Y302638D01*
Y312794D01*
X1046635D02*
X1049175Y315333D01*
X1054253D01*
X1056792Y312794D01*
Y302638D01*
X1054253Y300098D01*
X1049175D01*
X1046635Y302638D01*
Y312794D01*
X1072027Y315333D02*
X1066949Y312794D01*
X1061870Y307716D01*
Y302638D01*
X1064410Y300098D01*
X1069488D01*
X1072027Y302638D01*
Y305177D01*
X1069488Y307716D01*
X1061870D01*
X995852Y373754D02*
X993313Y376293D01*
X988234D01*
X985695Y373754D01*
Y371215D01*
X988234Y368676D01*
X993313D01*
X995852Y366137D01*
Y363597D01*
X993313Y361058D01*
X988234D01*
X985695Y363597D01*
X1003469Y361058D02*
X1008548D01*
X1011087Y363597D01*
Y368676D01*
X1008548Y371215D01*
X1003469D01*
X1000930Y368676D01*
Y363597D01*
X1003469Y361058D01*
X1016165D02*
X1021244D01*
X1018704D01*
Y376293D01*
X1016165D01*
X1039018D02*
Y361058D01*
X1031400D01*
X1028861Y363597D01*
Y368676D01*
X1031400Y371215D01*
X1039018D01*
X1051714Y361058D02*
X1046635D01*
X1044096Y363597D01*
Y368676D01*
X1046635Y371215D01*
X1051714D01*
X1054253Y368676D01*
Y366137D01*
X1044096D01*
X1059331Y371215D02*
Y361058D01*
Y366137D01*
X1061870Y368676D01*
X1064410Y371215D01*
X1066949D01*
X1089801Y361058D02*
Y376293D01*
X1097419D01*
X1099958Y373754D01*
Y368676D01*
X1097419Y366137D01*
X1089801D01*
X1094880D02*
X1099958Y361058D01*
X1112654D02*
X1107576D01*
X1105036Y363597D01*
Y368676D01*
X1107576Y371215D01*
X1112654D01*
X1115193Y368676D01*
Y366137D01*
X1105036D01*
X1120272Y361058D02*
X1127889D01*
X1130428Y363597D01*
X1127889Y366137D01*
X1122811D01*
X1120272Y368676D01*
X1122811Y371215D01*
X1130428D01*
X1135507Y361058D02*
X1140585D01*
X1138046D01*
Y371215D01*
X1135507D01*
X1148203Y361058D02*
X1155820D01*
X1158359Y363597D01*
X1155820Y366137D01*
X1150742D01*
X1148203Y368676D01*
X1150742Y371215D01*
X1158359D01*
X1165977Y373754D02*
Y371215D01*
X1163438D01*
X1168516D01*
X1165977D01*
Y363597D01*
X1168516Y361058D01*
X1204076Y437253D02*
X1214233D01*
X1209154D01*
Y422018D01*
X1219311Y437253D02*
Y422018D01*
Y429636D01*
X1221850Y432175D01*
X1226929D01*
X1229468Y429636D01*
Y422018D01*
X1234546D02*
X1239624D01*
X1237085D01*
Y432175D01*
X1234546D01*
X1257399D02*
X1249781D01*
X1247242Y429636D01*
Y424557D01*
X1249781Y422018D01*
X1257399D01*
X1262477D02*
Y437253D01*
Y427097D02*
X1270095Y432175D01*
X1262477Y427097D02*
X1270095Y422018D01*
X1277712D02*
Y432175D01*
X1285330D01*
X1287869Y429636D01*
Y422018D01*
X1300565D02*
X1295486D01*
X1292947Y424557D01*
Y429636D01*
X1295486Y432175D01*
X1300565D01*
X1303104Y429636D01*
Y427097D01*
X1292947D01*
X1308182Y422018D02*
X1315800D01*
X1318339Y424557D01*
X1315800Y427097D01*
X1310721D01*
X1308182Y429636D01*
X1310721Y432175D01*
X1318339D01*
X1323417Y422018D02*
X1331035D01*
X1333574Y424557D01*
X1331035Y427097D01*
X1325957D01*
X1323417Y429636D01*
X1325957Y432175D01*
X1333574D01*
X1204076Y129914D02*
X1206615Y132453D01*
X1211693D01*
X1214233Y129914D01*
Y119757D01*
X1211693Y117218D01*
X1206615D01*
X1204076Y119757D01*
Y129914D01*
X1219311Y117218D02*
Y119757D01*
X1221850D01*
Y117218D01*
X1219311D01*
X1232007Y129914D02*
X1234546Y132453D01*
X1239624D01*
X1242164Y129914D01*
Y119757D01*
X1239624Y117218D01*
X1234546D01*
X1232007Y119757D01*
Y129914D01*
X1247242Y117218D02*
X1252320D01*
X1249781D01*
Y132453D01*
X1247242Y129914D01*
X1259938D02*
X1262477Y132453D01*
X1267555D01*
X1270095Y129914D01*
Y119757D01*
X1267555Y117218D01*
X1262477D01*
X1259938Y119757D01*
Y129914D01*
X1275173Y117218D02*
Y127375D01*
X1277712D01*
X1280251Y124836D01*
Y117218D01*
Y124836D01*
X1282791Y127375D01*
X1285330Y124836D01*
Y117218D01*
X1290408D02*
Y127375D01*
X1292947D01*
X1295486Y124836D01*
Y117218D01*
Y124836D01*
X1298026Y127375D01*
X1300565Y124836D01*
Y117218D01*
X1204076Y160394D02*
X1206615Y162933D01*
X1211693D01*
X1214233Y160394D01*
Y150238D01*
X1211693Y147698D01*
X1206615D01*
X1204076Y150238D01*
Y160394D01*
X1219311Y147698D02*
Y150238D01*
X1221850D01*
Y147698D01*
X1219311D01*
X1232007Y160394D02*
X1234546Y162933D01*
X1239624D01*
X1242164Y160394D01*
Y150238D01*
X1239624Y147698D01*
X1234546D01*
X1232007Y150238D01*
Y160394D01*
X1247242D02*
X1249781Y162933D01*
X1254859D01*
X1257399Y160394D01*
Y157855D01*
X1254859Y155316D01*
X1252320D01*
X1254859D01*
X1257399Y152777D01*
Y150238D01*
X1254859Y147698D01*
X1249781D01*
X1247242Y150238D01*
X1272634Y162933D02*
X1267555Y160394D01*
X1262477Y155316D01*
Y150238D01*
X1265016Y147698D01*
X1270095D01*
X1272634Y150238D01*
Y152777D01*
X1270095Y155316D01*
X1262477D01*
X1277712Y147698D02*
Y157855D01*
X1280251D01*
X1282791Y155316D01*
Y147698D01*
Y155316D01*
X1285330Y157855D01*
X1287869Y155316D01*
Y147698D01*
X1292947D02*
Y157855D01*
X1295486D01*
X1298026Y155316D01*
Y147698D01*
Y155316D01*
X1300565Y157855D01*
X1303104Y155316D01*
Y147698D01*
X1204076Y190874D02*
X1206615Y193413D01*
X1211693D01*
X1214233Y190874D01*
Y180718D01*
X1211693Y178178D01*
X1206615D01*
X1204076Y180718D01*
Y190874D01*
X1219311Y178178D02*
Y180718D01*
X1221850D01*
Y178178D01*
X1219311D01*
X1232007D02*
X1237085D01*
X1234546D01*
Y193413D01*
X1232007Y190874D01*
X1244703Y178178D02*
X1249781D01*
X1247242D01*
Y193413D01*
X1244703Y190874D01*
X1257399D02*
X1259938Y193413D01*
X1265016D01*
X1267555Y190874D01*
Y180718D01*
X1265016Y178178D01*
X1259938D01*
X1257399Y180718D01*
Y190874D01*
X1272634Y178178D02*
Y188335D01*
X1275173D01*
X1277712Y185796D01*
Y178178D01*
Y185796D01*
X1280251Y188335D01*
X1282791Y185796D01*
Y178178D01*
X1287869D02*
Y188335D01*
X1290408D01*
X1292947Y185796D01*
Y178178D01*
Y185796D01*
X1295486Y188335D01*
X1298026Y185796D01*
Y178178D01*
X1204076Y221354D02*
X1206615Y223893D01*
X1211693D01*
X1214233Y221354D01*
Y211197D01*
X1211693Y208658D01*
X1206615D01*
X1204076Y211197D01*
Y221354D01*
X1219311Y208658D02*
Y211197D01*
X1221850D01*
Y208658D01*
X1219311D01*
X1232007Y221354D02*
X1234546Y223893D01*
X1239624D01*
X1242164Y221354D01*
Y211197D01*
X1239624Y208658D01*
X1234546D01*
X1232007Y211197D01*
Y221354D01*
X1247242D02*
X1249781Y223893D01*
X1254859D01*
X1257399Y221354D01*
Y218815D01*
X1254859Y216276D01*
X1252320D01*
X1254859D01*
X1257399Y213737D01*
Y211197D01*
X1254859Y208658D01*
X1249781D01*
X1247242Y211197D01*
X1272634Y223893D02*
X1262477D01*
Y216276D01*
X1267555Y218815D01*
X1270095D01*
X1272634Y216276D01*
Y211197D01*
X1270095Y208658D01*
X1265016D01*
X1262477Y211197D01*
X1277712Y208658D02*
Y218815D01*
X1280251D01*
X1282791Y216276D01*
Y208658D01*
Y216276D01*
X1285330Y218815D01*
X1287869Y216276D01*
Y208658D01*
X1292947D02*
Y218815D01*
X1295486D01*
X1298026Y216276D01*
Y208658D01*
Y216276D01*
X1300565Y218815D01*
X1303104Y216276D01*
Y208658D01*
X1204076Y239138D02*
X1209154D01*
X1206615D01*
Y254373D01*
X1204076Y251834D01*
X1216772Y239138D02*
Y241677D01*
X1219311D01*
Y239138D01*
X1216772D01*
X1239624D02*
X1229468D01*
X1239624Y249295D01*
Y251834D01*
X1237085Y254373D01*
X1232007D01*
X1229468Y251834D01*
X1244703D02*
X1247242Y254373D01*
X1252320D01*
X1254859Y251834D01*
Y241677D01*
X1252320Y239138D01*
X1247242D01*
X1244703Y241677D01*
Y251834D01*
X1259938D02*
X1262477Y254373D01*
X1267555D01*
X1270095Y251834D01*
Y241677D01*
X1267555Y239138D01*
X1262477D01*
X1259938Y241677D01*
Y251834D01*
X1275173Y239138D02*
Y249295D01*
X1277712D01*
X1280251Y246756D01*
Y239138D01*
Y246756D01*
X1282791Y249295D01*
X1285330Y246756D01*
Y239138D01*
X1290408D02*
Y249295D01*
X1292947D01*
X1295486Y246756D01*
Y239138D01*
Y246756D01*
X1298026Y249295D01*
X1300565Y246756D01*
Y239138D01*
X1204076Y282314D02*
X1206615Y284853D01*
X1211693D01*
X1214233Y282314D01*
Y272157D01*
X1211693Y269618D01*
X1206615D01*
X1204076Y272157D01*
Y282314D01*
X1219311Y269618D02*
Y272157D01*
X1221850D01*
Y269618D01*
X1219311D01*
X1232007Y282314D02*
X1234546Y284853D01*
X1239624D01*
X1242164Y282314D01*
Y272157D01*
X1239624Y269618D01*
X1234546D01*
X1232007Y272157D01*
Y282314D01*
X1247242D02*
X1249781Y284853D01*
X1254859D01*
X1257399Y282314D01*
Y279775D01*
X1254859Y277236D01*
X1252320D01*
X1254859D01*
X1257399Y274697D01*
Y272157D01*
X1254859Y269618D01*
X1249781D01*
X1247242Y272157D01*
X1272634Y284853D02*
X1262477D01*
Y277236D01*
X1267555Y279775D01*
X1270095D01*
X1272634Y277236D01*
Y272157D01*
X1270095Y269618D01*
X1265016D01*
X1262477Y272157D01*
X1277712Y269618D02*
Y279775D01*
X1280251D01*
X1282791Y277236D01*
Y269618D01*
Y277236D01*
X1285330Y279775D01*
X1287869Y277236D01*
Y269618D01*
X1292947D02*
Y279775D01*
X1295486D01*
X1298026Y277236D01*
Y269618D01*
Y277236D01*
X1300565Y279775D01*
X1303104Y277236D01*
Y269618D01*
X1204076Y312794D02*
X1206615Y315333D01*
X1211693D01*
X1214233Y312794D01*
Y302638D01*
X1211693Y300098D01*
X1206615D01*
X1204076Y302638D01*
Y312794D01*
X1219311Y300098D02*
Y302638D01*
X1221850D01*
Y300098D01*
X1219311D01*
X1232007D02*
X1237085D01*
X1234546D01*
Y315333D01*
X1232007Y312794D01*
X1244703Y300098D02*
X1249781D01*
X1247242D01*
Y315333D01*
X1244703Y312794D01*
X1257399D02*
X1259938Y315333D01*
X1265016D01*
X1267555Y312794D01*
Y302638D01*
X1265016Y300098D01*
X1259938D01*
X1257399Y302638D01*
Y312794D01*
X1272634Y300098D02*
Y310255D01*
X1275173D01*
X1277712Y307716D01*
Y300098D01*
Y307716D01*
X1280251Y310255D01*
X1282791Y307716D01*
Y300098D01*
X1287869D02*
Y310255D01*
X1290408D01*
X1292947Y307716D01*
Y300098D01*
Y307716D01*
X1295486Y310255D01*
X1298026Y307716D01*
Y300098D01*
X1204076Y343274D02*
X1206615Y345813D01*
X1211693D01*
X1214233Y343274D01*
Y333117D01*
X1211693Y330578D01*
X1206615D01*
X1204076Y333117D01*
Y343274D01*
X1219311Y330578D02*
Y333117D01*
X1221850D01*
Y330578D01*
X1219311D01*
X1232007Y343274D02*
X1234546Y345813D01*
X1239624D01*
X1242164Y343274D01*
Y333117D01*
X1239624Y330578D01*
X1234546D01*
X1232007Y333117D01*
Y343274D01*
X1247242D02*
X1249781Y345813D01*
X1254859D01*
X1257399Y343274D01*
Y340735D01*
X1254859Y338196D01*
X1252320D01*
X1254859D01*
X1257399Y335657D01*
Y333117D01*
X1254859Y330578D01*
X1249781D01*
X1247242Y333117D01*
X1272634Y345813D02*
X1267555Y343274D01*
X1262477Y338196D01*
Y333117D01*
X1265016Y330578D01*
X1270095D01*
X1272634Y333117D01*
Y335657D01*
X1270095Y338196D01*
X1262477D01*
X1277712Y330578D02*
Y340735D01*
X1280251D01*
X1282791Y338196D01*
Y330578D01*
Y338196D01*
X1285330Y340735D01*
X1287869Y338196D01*
Y330578D01*
X1292947D02*
Y340735D01*
X1295486D01*
X1298026Y338196D01*
Y330578D01*
Y338196D01*
X1300565Y340735D01*
X1303104Y338196D01*
Y330578D01*
X1204076Y373754D02*
X1206615Y376293D01*
X1211693D01*
X1214233Y373754D01*
Y363597D01*
X1211693Y361058D01*
X1206615D01*
X1204076Y363597D01*
Y373754D01*
X1219311Y361058D02*
Y363597D01*
X1221850D01*
Y361058D01*
X1219311D01*
X1232007Y373754D02*
X1234546Y376293D01*
X1239624D01*
X1242164Y373754D01*
Y363597D01*
X1239624Y361058D01*
X1234546D01*
X1232007Y363597D01*
Y373754D01*
X1247242Y361058D02*
X1252320D01*
X1249781D01*
Y376293D01*
X1247242Y373754D01*
X1259938D02*
X1262477Y376293D01*
X1267555D01*
X1270095Y373754D01*
Y363597D01*
X1267555Y361058D01*
X1262477D01*
X1259938Y363597D01*
Y373754D01*
X1275173Y361058D02*
Y371215D01*
X1277712D01*
X1280251Y368676D01*
Y361058D01*
Y368676D01*
X1282791Y371215D01*
X1285330Y368676D01*
Y361058D01*
X1290408D02*
Y371215D01*
X1292947D01*
X1295486Y368676D01*
Y361058D01*
Y368676D01*
X1298026Y371215D01*
X1300565Y368676D01*
Y361058D01*
X1379291Y434714D02*
X1376752Y437253D01*
X1371673D01*
X1369134Y434714D01*
Y424557D01*
X1371673Y422018D01*
X1376752D01*
X1379291Y424557D01*
X1386908Y422018D02*
X1391987D01*
X1394526Y424557D01*
Y429636D01*
X1391987Y432175D01*
X1386908D01*
X1384369Y429636D01*
Y424557D01*
X1386908Y422018D01*
X1399604D02*
Y432175D01*
X1407222D01*
X1409761Y429636D01*
Y422018D01*
X1414839D02*
X1422457D01*
X1424996Y424557D01*
X1422457Y427097D01*
X1417379D01*
X1414839Y429636D01*
X1417379Y432175D01*
X1424996D01*
X1432614Y434714D02*
Y432175D01*
X1430074D01*
X1435153D01*
X1432614D01*
Y424557D01*
X1435153Y422018D01*
X1445309Y432175D02*
X1450388D01*
X1452927Y429636D01*
Y422018D01*
X1445309D01*
X1442770Y424557D01*
X1445309Y427097D01*
X1452927D01*
X1458005Y422018D02*
Y432175D01*
X1465623D01*
X1468162Y429636D01*
Y422018D01*
X1475780Y434714D02*
Y432175D01*
X1473240D01*
X1478319D01*
X1475780D01*
Y424557D01*
X1478319Y422018D01*
X1369134Y129914D02*
X1371673Y132453D01*
X1376752D01*
X1379291Y129914D01*
Y127375D01*
X1376752Y124836D01*
X1374212D01*
X1376752D01*
X1379291Y122297D01*
Y119757D01*
X1376752Y117218D01*
X1371673D01*
X1369134Y119757D01*
X1384369Y117218D02*
Y119757D01*
X1386908D01*
Y117218D01*
X1384369D01*
X1407222Y132453D02*
X1397065D01*
Y124836D01*
X1402143Y127375D01*
X1404683D01*
X1407222Y124836D01*
Y119757D01*
X1404683Y117218D01*
X1399604D01*
X1397065Y119757D01*
X1376752Y178178D02*
Y193413D01*
X1369134Y185796D01*
X1379291D01*
X1384369Y178178D02*
Y180718D01*
X1386908D01*
Y178178D01*
X1384369D01*
X1397065D02*
X1402143D01*
X1399604D01*
Y193413D01*
X1397065Y190874D01*
X1376752Y239138D02*
Y254373D01*
X1369134Y246756D01*
X1379291D01*
X1384369Y239138D02*
Y241677D01*
X1386908D01*
Y239138D01*
X1384369D01*
X1397065Y251834D02*
X1399604Y254373D01*
X1404683D01*
X1407222Y251834D01*
Y249295D01*
X1404683Y246756D01*
X1407222Y244217D01*
Y241677D01*
X1404683Y239138D01*
X1399604D01*
X1397065Y241677D01*
Y244217D01*
X1399604Y246756D01*
X1397065Y249295D01*
Y251834D01*
X1399604Y246756D02*
X1404683D01*
X1376752Y300098D02*
Y315333D01*
X1369134Y307716D01*
X1379291D01*
X1384369Y300098D02*
Y302638D01*
X1386908D01*
Y300098D01*
X1384369D01*
X1397065D02*
X1402143D01*
X1399604D01*
Y315333D01*
X1397065Y312794D01*
X1369134Y373754D02*
X1371673Y376293D01*
X1376752D01*
X1379291Y373754D01*
Y371215D01*
X1376752Y368676D01*
X1374212D01*
X1376752D01*
X1379291Y366137D01*
Y363597D01*
X1376752Y361058D01*
X1371673D01*
X1369134Y363597D01*
X1384369Y361058D02*
Y363597D01*
X1386908D01*
Y361058D01*
X1384369D01*
X1407222Y376293D02*
X1397065D01*
Y368676D01*
X1402143Y371215D01*
X1404683D01*
X1407222Y368676D01*
Y363597D01*
X1404683Y361058D01*
X1399604D01*
X1397065Y363597D01*
X1513879Y437253D02*
Y422018D01*
X1521496D01*
X1524035Y424557D01*
Y427097D01*
X1521496Y429636D01*
X1513879D01*
X1521496D01*
X1524035Y432175D01*
Y434714D01*
X1521496Y437253D01*
X1513879D01*
X1531653Y422018D02*
X1536731D01*
X1539270Y424557D01*
Y429636D01*
X1536731Y432175D01*
X1531653D01*
X1529114Y429636D01*
Y424557D01*
X1531653Y422018D01*
X1546888Y432175D02*
X1551966D01*
X1554506Y429636D01*
Y422018D01*
X1546888D01*
X1544349Y424557D01*
X1546888Y427097D01*
X1554506D01*
X1559584Y432175D02*
Y422018D01*
Y427097D01*
X1562123Y429636D01*
X1564662Y432175D01*
X1567202D01*
X1584976Y437253D02*
Y422018D01*
X1577358D01*
X1574819Y424557D01*
Y429636D01*
X1577358Y432175D01*
X1584976D01*
X1605289Y437253D02*
Y422018D01*
X1615446D01*
X1623063Y432175D02*
X1628142D01*
X1630681Y429636D01*
Y422018D01*
X1623063D01*
X1620524Y424557D01*
X1623063Y427097D01*
X1630681D01*
X1635759Y432175D02*
Y424557D01*
X1638298Y422018D01*
X1645916D01*
Y419479D01*
X1643377Y416940D01*
X1640838D01*
X1645916Y422018D02*
Y432175D01*
X1658612Y422018D02*
X1653534D01*
X1650994Y424557D01*
Y429636D01*
X1653534Y432175D01*
X1658612D01*
X1661151Y429636D01*
Y427097D01*
X1650994D01*
X1666230Y432175D02*
Y422018D01*
Y427097D01*
X1668769Y429636D01*
X1671308Y432175D01*
X1673847D01*
X1706856Y434714D02*
X1704317Y437253D01*
X1699239D01*
X1696700Y434714D01*
Y432175D01*
X1699239Y429636D01*
X1704317D01*
X1706856Y427097D01*
Y424557D01*
X1704317Y422018D01*
X1699239D01*
X1696700Y424557D01*
X1714474Y434714D02*
Y432175D01*
X1711935D01*
X1717013D01*
X1714474D01*
Y424557D01*
X1717013Y422018D01*
X1727170Y432175D02*
X1732248D01*
X1734787Y429636D01*
Y422018D01*
X1727170D01*
X1724631Y424557D01*
X1727170Y427097D01*
X1734787D01*
X1750022Y432175D02*
X1742405D01*
X1739866Y429636D01*
Y424557D01*
X1742405Y422018D01*
X1750022D01*
X1755101D02*
Y437253D01*
Y427097D02*
X1762718Y432175D01*
X1755101Y427097D02*
X1762718Y422018D01*
X645422Y71493D02*
X655579D01*
X650500D01*
Y56258D01*
X663196D02*
X668275D01*
X670814Y58797D01*
Y63876D01*
X668275Y66415D01*
X663196D01*
X660657Y63876D01*
Y58797D01*
X663196Y56258D01*
X678431Y68954D02*
Y66415D01*
X675892D01*
X680971D01*
X678431D01*
Y58797D01*
X680971Y56258D01*
X691127Y66415D02*
X696206D01*
X698745Y63876D01*
Y56258D01*
X691127D01*
X688588Y58797D01*
X691127Y61337D01*
X698745D01*
X703823Y56258D02*
X708902D01*
X706363D01*
Y71493D01*
X703823D01*
X731754D02*
Y56258D01*
X739372D01*
X741911Y58797D01*
Y61337D01*
Y63876D01*
X739372Y66415D01*
X731754D01*
X749529Y56258D02*
X754607D01*
X757146Y58797D01*
Y63876D01*
X754607Y66415D01*
X749529D01*
X746989Y63876D01*
Y58797D01*
X749529Y56258D01*
X764764Y66415D02*
X769842D01*
X772381Y63876D01*
Y56258D01*
X764764D01*
X762224Y58797D01*
X764764Y61337D01*
X772381D01*
X777459Y66415D02*
Y56258D01*
Y61337D01*
X779999Y63876D01*
X782538Y66415D01*
X785077D01*
X802851Y71493D02*
Y56258D01*
X795234D01*
X792694Y58797D01*
Y63876D01*
X795234Y66415D01*
X802851D01*
X825704Y68954D02*
Y66415D01*
X823165D01*
X828243D01*
X825704D01*
Y58797D01*
X828243Y56258D01*
X835861Y71493D02*
Y56258D01*
Y63876D01*
X838400Y66415D01*
X843478D01*
X846017Y63876D01*
Y56258D01*
X851096D02*
X856174D01*
X853635D01*
Y66415D01*
X851096D01*
X873948D02*
X866331D01*
X863792Y63876D01*
Y58797D01*
X866331Y56258D01*
X873948D01*
X879027D02*
Y71493D01*
Y61337D02*
X886644Y66415D01*
X879027Y61337D02*
X886644Y56258D01*
X894262D02*
Y66415D01*
X901879D01*
X904418Y63876D01*
Y56258D01*
X917114D02*
X912036D01*
X909497Y58797D01*
Y63876D01*
X912036Y66415D01*
X917114D01*
X919653Y63876D01*
Y61337D01*
X909497D01*
X924732Y56258D02*
X932349D01*
X934889Y58797D01*
X932349Y61337D01*
X927271D01*
X924732Y63876D01*
X927271Y66415D01*
X934889D01*
X939967Y56258D02*
X947584D01*
X950124Y58797D01*
X947584Y61337D01*
X942506D01*
X939967Y63876D01*
X942506Y66415D01*
X950124D01*
X955202D02*
X957741D01*
Y63876D01*
X955202D01*
Y66415D01*
Y58797D02*
X957741D01*
Y56258D01*
X955202D01*
Y58797D01*
X1204076Y56258D02*
X1209154D01*
X1206615D01*
Y71493D01*
X1204076Y68954D01*
X1216772Y56258D02*
Y58797D01*
X1219311D01*
Y56258D01*
X1216772D01*
X1239624Y71493D02*
X1229468D01*
Y63876D01*
X1234546Y66415D01*
X1237085D01*
X1239624Y63876D01*
Y58797D01*
X1237085Y56258D01*
X1232007D01*
X1229468Y58797D01*
X1244703Y68954D02*
X1247242Y71493D01*
X1252320D01*
X1254859Y68954D01*
Y66415D01*
X1252320Y63876D01*
X1254859Y61337D01*
Y58797D01*
X1252320Y56258D01*
X1247242D01*
X1244703Y58797D01*
Y61337D01*
X1247242Y63876D01*
X1244703Y66415D01*
Y68954D01*
X1247242Y63876D02*
X1252320D01*
X1259938Y56258D02*
X1265016D01*
X1262477D01*
Y71493D01*
X1259938Y68954D01*
X1272634Y56258D02*
Y66415D01*
X1275173D01*
X1277712Y63876D01*
Y56258D01*
Y63876D01*
X1280251Y66415D01*
X1282791Y63876D01*
Y56258D01*
X1287869D02*
Y66415D01*
X1290408D01*
X1292947Y63876D01*
Y56258D01*
Y63876D01*
X1295486Y66415D01*
X1298026Y63876D01*
Y56258D01*
D68*
X382550Y183000D02*
G03*
X382550Y183000I-6350J0D01*
G01*
X407950D02*
G03*
X407950Y183000I-6350J0D01*
G01*
X433350D02*
G03*
X433350Y183000I-6350J0D01*
G01*
X458750D02*
G03*
X458750Y183000I-6350J0D01*
G01*
X484150D02*
G03*
X484150Y183000I-6350J0D01*
G01*
X125650Y61650D02*
Y64825D01*
X128825Y68000D01*
X125650Y71175D02*
X128825Y68000D01*
X125650Y71175D02*
Y74350D01*
X128825D01*
X132000Y71175D01*
X135175Y74350D01*
X138350D01*
Y71175D02*
Y74350D01*
X135175Y68000D02*
X138350Y71175D01*
X135175Y68000D02*
X138350Y64825D01*
Y61650D02*
Y64825D01*
X135175Y61650D02*
X138350D01*
X132000Y64825D02*
X135175Y61650D01*
X128825D02*
X132000Y64825D01*
X125650Y61650D02*
X128825D01*
X125650Y51650D02*
Y54825D01*
X128825Y58000D01*
X125650Y61175D02*
X128825Y58000D01*
X125650Y61175D02*
Y64350D01*
X128825D01*
X132000Y61175D01*
X135175Y64350D01*
X138350D01*
Y61175D02*
Y64350D01*
X135175Y58000D02*
X138350Y61175D01*
X135175Y58000D02*
X138350Y54825D01*
Y51650D02*
Y54825D01*
X135175Y51650D02*
X138350D01*
X132000Y54825D02*
X135175Y51650D01*
X128825D02*
X132000Y54825D01*
X125650Y51650D02*
X128825D01*
X172650Y45650D02*
Y48825D01*
X175825Y52000D01*
X172650Y55175D02*
X175825Y52000D01*
X172650Y55175D02*
Y58350D01*
X175825D01*
X179000Y55175D01*
X182175Y58350D01*
X185350D01*
Y55175D02*
Y58350D01*
X182175Y52000D02*
X185350Y55175D01*
X182175Y52000D02*
X185350Y48825D01*
Y45650D02*
Y48825D01*
X182175Y45650D02*
X185350D01*
X179000Y48825D02*
X182175Y45650D01*
X175825D02*
X179000Y48825D01*
X172650Y45650D02*
X175825D01*
X161650D02*
Y48825D01*
X164825Y52000D01*
X161650Y55175D02*
X164825Y52000D01*
X161650Y55175D02*
Y58350D01*
X164825D01*
X168000Y55175D01*
X171175Y58350D01*
X174350D01*
Y55175D02*
Y58350D01*
X171175Y52000D02*
X174350Y55175D01*
X171175Y52000D02*
X174350Y48825D01*
Y45650D02*
Y48825D01*
X171175Y45650D02*
X174350D01*
X168000Y48825D02*
X171175Y45650D01*
X164825D02*
X168000Y48825D01*
X161650Y45650D02*
X164825D01*
X150650D02*
Y48825D01*
X153825Y52000D01*
X150650Y55175D02*
X153825Y52000D01*
X150650Y55175D02*
Y58350D01*
X153825D01*
X157000Y55175D01*
X160175Y58350D01*
X163350D01*
Y55175D02*
Y58350D01*
X160175Y52000D02*
X163350Y55175D01*
X160175Y52000D02*
X163350Y48825D01*
Y45650D02*
Y48825D01*
X160175Y45650D02*
X163350D01*
X157000Y48825D02*
X160175Y45650D01*
X153825D02*
X157000Y48825D01*
X150650Y45650D02*
X153825D01*
X172650Y56650D02*
Y59825D01*
X175825Y63000D01*
X172650Y66175D02*
X175825Y63000D01*
X172650Y66175D02*
Y69350D01*
X175825D01*
X179000Y66175D01*
X182175Y69350D01*
X185350D01*
Y66175D02*
Y69350D01*
X182175Y63000D02*
X185350Y66175D01*
X182175Y63000D02*
X185350Y59825D01*
Y56650D02*
Y59825D01*
X182175Y56650D02*
X185350D01*
X179000Y59825D02*
X182175Y56650D01*
X175825D02*
X179000Y59825D01*
X172650Y56650D02*
X175825D01*
X161650D02*
Y59825D01*
X164825Y63000D01*
X161650Y66175D02*
X164825Y63000D01*
X161650Y66175D02*
Y69350D01*
X164825D01*
X168000Y66175D01*
X171175Y69350D01*
X174350D01*
Y66175D02*
Y69350D01*
X171175Y63000D02*
X174350Y66175D01*
X171175Y63000D02*
X174350Y59825D01*
Y56650D02*
Y59825D01*
X171175Y56650D02*
X174350D01*
X168000Y59825D02*
X171175Y56650D01*
X164825D02*
X168000Y59825D01*
X161650Y56650D02*
X164825D01*
X150650D02*
Y59825D01*
X153825Y63000D01*
X150650Y66175D02*
X153825Y63000D01*
X150650Y66175D02*
Y69350D01*
X153825D01*
X157000Y66175D01*
X160175Y69350D01*
X163350D01*
Y66175D02*
Y69350D01*
X160175Y63000D02*
X163350Y66175D01*
X160175Y63000D02*
X163350Y59825D01*
Y56650D02*
Y59825D01*
X160175Y56650D02*
X163350D01*
X157000Y59825D02*
X160175Y56650D01*
X153825D02*
X157000Y59825D01*
X150650Y56650D02*
X153825D01*
X172650Y67650D02*
Y70825D01*
X175825Y74000D01*
X172650Y77175D02*
X175825Y74000D01*
X172650Y77175D02*
Y80350D01*
X175825D01*
X179000Y77175D01*
X182175Y80350D01*
X185350D01*
Y77175D02*
Y80350D01*
X182175Y74000D02*
X185350Y77175D01*
X182175Y74000D02*
X185350Y70825D01*
Y67650D02*
Y70825D01*
X182175Y67650D02*
X185350D01*
X179000Y70825D02*
X182175Y67650D01*
X175825D02*
X179000Y70825D01*
X172650Y67650D02*
X175825D01*
X161650D02*
Y70825D01*
X164825Y74000D01*
X161650Y77175D02*
X164825Y74000D01*
X161650Y77175D02*
Y80350D01*
X164825D01*
X168000Y77175D01*
X171175Y80350D01*
X174350D01*
Y77175D02*
Y80350D01*
X171175Y74000D02*
X174350Y77175D01*
X171175Y74000D02*
X174350Y70825D01*
Y67650D02*
Y70825D01*
X171175Y67650D02*
X174350D01*
X168000Y70825D02*
X171175Y67650D01*
X164825D02*
X168000Y70825D01*
X161650Y67650D02*
X164825D01*
X150650D02*
Y70825D01*
X153825Y74000D01*
X150650Y77175D02*
X153825Y74000D01*
X150650Y77175D02*
Y80350D01*
X153825D01*
X157000Y77175D01*
X160175Y80350D01*
X163350D01*
Y77175D02*
Y80350D01*
X160175Y74000D02*
X163350Y77175D01*
X160175Y74000D02*
X163350Y70825D01*
Y67650D02*
Y70825D01*
X160175Y67650D02*
X163350D01*
X157000Y70825D02*
X160175Y67650D01*
X153825D02*
X157000Y70825D01*
X150650Y67650D02*
X153825D01*
X412650Y76650D02*
Y79825D01*
X415825Y83000D01*
X412650Y86175D02*
X415825Y83000D01*
X412650Y86175D02*
Y89350D01*
X415825D01*
X419000Y86175D01*
X422175Y89350D01*
X425350D01*
Y86175D02*
Y89350D01*
X422175Y83000D02*
X425350Y86175D01*
X422175Y83000D02*
X425350Y79825D01*
Y76650D02*
Y79825D01*
X422175Y76650D02*
X425350D01*
X419000Y79825D02*
X422175Y76650D01*
X415825D02*
X419000Y79825D01*
X412650Y76650D02*
X415825D01*
X460650D02*
Y79825D01*
X463825Y83000D01*
X460650Y86175D02*
X463825Y83000D01*
X460650Y86175D02*
Y89350D01*
X463825D01*
X467000Y86175D01*
X470175Y89350D01*
X473350D01*
Y86175D02*
Y89350D01*
X470175Y83000D02*
X473350Y86175D01*
X470175Y83000D02*
X473350Y79825D01*
Y76650D02*
Y79825D01*
X470175Y76650D02*
X473350D01*
X467000Y79825D02*
X470175Y76650D01*
X463825D02*
X467000Y79825D01*
X460650Y76650D02*
X463825D01*
X134650Y28650D02*
Y31825D01*
X137825Y35000D01*
X134650Y38175D02*
X137825Y35000D01*
X134650Y38175D02*
Y41350D01*
X137825D01*
X141000Y38175D01*
X144175Y41350D01*
X147350D01*
Y38175D02*
Y41350D01*
X144175Y35000D02*
X147350Y38175D01*
X144175Y35000D02*
X147350Y31825D01*
Y28650D02*
Y31825D01*
X144175Y28650D02*
X147350D01*
X141000Y31825D02*
X144175Y28650D01*
X137825D02*
X141000Y31825D01*
X134650Y28650D02*
X137825D01*
X257650Y28650D02*
Y31825D01*
X260825Y35000D01*
X257650Y38175D02*
X260825Y35000D01*
X257650Y38175D02*
Y41350D01*
X260825D01*
X264000Y38175D01*
X267175Y41350D01*
X270350D01*
Y38175D02*
Y41350D01*
X267175Y35000D02*
X270350Y38175D01*
X267175Y35000D02*
X270350Y31825D01*
Y28650D02*
Y31825D01*
X267175Y28650D02*
X270350D01*
X264000Y31825D02*
X267175Y28650D01*
X260825D02*
X264000Y31825D01*
X257650Y28650D02*
X260825D01*
X96150Y40750D02*
Y43925D01*
X99325Y47100D01*
X96150Y50275D02*
X99325Y47100D01*
X96150Y50275D02*
Y53450D01*
X99325D01*
X102500Y50275D01*
X105675Y53450D01*
X108850D01*
Y50275D02*
Y53450D01*
X105675Y47100D02*
X108850Y50275D01*
X105675Y47100D02*
X108850Y43925D01*
Y40750D02*
Y43925D01*
X105675Y40750D02*
X108850D01*
X102500Y43925D02*
X105675Y40750D01*
X99325D02*
X102500Y43925D01*
X96150Y40750D02*
X99325D01*
X192650Y28650D02*
Y31825D01*
X195825Y35000D01*
X192650Y38175D02*
X195825Y35000D01*
X192650Y38175D02*
Y41350D01*
X195825D01*
X199000Y38175D01*
X202175Y41350D01*
X205350D01*
Y38175D02*
Y41350D01*
X202175Y35000D02*
X205350Y38175D01*
X202175Y35000D02*
X205350Y31825D01*
Y28650D02*
Y31825D01*
X202175Y28650D02*
X205350D01*
X199000Y31825D02*
X202175Y28650D01*
X195825D02*
X199000Y31825D01*
X192650Y28650D02*
X195825D01*
X223050Y53650D02*
Y56825D01*
X226225Y60000D01*
X223050Y63175D02*
X226225Y60000D01*
X223050Y63175D02*
Y66350D01*
X226225D01*
X229400Y63175D01*
X232575Y66350D01*
X235750D01*
Y63175D02*
Y66350D01*
X232575Y60000D02*
X235750Y63175D01*
X232575Y60000D02*
X235750Y56825D01*
Y53650D02*
Y56825D01*
X232575Y53650D02*
X235750D01*
X229400Y56825D02*
X232575Y53650D01*
X226225D02*
X229400Y56825D01*
X223050Y53650D02*
X226225D01*
X234650Y30650D02*
Y33825D01*
X237825Y37000D01*
X234650Y40175D02*
X237825Y37000D01*
X234650Y40175D02*
Y43350D01*
X237825D01*
X241000Y40175D01*
X244175Y43350D01*
X247350D01*
Y40175D02*
Y43350D01*
X244175Y37000D02*
X247350Y40175D01*
X244175Y37000D02*
X247350Y33825D01*
Y30650D02*
Y33825D01*
X244175Y30650D02*
X247350D01*
X241000Y33825D02*
X244175Y30650D01*
X237825D02*
X241000Y33825D01*
X234650Y30650D02*
X237825D01*
X167650Y2650D02*
Y5825D01*
X170825Y9000D01*
X167650Y12175D02*
X170825Y9000D01*
X167650Y12175D02*
Y15350D01*
X170825D01*
X174000Y12175D01*
X177175Y15350D01*
X180350D01*
Y12175D02*
Y15350D01*
X177175Y9000D02*
X180350Y12175D01*
X177175Y9000D02*
X180350Y5825D01*
Y2650D02*
Y5825D01*
X177175Y2650D02*
X180350D01*
X174000Y5825D02*
X177175Y2650D01*
X170825D02*
X174000Y5825D01*
X167650Y2650D02*
X170825D01*
X114650Y113550D02*
Y116725D01*
X117825Y119900D01*
X114650Y123075D02*
X117825Y119900D01*
X114650Y123075D02*
Y126250D01*
X117825D01*
X121000Y123075D01*
X124175Y126250D01*
X127350D01*
Y123075D02*
Y126250D01*
X124175Y119900D02*
X127350Y123075D01*
X124175Y119900D02*
X127350Y116725D01*
Y113550D02*
Y116725D01*
X124175Y113550D02*
X127350D01*
X121000Y116725D02*
X124175Y113550D01*
X117825D02*
X121000Y116725D01*
X114650Y113550D02*
X117825D01*
X137650Y102650D02*
Y105825D01*
X140825Y109000D01*
X137650Y112175D02*
X140825Y109000D01*
X137650Y112175D02*
Y115350D01*
X140825D01*
X144000Y112175D01*
X147175Y115350D01*
X150350D01*
Y112175D02*
Y115350D01*
X147175Y109000D02*
X150350Y112175D01*
X147175Y109000D02*
X150350Y105825D01*
Y102650D02*
Y105825D01*
X147175Y102650D02*
X150350D01*
X144000Y105825D02*
X147175Y102650D01*
X140825D02*
X144000Y105825D01*
X137650Y102650D02*
X140825D01*
X156600Y125600D02*
Y128775D01*
X159775Y131950D01*
X156600Y135125D02*
X159775Y131950D01*
X156600Y135125D02*
Y138300D01*
X159775D01*
X162950Y135125D01*
X166125Y138300D01*
X169300D01*
Y135125D02*
Y138300D01*
X166125Y131950D02*
X169300Y135125D01*
X166125Y131950D02*
X169300Y128775D01*
Y125600D02*
Y128775D01*
X166125Y125600D02*
X169300D01*
X162950Y128775D02*
X166125Y125600D01*
X159775D02*
X162950Y128775D01*
X156600Y125600D02*
X159775D01*
X435650Y124650D02*
Y127825D01*
X438825Y131000D01*
X435650Y134175D02*
X438825Y131000D01*
X435650Y134175D02*
Y137350D01*
X438825D01*
X442000Y134175D01*
X445175Y137350D01*
X448350D01*
Y134175D02*
Y137350D01*
X445175Y131000D02*
X448350Y134175D01*
X445175Y131000D02*
X448350Y127825D01*
Y124650D02*
Y127825D01*
X445175Y124650D02*
X448350D01*
X442000Y127825D02*
X445175Y124650D01*
X438825D02*
X442000Y127825D01*
X435650Y124650D02*
X438825D01*
X401650Y109650D02*
Y112825D01*
X404825Y116000D01*
X401650Y119175D02*
X404825Y116000D01*
X401650Y119175D02*
Y122350D01*
X404825D01*
X408000Y119175D01*
X411175Y122350D01*
X414350D01*
Y119175D02*
Y122350D01*
X411175Y116000D02*
X414350Y119175D01*
X411175Y116000D02*
X414350Y112825D01*
Y109650D02*
Y112825D01*
X411175Y109650D02*
X414350D01*
X408000Y112825D02*
X411175Y109650D01*
X404825D02*
X408000Y112825D01*
X401650Y109650D02*
X404825D01*
X367650Y107650D02*
Y110825D01*
X370825Y114000D01*
X367650Y117175D02*
X370825Y114000D01*
X367650Y117175D02*
Y120350D01*
X370825D01*
X374000Y117175D01*
X377175Y120350D01*
X380350D01*
Y117175D02*
Y120350D01*
X377175Y114000D02*
X380350Y117175D01*
X377175Y114000D02*
X380350Y110825D01*
Y107650D02*
Y110825D01*
X377175Y107650D02*
X380350D01*
X374000Y110825D02*
X377175Y107650D01*
X370825D02*
X374000Y110825D01*
X367650Y107650D02*
X370825D01*
X256650Y140650D02*
Y143825D01*
X259825Y147000D01*
X256650Y150175D02*
X259825Y147000D01*
X256650Y150175D02*
Y153350D01*
X259825D01*
X263000Y150175D01*
X266175Y153350D01*
X269350D01*
Y150175D02*
Y153350D01*
X266175Y147000D02*
X269350Y150175D01*
X266175Y147000D02*
X269350Y143825D01*
Y140650D02*
Y143825D01*
X266175Y140650D02*
X269350D01*
X263000Y143825D02*
X266175Y140650D01*
X259825D02*
X263000Y143825D01*
X256650Y140650D02*
X259825D01*
X195650Y125650D02*
Y128825D01*
X198825Y132000D01*
X195650Y135175D02*
X198825Y132000D01*
X195650Y135175D02*
Y138350D01*
X198825D01*
X202000Y135175D01*
X205175Y138350D01*
X208350D01*
Y135175D02*
Y138350D01*
X205175Y132000D02*
X208350Y135175D01*
X205175Y132000D02*
X208350Y128825D01*
Y125650D02*
Y128825D01*
X205175Y125650D02*
X208350D01*
X202000Y128825D02*
X205175Y125650D01*
X198825D02*
X202000Y128825D01*
X195650Y125650D02*
X198825D01*
X185650Y118650D02*
Y121825D01*
X188825Y125000D01*
X185650Y128175D02*
X188825Y125000D01*
X185650Y128175D02*
Y131350D01*
X188825D01*
X192000Y128175D01*
X195175Y131350D01*
X198350D01*
Y128175D02*
Y131350D01*
X195175Y125000D02*
X198350Y128175D01*
X195175Y125000D02*
X198350Y121825D01*
Y118650D02*
Y121825D01*
X195175Y118650D02*
X198350D01*
X192000Y121825D02*
X195175Y118650D01*
X188825D02*
X192000Y121825D01*
X185650Y118650D02*
X188825D01*
X237650Y130650D02*
Y133825D01*
X240825Y137000D01*
X237650Y140175D02*
X240825Y137000D01*
X237650Y140175D02*
Y143350D01*
X240825D01*
X244000Y140175D01*
X247175Y143350D01*
X250350D01*
Y140175D02*
Y143350D01*
X247175Y137000D02*
X250350Y140175D01*
X247175Y137000D02*
X250350Y133825D01*
Y130650D02*
Y133825D01*
X247175Y130650D02*
X250350D01*
X244000Y133825D02*
X247175Y130650D01*
X240825D02*
X244000Y133825D01*
X237650Y130650D02*
X240825D01*
X96150Y56550D02*
Y59725D01*
X99325Y62900D01*
X96150Y66075D02*
X99325Y62900D01*
X96150Y66075D02*
Y69250D01*
X99325D01*
X102500Y66075D01*
X105675Y69250D01*
X108850D01*
Y66075D02*
Y69250D01*
X105675Y62900D02*
X108850Y66075D01*
X105675Y62900D02*
X108850Y59725D01*
Y56550D02*
Y59725D01*
X105675Y56550D02*
X108850D01*
X102500Y59725D02*
X105675Y56550D01*
X99325D02*
X102500Y59725D01*
X96150Y56550D02*
X99325D01*
X69650Y89650D02*
Y92825D01*
X72825Y96000D01*
X69650Y99175D02*
X72825Y96000D01*
X69650Y99175D02*
Y102350D01*
X72825D01*
X76000Y99175D01*
X79175Y102350D01*
X82350D01*
Y99175D02*
Y102350D01*
X79175Y96000D02*
X82350Y99175D01*
X79175Y96000D02*
X82350Y92825D01*
Y89650D02*
Y92825D01*
X79175Y89650D02*
X82350D01*
X76000Y92825D02*
X79175Y89650D01*
X72825D02*
X76000Y92825D01*
X69650Y89650D02*
X72825D01*
X95191D02*
Y92825D01*
X98366Y96000D01*
X95191Y99175D02*
X98366Y96000D01*
X95191Y99175D02*
Y102350D01*
X98366D01*
X101541Y99175D01*
X104716Y102350D01*
X107891D01*
Y99175D02*
Y102350D01*
X104716Y96000D02*
X107891Y99175D01*
X104716Y96000D02*
X107891Y92825D01*
Y89650D02*
Y92825D01*
X104716Y89650D02*
X107891D01*
X101541Y92825D02*
X104716Y89650D01*
X98366D02*
X101541Y92825D01*
X95191Y89650D02*
X98366D01*
X91650Y105650D02*
Y108825D01*
X94825Y112000D01*
X91650Y115175D02*
X94825Y112000D01*
X91650Y115175D02*
Y118350D01*
X94825D01*
X98000Y115175D01*
X101175Y118350D01*
X104350D01*
Y115175D02*
Y118350D01*
X101175Y112000D02*
X104350Y115175D01*
X101175Y112000D02*
X104350Y108825D01*
Y105650D02*
Y108825D01*
X101175Y105650D02*
X104350D01*
X98000Y108825D02*
X101175Y105650D01*
X94825D02*
X98000Y108825D01*
X91650Y105650D02*
X94825D01*
X238650Y155650D02*
Y158825D01*
X241825Y162000D01*
X238650Y165175D02*
X241825Y162000D01*
X238650Y165175D02*
Y168350D01*
X241825D01*
X245000Y165175D01*
X248175Y168350D01*
X251350D01*
Y165175D02*
Y168350D01*
X248175Y162000D02*
X251350Y165175D01*
X248175Y162000D02*
X251350Y158825D01*
Y155650D02*
Y158825D01*
X248175Y155650D02*
X251350D01*
X245000Y158825D02*
X248175Y155650D01*
X241825D02*
X245000Y158825D01*
X238650Y155650D02*
X241825D01*
X205900Y181650D02*
Y184825D01*
X209075Y188000D01*
X205900Y191175D02*
X209075Y188000D01*
X205900Y191175D02*
Y194350D01*
X209075D01*
X212250Y191175D01*
X215425Y194350D01*
X218600D01*
Y191175D02*
Y194350D01*
X215425Y188000D02*
X218600Y191175D01*
X215425Y188000D02*
X218600Y184825D01*
Y181650D02*
Y184825D01*
X215425Y181650D02*
X218600D01*
X212250Y184825D02*
X215425Y181650D01*
X209075D02*
X212250Y184825D01*
X205900Y181650D02*
X209075D01*
X189275D02*
Y184825D01*
X192450Y188000D01*
X189275Y191175D02*
X192450Y188000D01*
X189275Y191175D02*
Y194350D01*
X192450D01*
X195625Y191175D01*
X198800Y194350D01*
X201975D01*
Y191175D02*
Y194350D01*
X198800Y188000D02*
X201975Y191175D01*
X198800Y188000D02*
X201975Y184825D01*
Y181650D02*
Y184825D01*
X198800Y181650D02*
X201975D01*
X195625Y184825D02*
X198800Y181650D01*
X192450D02*
X195625Y184825D01*
X189275Y181650D02*
X192450D01*
X172650Y146650D02*
Y149825D01*
X175825Y153000D01*
X172650Y156175D02*
X175825Y153000D01*
X172650Y156175D02*
Y159350D01*
X175825D01*
X179000Y156175D01*
X182175Y159350D01*
X185350D01*
Y156175D02*
Y159350D01*
X182175Y153000D02*
X185350Y156175D01*
X182175Y153000D02*
X185350Y149825D01*
Y146650D02*
Y149825D01*
X182175Y146650D02*
X185350D01*
X179000Y149825D02*
X182175Y146650D01*
X175825D02*
X179000Y149825D01*
X172650Y146650D02*
X175825D01*
X172650Y181650D02*
Y184825D01*
X175825Y188000D01*
X172650Y191175D02*
X175825Y188000D01*
X172650Y191175D02*
Y194350D01*
X175825D01*
X179000Y191175D01*
X182175Y194350D01*
X185350D01*
Y191175D02*
Y194350D01*
X182175Y188000D02*
X185350Y191175D01*
X182175Y188000D02*
X185350Y184825D01*
Y181650D02*
Y184825D01*
X182175Y181650D02*
X185350D01*
X179000Y184825D02*
X182175Y181650D01*
X175825D02*
X179000Y184825D01*
X172650Y181650D02*
X175825D01*
X222525D02*
Y184825D01*
X225700Y188000D01*
X222525Y191175D02*
X225700Y188000D01*
X222525Y191175D02*
Y194350D01*
X225700D01*
X228875Y191175D01*
X232050Y194350D01*
X235225D01*
Y191175D02*
Y194350D01*
X232050Y188000D02*
X235225Y191175D01*
X232050Y188000D02*
X235225Y184825D01*
Y181650D02*
Y184825D01*
X232050Y181650D02*
X235225D01*
X228875Y184825D02*
X232050Y181650D01*
X225700D02*
X228875Y184825D01*
X222525Y181650D02*
X225700D01*
X239150D02*
Y184825D01*
X242325Y188000D01*
X239150Y191175D02*
X242325Y188000D01*
X239150Y191175D02*
Y194350D01*
X242325D01*
X245500Y191175D01*
X248675Y194350D01*
X251850D01*
Y191175D02*
Y194350D01*
X248675Y188000D02*
X251850Y191175D01*
X248675Y188000D02*
X251850Y184825D01*
Y181650D02*
Y184825D01*
X248675Y181650D02*
X251850D01*
X245500Y184825D02*
X248675Y181650D01*
X242325D02*
X245500Y184825D01*
X239150Y181650D02*
X242325D01*
X196421Y146650D02*
Y149825D01*
X199596Y153000D01*
X196421Y156175D02*
X199596Y153000D01*
X196421Y156175D02*
Y159350D01*
X199596D01*
X202771Y156175D01*
X205946Y159350D01*
X209121D01*
Y156175D02*
Y159350D01*
X205946Y153000D02*
X209121Y156175D01*
X205946Y153000D02*
X209121Y149825D01*
Y146650D02*
Y149825D01*
X205946Y146650D02*
X209121D01*
X202771Y149825D02*
X205946Y146650D01*
X199596D02*
X202771Y149825D01*
X196421Y146650D02*
X199596D01*
X222025Y155650D02*
Y158825D01*
X225200Y162000D01*
X222025Y165175D02*
X225200Y162000D01*
X222025Y165175D02*
Y168350D01*
X225200D01*
X228375Y165175D01*
X231550Y168350D01*
X234725D01*
Y165175D02*
Y168350D01*
X231550Y162000D02*
X234725Y165175D01*
X231550Y162000D02*
X234725Y158825D01*
Y155650D02*
Y158825D01*
X231550Y155650D02*
X234725D01*
X228375Y158825D02*
X231550Y155650D01*
X225200D02*
X228375Y158825D01*
X222025Y155650D02*
X225200D01*
X325025Y103650D02*
Y106825D01*
X328200Y110000D01*
X325025Y113175D02*
X328200Y110000D01*
X325025Y113175D02*
Y116350D01*
X328200D01*
X331375Y113175D01*
X334550Y116350D01*
X337725D01*
Y113175D02*
Y116350D01*
X334550Y110000D02*
X337725Y113175D01*
X334550Y110000D02*
X337725Y106825D01*
Y103650D02*
Y106825D01*
X334550Y103650D02*
X337725D01*
X331375Y106825D02*
X334550Y103650D01*
X328200D02*
X331375Y106825D01*
X325025Y103650D02*
X328200D01*
X393450Y22825D02*
X396625D01*
X393450D02*
Y29175D01*
X396625D01*
Y32350D01*
X402975D01*
Y29175D02*
Y32350D01*
Y29175D02*
X406150D01*
Y22825D02*
Y29175D01*
X402975Y22825D02*
X406150D01*
X402975Y19650D02*
Y22825D01*
X396625Y19650D02*
X402975D01*
X396625D02*
Y22825D01*
X479850D02*
X483025D01*
X479850D02*
Y29175D01*
X483025D01*
Y32350D01*
X489375D01*
Y29175D02*
Y32350D01*
Y29175D02*
X492550D01*
Y22825D02*
Y29175D01*
X489375Y22825D02*
X492550D01*
X489375Y19650D02*
Y22825D01*
X483025Y19650D02*
X489375D01*
X483025D02*
Y22825D01*
X393450Y61450D02*
X399800Y64625D01*
X406150Y61450D01*
X402975Y67800D02*
X406150Y61450D01*
X402975Y67800D02*
X406150Y74150D01*
X399800Y70975D02*
X406150Y74150D01*
X393450D02*
X399800Y70975D01*
X393450Y74150D02*
X396625Y67800D01*
X393450Y61450D02*
X396625Y67800D01*
X479850Y61450D02*
X486200Y64625D01*
X492550Y61450D01*
X489375Y67800D02*
X492550Y61450D01*
X489375Y67800D02*
X492550Y74150D01*
X486200Y70975D02*
X492550Y74150D01*
X479850D02*
X486200Y70975D01*
X479850Y74150D02*
X483025Y67800D01*
X479850Y61450D02*
X483025Y67800D01*
X468725Y59625D02*
X471900Y56450D01*
X465550Y59625D02*
X468725D01*
X465550D02*
X468725Y62800D01*
X465550Y65975D02*
X468725Y62800D01*
X465550Y65975D02*
X468725D01*
X471900Y69150D01*
X475075Y65975D01*
X478250D01*
X475075Y62800D02*
X478250Y65975D01*
X475075Y62800D02*
X478250Y59625D01*
X475075D02*
X478250D01*
X471900Y56450D02*
X475075Y59625D01*
X410925D02*
X414100Y56450D01*
X407750Y59625D02*
X410925D01*
X407750D02*
X410925Y62800D01*
X407750Y65975D02*
X410925Y62800D01*
X407750Y65975D02*
X410925D01*
X414100Y69150D01*
X417275Y65975D01*
X420450D01*
X417275Y62800D02*
X420450Y65975D01*
X417275Y62800D02*
X420450Y59625D01*
X417275D02*
X420450D01*
X414100Y56450D02*
X417275Y59625D01*
X36650Y146650D02*
X49350D01*
Y159350D01*
X36650D02*
X49350D01*
X36650Y146650D02*
Y159350D01*
X324650Y41650D02*
X337350D01*
Y54350D01*
X324650D02*
X337350D01*
X324650Y41650D02*
Y54350D01*
X165100Y163749D02*
X171450Y176449D01*
X158750D02*
X171450D01*
X158750D02*
X165100Y163749D01*
X177800D02*
X184150Y176449D01*
X171450D02*
X184150D01*
X171450D02*
X177800Y163749D01*
X152400D02*
X158750Y176449D01*
X146050D02*
X158750D01*
X146050D02*
X152400Y163749D01*
D69*
X624063Y-3990D02*
X1666715D01*
X624063Y-270690D02*
X1666715D01*
X624063Y-308790D02*
X1666715D01*
Y34110D01*
X624063D02*
X1666715D01*
X624063Y-308790D02*
Y34110D01*
X1505464Y-308790D02*
Y34110D01*
X1319078Y-308790D02*
Y34110D01*
X1190585Y-308790D02*
Y34110D01*
X901110Y-308790D02*
Y34110D01*
X763985Y-308790D02*
Y34110D01*
X627642Y414398D02*
X1780498D01*
X627642Y444878D02*
X1780498D01*
X627642Y79118D02*
Y444878D01*
Y79118D02*
X731760D01*
X627642Y109598D02*
X731760D01*
X627642Y140078D02*
X731760D01*
X627642Y170558D02*
X731760D01*
X627642Y201038D02*
X731760D01*
X627642Y231518D02*
X731760D01*
X627642Y261998D02*
X731760D01*
X627642Y292478D02*
X731760D01*
X627642Y322958D02*
X731760D01*
X627642Y353438D02*
X731760D01*
X627642Y383918D02*
X731760D01*
Y79118D02*
Y444878D01*
Y79118D02*
X967915D01*
X731760Y109598D02*
X967915D01*
X731760Y140078D02*
X967915D01*
X731760Y170558D02*
X967915D01*
X731760Y201038D02*
X967915D01*
X731760Y231518D02*
X967915D01*
X731760Y261998D02*
X967915D01*
X731760Y292478D02*
X967915D01*
X731760Y322958D02*
X967915D01*
X731760Y353438D02*
X967915D01*
X731760Y383918D02*
X967915D01*
Y79118D02*
Y444878D01*
Y79118D02*
X1186296D01*
X967915Y109598D02*
X1186296D01*
X967915Y140078D02*
X1186296D01*
X967915Y170558D02*
X1186296D01*
X967915Y201038D02*
X1186296D01*
X967915Y231518D02*
X1186296D01*
X967915Y261998D02*
X1186296D01*
X967915Y292478D02*
X1186296D01*
X967915Y322958D02*
X1186296D01*
X967915Y353438D02*
X1186296D01*
X967915Y383918D02*
X1186296D01*
Y79118D02*
Y444878D01*
Y79118D02*
X1351354D01*
X1186296Y109598D02*
X1351354D01*
X1186296Y140078D02*
X1351354D01*
X1186296Y170558D02*
X1351354D01*
X1186296Y201038D02*
X1351354D01*
X1186296Y231518D02*
X1351354D01*
X1186296Y261998D02*
X1351354D01*
X1186296Y292478D02*
X1351354D01*
X1186296Y322958D02*
X1351354D01*
X1186296Y353438D02*
X1351354D01*
X1186296Y383918D02*
X1351354D01*
Y79118D02*
Y444878D01*
Y79118D02*
X1496099D01*
X1351354Y109598D02*
X1496099D01*
X1351354Y140078D02*
X1496099D01*
X1351354Y170558D02*
X1496099D01*
X1351354Y201038D02*
X1496099D01*
X1351354Y231518D02*
X1496099D01*
X1351354Y261998D02*
X1496099D01*
X1351354Y292478D02*
X1496099D01*
X1351354Y322958D02*
X1496099D01*
X1351354Y353438D02*
X1496099D01*
X1351354Y383918D02*
X1496099D01*
Y79118D02*
Y444878D01*
Y79118D02*
X1780498D01*
X1496099Y109598D02*
X1780498D01*
X1496099Y140078D02*
X1780498D01*
X1496099Y170558D02*
X1780498D01*
X1496099Y201038D02*
X1780498D01*
X1496099Y231518D02*
X1780498D01*
X1496099Y261998D02*
X1780498D01*
X1496099Y292478D02*
X1780498D01*
X1496099Y322958D02*
X1780498D01*
X1496099Y353438D02*
X1780498D01*
X1496099Y383918D02*
X1780498D01*
Y79118D02*
Y444878D01*
D70*
X1765258Y79118D02*
X1780498Y94358D01*
X1750018Y79118D02*
X1780498Y109598D01*
X1734778Y79118D02*
X1765258Y109598D01*
X1719538Y79118D02*
X1750018Y109598D01*
X1704298Y79118D02*
X1734778Y109598D01*
X1689058Y79118D02*
X1719538Y109598D01*
X1673818Y79118D02*
X1704298Y109598D01*
X1658578Y79118D02*
X1689058Y109598D01*
X1643338Y79118D02*
X1673818Y109598D01*
X1628098Y79118D02*
X1658578Y109598D01*
X1612858Y79118D02*
X1643338Y109598D01*
X1597618Y79118D02*
X1628098Y109598D01*
X1582378Y79118D02*
X1612858Y109598D01*
X1567138Y79118D02*
X1597618Y109598D01*
X1551898Y79118D02*
X1582378Y109598D01*
X1536658Y79118D02*
X1567138Y109598D01*
X1521418Y79118D02*
X1551898Y109598D01*
X1506178Y79118D02*
X1536658Y109598D01*
X1496099Y84279D02*
X1521418Y109598D01*
X1496099Y99519D02*
X1506178Y109598D01*
X1765258D02*
X1780498Y124838D01*
X1750018Y109598D02*
X1780498Y140078D01*
X1734778Y109598D02*
X1765258Y140078D01*
X1719538Y109598D02*
X1750018Y140078D01*
X1704298Y109598D02*
X1734778Y140078D01*
X1689058Y109598D02*
X1719538Y140078D01*
X1673818Y109598D02*
X1704298Y140078D01*
X1658578Y109598D02*
X1689058Y140078D01*
X1643338Y109598D02*
X1673818Y140078D01*
X1628098Y109598D02*
X1658578Y140078D01*
X1612858Y109598D02*
X1643338Y140078D01*
X1597618Y109598D02*
X1628098Y140078D01*
X1582378Y109598D02*
X1612858Y140078D01*
X1567138Y109598D02*
X1597618Y140078D01*
X1551898Y109598D02*
X1582378Y140078D01*
X1536658Y109598D02*
X1567138Y140078D01*
X1521418Y109598D02*
X1551898Y140078D01*
X1506178Y109598D02*
X1536658Y140078D01*
X1496099Y114759D02*
X1521418Y140078D01*
X1496099Y129999D02*
X1506178Y140078D01*
X1765258D02*
X1780498Y155318D01*
X1750018Y140078D02*
X1780498Y170558D01*
X1734778Y140078D02*
X1765258Y170558D01*
X1719538Y140078D02*
X1750018Y170558D01*
X1704298Y140078D02*
X1734778Y170558D01*
X1689058Y140078D02*
X1719538Y170558D01*
X1673818Y140078D02*
X1704298Y170558D01*
X1658578Y140078D02*
X1689058Y170558D01*
X1643338Y140078D02*
X1673818Y170558D01*
X1628098Y140078D02*
X1658578Y170558D01*
X1612858Y140078D02*
X1643338Y170558D01*
X1597618Y140078D02*
X1628098Y170558D01*
X1582378Y140078D02*
X1612858Y170558D01*
X1567138Y140078D02*
X1597618Y170558D01*
X1551898Y140078D02*
X1582378Y170558D01*
X1536658Y140078D02*
X1567138Y170558D01*
X1521418Y140078D02*
X1551898Y170558D01*
X1506178Y140078D02*
X1536658Y170558D01*
X1496099Y145239D02*
X1521418Y170558D01*
X1496099Y160479D02*
X1506178Y170558D01*
X1765258D02*
X1780498Y185798D01*
X1750018Y170558D02*
X1780498Y201038D01*
X1734778Y170558D02*
X1765258Y201038D01*
X1719538Y170558D02*
X1750018Y201038D01*
X1704298Y170558D02*
X1734778Y201038D01*
X1689058Y170558D02*
X1719538Y201038D01*
X1673818Y170558D02*
X1704298Y201038D01*
X1658578Y170558D02*
X1689058Y201038D01*
X1643338Y170558D02*
X1673818Y201038D01*
X1628098Y170558D02*
X1658578Y201038D01*
X1612858Y170558D02*
X1643338Y201038D01*
X1597618Y170558D02*
X1628098Y201038D01*
X1582378Y170558D02*
X1612858Y201038D01*
X1567138Y170558D02*
X1597618Y201038D01*
X1551898Y170558D02*
X1582378Y201038D01*
X1536658Y170558D02*
X1567138Y201038D01*
X1521418Y170558D02*
X1551898Y201038D01*
X1506178Y170558D02*
X1536658Y201038D01*
X1496099Y175719D02*
X1521418Y201038D01*
X1496099Y190959D02*
X1506178Y201038D01*
X1765258D02*
X1780498Y216278D01*
X1750018Y201038D02*
X1780498Y231518D01*
X1734778Y201038D02*
X1765258Y231518D01*
X1719538Y201038D02*
X1750018Y231518D01*
X1704298Y201038D02*
X1734778Y231518D01*
X1689058Y201038D02*
X1719538Y231518D01*
X1673818Y201038D02*
X1704298Y231518D01*
X1658578Y201038D02*
X1689058Y231518D01*
X1643338Y201038D02*
X1673818Y231518D01*
X1628098Y201038D02*
X1658578Y231518D01*
X1612858Y201038D02*
X1643338Y231518D01*
X1597618Y201038D02*
X1628098Y231518D01*
X1582378Y201038D02*
X1612858Y231518D01*
X1567138Y201038D02*
X1597618Y231518D01*
X1551898Y201038D02*
X1582378Y231518D01*
X1536658Y201038D02*
X1567138Y231518D01*
X1521418Y201038D02*
X1551898Y231518D01*
X1506178Y201038D02*
X1536658Y231518D01*
X1496099Y206199D02*
X1521418Y231518D01*
X1496099Y221439D02*
X1506178Y231518D01*
X1765258D02*
X1780498Y246758D01*
X1750018Y231518D02*
X1780498Y261998D01*
X1734778Y231518D02*
X1765258Y261998D01*
X1719538Y231518D02*
X1750018Y261998D01*
X1704298Y231518D02*
X1734778Y261998D01*
X1689058Y231518D02*
X1719538Y261998D01*
X1673818Y231518D02*
X1704298Y261998D01*
X1658578Y231518D02*
X1689058Y261998D01*
X1643338Y231518D02*
X1673818Y261998D01*
X1628098Y231518D02*
X1658578Y261998D01*
X1612858Y231518D02*
X1643338Y261998D01*
X1597618Y231518D02*
X1628098Y261998D01*
X1582378Y231518D02*
X1612858Y261998D01*
X1567138Y231518D02*
X1597618Y261998D01*
X1551898Y231518D02*
X1582378Y261998D01*
X1536658Y231518D02*
X1567138Y261998D01*
X1521418Y231518D02*
X1551898Y261998D01*
X1506178Y231518D02*
X1536658Y261998D01*
X1496099Y236679D02*
X1521418Y261998D01*
X1496099Y251919D02*
X1506178Y261998D01*
X1765258D02*
X1780498Y277238D01*
X1750018Y261998D02*
X1780498Y292478D01*
X1734778Y261998D02*
X1765258Y292478D01*
X1719538Y261998D02*
X1750018Y292478D01*
X1704298Y261998D02*
X1734778Y292478D01*
X1689058Y261998D02*
X1719538Y292478D01*
X1673818Y261998D02*
X1704298Y292478D01*
X1658578Y261998D02*
X1689058Y292478D01*
X1643338Y261998D02*
X1673818Y292478D01*
X1628098Y261998D02*
X1658578Y292478D01*
X1612858Y261998D02*
X1643338Y292478D01*
X1597618Y261998D02*
X1628098Y292478D01*
X1582378Y261998D02*
X1612858Y292478D01*
X1567138Y261998D02*
X1597618Y292478D01*
X1551898Y261998D02*
X1582378Y292478D01*
X1536658Y261998D02*
X1567138Y292478D01*
X1521418Y261998D02*
X1551898Y292478D01*
X1506178Y261998D02*
X1536658Y292478D01*
X1496099Y267159D02*
X1521418Y292478D01*
X1496099Y282399D02*
X1506178Y292478D01*
X1765258D02*
X1780498Y307718D01*
X1750018Y292478D02*
X1780498Y322958D01*
X1734778Y292478D02*
X1765258Y322958D01*
X1719538Y292478D02*
X1750018Y322958D01*
X1704298Y292478D02*
X1734778Y322958D01*
X1689058Y292478D02*
X1719538Y322958D01*
X1673818Y292478D02*
X1704298Y322958D01*
X1658578Y292478D02*
X1689058Y322958D01*
X1643338Y292478D02*
X1673818Y322958D01*
X1628098Y292478D02*
X1658578Y322958D01*
X1612858Y292478D02*
X1643338Y322958D01*
X1597618Y292478D02*
X1628098Y322958D01*
X1582378Y292478D02*
X1612858Y322958D01*
X1567138Y292478D02*
X1597618Y322958D01*
X1551898Y292478D02*
X1582378Y322958D01*
X1536658Y292478D02*
X1567138Y322958D01*
X1521418Y292478D02*
X1551898Y322958D01*
X1506178Y292478D02*
X1536658Y322958D01*
X1496099Y297639D02*
X1521418Y322958D01*
X1496099Y312879D02*
X1506178Y322958D01*
X1765258D02*
X1780498Y338198D01*
X1750018Y322958D02*
X1780498Y353438D01*
X1734778Y322958D02*
X1765258Y353438D01*
X1719538Y322958D02*
X1750018Y353438D01*
X1704298Y322958D02*
X1734778Y353438D01*
X1689058Y322958D02*
X1719538Y353438D01*
X1673818Y322958D02*
X1704298Y353438D01*
X1658578Y322958D02*
X1689058Y353438D01*
X1643338Y322958D02*
X1673818Y353438D01*
X1628098Y322958D02*
X1658578Y353438D01*
X1612858Y322958D02*
X1643338Y353438D01*
X1597618Y322958D02*
X1628098Y353438D01*
X1582378Y322958D02*
X1612858Y353438D01*
X1567138Y322958D02*
X1597618Y353438D01*
X1551898Y322958D02*
X1582378Y353438D01*
X1536658Y322958D02*
X1567138Y353438D01*
X1521418Y322958D02*
X1551898Y353438D01*
X1506178Y322958D02*
X1536658Y353438D01*
X1496099Y328119D02*
X1521418Y353438D01*
X1496099Y343359D02*
X1506178Y353438D01*
X1765258D02*
X1780498Y368678D01*
X1750018Y353438D02*
X1780498Y383918D01*
X1734778Y353438D02*
X1765258Y383918D01*
X1719538Y353438D02*
X1750018Y383918D01*
X1704298Y353438D02*
X1734778Y383918D01*
X1689058Y353438D02*
X1719538Y383918D01*
X1673818Y353438D02*
X1704298Y383918D01*
X1658578Y353438D02*
X1689058Y383918D01*
X1643338Y353438D02*
X1673818Y383918D01*
X1628098Y353438D02*
X1658578Y383918D01*
X1612858Y353438D02*
X1643338Y383918D01*
X1597618Y353438D02*
X1628098Y383918D01*
X1582378Y353438D02*
X1612858Y383918D01*
X1567138Y353438D02*
X1597618Y383918D01*
X1551898Y353438D02*
X1582378Y383918D01*
X1536658Y353438D02*
X1567138Y383918D01*
X1521418Y353438D02*
X1551898Y383918D01*
X1506178Y353438D02*
X1536658Y383918D01*
X1496099Y358599D02*
X1521418Y383918D01*
X1496099Y373839D02*
X1506178Y383918D01*
X1765258D02*
X1780498Y399158D01*
X1750018Y383918D02*
X1780498Y414398D01*
X1734778Y383918D02*
X1765258Y414398D01*
X1719538Y383918D02*
X1750018Y414398D01*
X1704298Y383918D02*
X1734778Y414398D01*
X1689058Y383918D02*
X1719538Y414398D01*
X1673818Y383918D02*
X1704298Y414398D01*
X1658578Y383918D02*
X1689058Y414398D01*
X1643338Y383918D02*
X1673818Y414398D01*
X1628098Y383918D02*
X1658578Y414398D01*
X1612858Y383918D02*
X1643338Y414398D01*
X1597618Y383918D02*
X1628098Y414398D01*
X1582378Y383918D02*
X1612858Y414398D01*
X1567138Y383918D02*
X1597618Y414398D01*
X1551898Y383918D02*
X1582378Y414398D01*
X1536658Y383918D02*
X1567138Y414398D01*
X1521418Y383918D02*
X1551898Y414398D01*
X1506178Y383918D02*
X1536658Y414398D01*
X1496099Y389079D02*
X1521418Y414398D01*
X1496099Y404319D02*
X1506178Y414398D01*
D71*
X1516893Y25722D02*
Y13534D01*
X1522988Y7440D01*
X1529082Y13534D01*
Y25722D01*
X1535176Y7440D02*
X1541270D01*
X1538223D01*
Y19628D01*
X1535176D01*
X1553458D02*
X1559552D01*
X1562599Y16581D01*
Y7440D01*
X1553458D01*
X1550411Y10487D01*
X1553458Y13534D01*
X1562599D01*
X1568693Y7440D02*
X1580881Y19628D01*
X1586975Y7440D02*
Y25722D01*
X1596116D01*
X1599163Y22675D01*
Y16581D01*
X1596116Y13534D01*
X1586975D01*
X1608304Y19628D02*
X1614398D01*
X1617445Y16581D01*
Y7440D01*
X1608304D01*
X1605257Y10487D01*
X1608304Y13534D01*
X1617445D01*
X1635727Y25722D02*
Y7440D01*
X1626586D01*
X1623539Y10487D01*
Y16581D01*
X1626586Y19628D01*
X1635727D01*
X1330508Y25722D02*
Y7440D01*
Y16581D01*
X1342696D01*
Y25722D01*
Y7440D01*
X1351837D02*
X1357931D01*
X1360978Y10487D01*
Y16581D01*
X1357931Y19628D01*
X1351837D01*
X1348790Y16581D01*
Y10487D01*
X1351837Y7440D01*
X1367072D02*
X1373166D01*
X1370119D01*
Y25722D01*
X1367072D01*
X1391448Y7440D02*
X1385354D01*
X1382307Y10487D01*
Y16581D01*
X1385354Y19628D01*
X1391448D01*
X1394495Y16581D01*
Y13534D01*
X1382307D01*
X1418871Y25722D02*
X1431059D01*
X1424965D01*
Y7440D01*
X1437153Y19628D02*
Y10487D01*
X1440200Y7440D01*
X1449341D01*
Y4393D01*
X1446294Y1346D01*
X1443247D01*
X1449341Y7440D02*
Y19628D01*
X1455435Y1346D02*
Y19628D01*
X1464576D01*
X1467623Y16581D01*
Y10487D01*
X1464576Y7440D01*
X1455435D01*
X1482858D02*
X1476765D01*
X1473717Y10487D01*
Y16581D01*
X1476765Y19628D01*
X1482858D01*
X1485905Y16581D01*
Y13534D01*
X1473717D01*
X1202015Y7440D02*
Y25722D01*
X1211156D01*
X1214203Y22675D01*
Y16581D01*
X1211156Y13534D01*
X1202015D01*
X1220297Y7440D02*
X1226392D01*
X1223344D01*
Y25722D01*
X1220297D01*
X1238579Y19628D02*
X1244674D01*
X1247721Y16581D01*
Y7440D01*
X1238579D01*
X1235533Y10487D01*
X1238579Y13534D01*
X1247721D01*
X1256862Y22675D02*
Y19628D01*
X1253815D01*
X1259909D01*
X1256862D01*
Y10487D01*
X1259909Y7440D01*
X1278191D02*
X1272097D01*
X1269050Y10487D01*
Y16581D01*
X1272097Y19628D01*
X1278191D01*
X1281238Y16581D01*
Y13534D01*
X1269050D01*
X1299520Y25722D02*
Y7440D01*
X1290379D01*
X1287332Y10487D01*
Y16581D01*
X1290379Y19628D01*
X1299520D01*
X912540Y25722D02*
Y7440D01*
Y16581D01*
X924728D01*
Y25722D01*
Y7440D01*
X933869D02*
X939963D01*
X943010Y10487D01*
Y16581D01*
X939963Y19628D01*
X933869D01*
X930822Y16581D01*
Y10487D01*
X933869Y7440D01*
X949104D02*
X955198D01*
X952151D01*
Y25722D01*
X949104D01*
X973480Y7440D02*
X967386D01*
X964339Y10487D01*
Y16581D01*
X967386Y19628D01*
X973480D01*
X976527Y16581D01*
Y13534D01*
X964339D01*
X1013092Y22675D02*
X1010044Y25722D01*
X1003950D01*
X1000903Y22675D01*
Y19628D01*
X1003950Y16581D01*
X1010044D01*
X1013092Y13534D01*
Y10487D01*
X1010044Y7440D01*
X1003950D01*
X1000903Y10487D01*
X1019185Y7440D02*
X1025279D01*
X1022233D01*
Y19628D01*
X1019185D01*
X1034421D02*
X1046609D01*
X1034421Y7440D01*
X1046609D01*
X1061844D02*
X1055750D01*
X1052703Y10487D01*
Y16581D01*
X1055750Y19628D01*
X1061844D01*
X1064891Y16581D01*
Y13534D01*
X1052703D01*
X787603Y22675D02*
X784556Y25722D01*
X778462D01*
X775415Y22675D01*
Y10487D01*
X778462Y7440D01*
X784556D01*
X787603Y10487D01*
X796744Y7440D02*
X802839D01*
X805885Y10487D01*
Y16581D01*
X802839Y19628D01*
X796744D01*
X793697Y16581D01*
Y10487D01*
X796744Y7440D01*
X811980Y19628D02*
Y10487D01*
X815026Y7440D01*
X824168D01*
Y19628D01*
X830262Y7440D02*
Y19628D01*
X839403D01*
X842450Y16581D01*
Y7440D01*
X851591Y22675D02*
Y19628D01*
X848544D01*
X854638D01*
X851591D01*
Y10487D01*
X854638Y7440D01*
X659111Y22675D02*
X656064Y25722D01*
X649970D01*
X646923Y22675D01*
Y19628D01*
X649970Y16581D01*
X656064D01*
X659111Y13534D01*
Y10487D01*
X656064Y7440D01*
X649970D01*
X646923Y10487D01*
X665205Y19628D02*
Y10487D01*
X668252Y7440D01*
X677393D01*
Y4393D01*
X674346Y1346D01*
X671299D01*
X677393Y7440D02*
Y19628D01*
X683487Y7440D02*
Y19628D01*
X686534D01*
X689581Y16581D01*
Y7440D01*
Y16581D01*
X692628Y19628D01*
X695675Y16581D01*
Y7440D01*
X701769Y25722D02*
Y7440D01*
X710910D01*
X713957Y10487D01*
Y13534D01*
Y16581D01*
X710910Y19628D01*
X701769D01*
X723098Y7440D02*
X729192D01*
X732239Y10487D01*
Y16581D01*
X729192Y19628D01*
X723098D01*
X720051Y16581D01*
Y10487D01*
X723098Y7440D01*
X738333D02*
X744427D01*
X741380D01*
Y25722D01*
X738333D01*
D72*
X909226Y-344342D02*
Y-359577D01*
Y-351959D01*
X919383D01*
Y-344342D01*
Y-359577D01*
X927000D02*
X932079D01*
X934618Y-357038D01*
Y-351959D01*
X932079Y-349420D01*
X927000D01*
X924461Y-351959D01*
Y-357038D01*
X927000Y-359577D01*
X939696D02*
X944774D01*
X942235D01*
Y-344342D01*
X939696D01*
X960010Y-359577D02*
X954931D01*
X952392Y-357038D01*
Y-351959D01*
X954931Y-349420D01*
X960010D01*
X962549Y-351959D01*
Y-354498D01*
X952392D01*
X982862Y-344342D02*
Y-359577D01*
X993019D01*
X1005715D02*
X1000637D01*
X998097Y-357038D01*
Y-351959D01*
X1000637Y-349420D01*
X1005715D01*
X1008254Y-351959D01*
Y-354498D01*
X998097D01*
X1013332Y-359577D02*
Y-349420D01*
X1020950D01*
X1023489Y-351959D01*
Y-359577D01*
X1033646Y-364655D02*
X1036185D01*
X1038724Y-362116D01*
Y-349420D01*
X1031107D01*
X1028567Y-351959D01*
Y-357038D01*
X1031107Y-359577D01*
X1038724D01*
X1046342Y-346881D02*
Y-349420D01*
X1043802D01*
X1048881D01*
X1046342D01*
Y-357038D01*
X1048881Y-359577D01*
X1056498Y-344342D02*
Y-359577D01*
Y-351959D01*
X1059038Y-349420D01*
X1064116D01*
X1066655Y-351959D01*
Y-359577D01*
X909226Y-334183D02*
Y-318948D01*
X916844D01*
X919383Y-321488D01*
Y-326566D01*
X916844Y-329105D01*
X909226D01*
X914304D02*
X919383Y-334183D01*
X927000D02*
X932079D01*
X934618Y-331644D01*
Y-326566D01*
X932079Y-324027D01*
X927000D01*
X924461Y-326566D01*
Y-331644D01*
X927000Y-334183D01*
X939696Y-324027D02*
Y-331644D01*
X942235Y-334183D01*
X949853D01*
Y-324027D01*
X957470Y-321488D02*
Y-324027D01*
X954931D01*
X960010D01*
X957470D01*
Y-331644D01*
X960010Y-334183D01*
X975245D02*
X970166D01*
X967627Y-331644D01*
Y-326566D01*
X970166Y-324027D01*
X975245D01*
X977784Y-326566D01*
Y-329105D01*
X967627D01*
X993019Y-318948D02*
Y-334183D01*
X985401D01*
X982862Y-331644D01*
Y-326566D01*
X985401Y-324027D01*
X993019D01*
X1013332Y-334183D02*
Y-318948D01*
X1020950D01*
X1023489Y-321488D01*
Y-326566D01*
X1020950Y-329105D01*
X1013332D01*
X1031107Y-324027D02*
X1036185D01*
X1038724Y-326566D01*
Y-334183D01*
X1031107D01*
X1028567Y-331644D01*
X1031107Y-329105D01*
X1038724D01*
X1046342Y-321488D02*
Y-324027D01*
X1043802D01*
X1048881D01*
X1046342D01*
Y-331644D01*
X1048881Y-334183D01*
X1056498Y-318948D02*
Y-334183D01*
Y-326566D01*
X1059038Y-324027D01*
X1064116D01*
X1066655Y-326566D01*
Y-334183D01*
X1086969Y-318948D02*
Y-334183D01*
X1097125D01*
X1109821D02*
X1104743D01*
X1102204Y-331644D01*
Y-326566D01*
X1104743Y-324027D01*
X1109821D01*
X1112360Y-326566D01*
Y-329105D01*
X1102204D01*
X1117439Y-334183D02*
Y-324027D01*
X1125056D01*
X1127595Y-326566D01*
Y-334183D01*
X1137752Y-339262D02*
X1140291D01*
X1142831Y-336723D01*
Y-324027D01*
X1135213D01*
X1132674Y-326566D01*
Y-331644D01*
X1135213Y-334183D01*
X1142831D01*
X1150448Y-321488D02*
Y-324027D01*
X1147909D01*
X1152987D01*
X1150448D01*
Y-331644D01*
X1152987Y-334183D01*
X1160605Y-318948D02*
Y-334183D01*
Y-326566D01*
X1163144Y-324027D01*
X1168222D01*
X1170761Y-326566D01*
Y-334183D01*
X657080Y-321488D02*
X654540Y-318948D01*
X649462D01*
X646923Y-321488D01*
Y-324027D01*
X649462Y-326566D01*
X654540D01*
X657080Y-329105D01*
Y-331644D01*
X654540Y-334183D01*
X649462D01*
X646923Y-331644D01*
X662158Y-334183D02*
X667236D01*
X664697D01*
Y-318948D01*
X662158D01*
X677393Y-334183D02*
X682471D01*
X685011Y-331644D01*
Y-326566D01*
X682471Y-324027D01*
X677393D01*
X674854Y-326566D01*
Y-331644D01*
X677393Y-334183D01*
X692628Y-321488D02*
Y-324027D01*
X690089D01*
X695167D01*
X692628D01*
Y-331644D01*
X695167Y-334183D01*
X728177Y-318948D02*
Y-334183D01*
X720559D01*
X718020Y-331644D01*
Y-326566D01*
X720559Y-324027D01*
X728177D01*
X740872Y-334183D02*
X735794D01*
X733255Y-331644D01*
Y-326566D01*
X735794Y-324027D01*
X740872D01*
X743412Y-326566D01*
Y-329105D01*
X733255D01*
X751029Y-334183D02*
Y-321488D01*
Y-326566D01*
X748490D01*
X753568D01*
X751029D01*
Y-321488D01*
X753568Y-318948D01*
X761186Y-334183D02*
X766264D01*
X763725D01*
Y-324027D01*
X761186D01*
X773882Y-334183D02*
Y-324027D01*
X781499D01*
X784038Y-326566D01*
Y-334183D01*
X789117D02*
X794195D01*
X791656D01*
Y-324027D01*
X789117D01*
X804352Y-321488D02*
Y-324027D01*
X801813D01*
X806891D01*
X804352D01*
Y-331644D01*
X806891Y-334183D01*
X814509D02*
X819587D01*
X817048D01*
Y-324027D01*
X814509D01*
X829744Y-334183D02*
X834822D01*
X837361Y-331644D01*
Y-326566D01*
X834822Y-324027D01*
X829744D01*
X827205Y-326566D01*
Y-331644D01*
X829744Y-334183D01*
X842440D02*
Y-324027D01*
X850057D01*
X852596Y-326566D01*
Y-334183D01*
X857675D02*
X865292D01*
X867831Y-331644D01*
X865292Y-329105D01*
X860214D01*
X857675Y-326566D01*
X860214Y-324027D01*
X867831D01*
X888145D02*
X890684D01*
Y-326566D01*
X888145D01*
Y-324027D01*
Y-331644D02*
X890684D01*
Y-334183D01*
X888145D01*
Y-331644D01*
M02*
