G04*
G04 #@! TF.GenerationSoftware,Altium Limited,Altium Designer,24.3.1 (35)*
G04*
G04 Layer_Color=16711935*
%FSLAX44Y44*%
%MOMM*%
G71*
G04*
G04 #@! TF.SameCoordinates,098D5FB4-7C3B-420D-97F8-BA0D52642CD7*
G04*
G04*
G04 #@! TF.FilePolarity,Negative*
G04*
G01*
G75*
%ADD47C,0.8532*%
%ADD48O,1.2532X2.3032*%
%ADD49O,1.2032X2.2032*%
%ADD50R,1.7032X1.7032*%
%ADD51C,1.7032*%
%ADD52O,1.3112X2.4632*%
%ADD53C,0.2032*%
G36*
X496306Y-256997D02*
X496472Y-257011D01*
X496652Y-257025D01*
X496860Y-257039D01*
X497082Y-257080D01*
X497568Y-257164D01*
X498053Y-257288D01*
X498289Y-257372D01*
X498525Y-257469D01*
X498746Y-257593D01*
X498941Y-257718D01*
X498954Y-257732D01*
X498982Y-257746D01*
X499038Y-257801D01*
X499107Y-257857D01*
X499190Y-257926D01*
X499273Y-258023D01*
X499370Y-258148D01*
X499481Y-258273D01*
X499579Y-258426D01*
X499689Y-258592D01*
X499786Y-258786D01*
X499884Y-258994D01*
X499981Y-259216D01*
X500050Y-259452D01*
X500119Y-259715D01*
X500161Y-260007D01*
X497207Y-260173D01*
Y-260159D01*
Y-260145D01*
X497179Y-260062D01*
X497151Y-259937D01*
X497096Y-259799D01*
X497027Y-259632D01*
X496944Y-259466D01*
X496833Y-259313D01*
X496708Y-259188D01*
X496694Y-259174D01*
X496638Y-259133D01*
X496555Y-259091D01*
X496444Y-259022D01*
X496292Y-258966D01*
X496111Y-258925D01*
X495903Y-258883D01*
X495668Y-258869D01*
X495584D01*
X495487Y-258883D01*
X495363Y-258897D01*
X495224Y-258925D01*
X495099Y-258966D01*
X494960Y-259022D01*
X494849Y-259105D01*
X494836Y-259119D01*
X494808Y-259147D01*
X494766Y-259202D01*
X494725Y-259258D01*
X494669Y-259341D01*
X494627Y-259438D01*
X494600Y-259549D01*
X494586Y-259674D01*
Y-259688D01*
Y-259715D01*
X494600Y-259757D01*
X494614Y-259812D01*
X494641Y-259882D01*
X494683Y-259951D01*
X494738Y-260034D01*
X494808Y-260104D01*
X494822Y-260117D01*
X494849Y-260131D01*
X494919Y-260173D01*
X495016Y-260228D01*
X495154Y-260284D01*
X495335Y-260339D01*
X495570Y-260409D01*
X495695Y-260450D01*
X495848Y-260478D01*
X495876D01*
X495945Y-260492D01*
X496042Y-260520D01*
X496181Y-260547D01*
X496347Y-260589D01*
X496541Y-260644D01*
X496763Y-260700D01*
X496985Y-260755D01*
X497471Y-260894D01*
X497956Y-261047D01*
X498192Y-261130D01*
X498414Y-261213D01*
X498608Y-261296D01*
X498788Y-261380D01*
X498802D01*
X498830Y-261393D01*
X498871Y-261421D01*
X498927Y-261463D01*
X499093Y-261560D01*
X499287Y-261685D01*
X499495Y-261851D01*
X499703Y-262045D01*
X499911Y-262253D01*
X500078Y-262503D01*
Y-262517D01*
X500092Y-262531D01*
X500119Y-262572D01*
X500147Y-262614D01*
X500216Y-262752D01*
X500286Y-262933D01*
X500369Y-263155D01*
X500424Y-263404D01*
X500480Y-263682D01*
X500494Y-263987D01*
Y-264001D01*
Y-264028D01*
Y-264084D01*
X500480Y-264153D01*
Y-264236D01*
X500466Y-264347D01*
X500424Y-264583D01*
X500369Y-264860D01*
X500272Y-265166D01*
X500133Y-265471D01*
X499953Y-265790D01*
Y-265804D01*
X499925Y-265831D01*
X499897Y-265873D01*
X499856Y-265928D01*
X499731Y-266067D01*
X499565Y-266247D01*
X499343Y-266455D01*
X499093Y-266663D01*
X498788Y-266857D01*
X498441Y-267038D01*
X498427D01*
X498400Y-267052D01*
X498344Y-267079D01*
X498261Y-267107D01*
X498178Y-267135D01*
X498053Y-267163D01*
X497928Y-267204D01*
X497776Y-267246D01*
X497609Y-267288D01*
X497415Y-267315D01*
X497221Y-267357D01*
X496999Y-267384D01*
X496777Y-267412D01*
X496527Y-267440D01*
X496001Y-267454D01*
X495751D01*
X495584Y-267440D01*
X495376Y-267426D01*
X495127Y-267398D01*
X494863Y-267371D01*
X494586Y-267329D01*
X494295Y-267274D01*
X493989Y-267218D01*
X493698Y-267135D01*
X493407Y-267038D01*
X493130Y-266927D01*
X492866Y-266788D01*
X492630Y-266636D01*
X492422Y-266469D01*
X492408Y-266455D01*
X492381Y-266428D01*
X492325Y-266372D01*
X492270Y-266289D01*
X492187Y-266192D01*
X492103Y-266067D01*
X492006Y-265928D01*
X491909Y-265776D01*
X491812Y-265595D01*
X491715Y-265415D01*
X491632Y-265207D01*
X491535Y-264971D01*
X491465Y-264736D01*
X491396Y-264486D01*
X491341Y-264209D01*
X491313Y-263931D01*
X494295Y-263737D01*
Y-263751D01*
Y-263765D01*
X494309Y-263806D01*
Y-263862D01*
X494336Y-263987D01*
X494378Y-264153D01*
X494433Y-264333D01*
X494489Y-264514D01*
X494586Y-264694D01*
X494683Y-264847D01*
X494711Y-264874D01*
X494780Y-264944D01*
X494877Y-265041D01*
X495043Y-265152D01*
X495238Y-265263D01*
X495474Y-265360D01*
X495737Y-265429D01*
X495890Y-265443D01*
X496056Y-265457D01*
X496167D01*
X496292Y-265443D01*
X496430Y-265415D01*
X496597Y-265387D01*
X496777Y-265332D01*
X496930Y-265249D01*
X497082Y-265152D01*
X497096Y-265138D01*
X497138Y-265096D01*
X497207Y-265027D01*
X497276Y-264944D01*
X497332Y-264833D01*
X497401Y-264708D01*
X497443Y-264569D01*
X497457Y-264417D01*
Y-264403D01*
Y-264347D01*
X497443Y-264278D01*
X497415Y-264181D01*
X497373Y-264070D01*
X497304Y-263959D01*
X497221Y-263834D01*
X497110Y-263723D01*
X497096Y-263709D01*
X497041Y-263668D01*
X496930Y-263612D01*
X496860Y-263571D01*
X496777Y-263529D01*
X496680Y-263487D01*
X496569Y-263432D01*
X496430Y-263390D01*
X496292Y-263335D01*
X496125Y-263279D01*
X495931Y-263238D01*
X495723Y-263182D01*
X495501Y-263127D01*
X495474D01*
X495418Y-263099D01*
X495307Y-263085D01*
X495168Y-263044D01*
X495002Y-263002D01*
X494808Y-262947D01*
X494586Y-262877D01*
X494364Y-262808D01*
X493879Y-262628D01*
X493393Y-262420D01*
X493157Y-262309D01*
X492949Y-262184D01*
X492741Y-262045D01*
X492561Y-261907D01*
X492547Y-261893D01*
X492519Y-261865D01*
X492478Y-261823D01*
X492422Y-261768D01*
X492353Y-261698D01*
X492284Y-261601D01*
X492201Y-261490D01*
X492131Y-261380D01*
X492048Y-261241D01*
X491965Y-261088D01*
X491826Y-260755D01*
X491771Y-260575D01*
X491729Y-260381D01*
X491701Y-260173D01*
X491687Y-259951D01*
Y-259937D01*
Y-259909D01*
Y-259868D01*
X491701Y-259812D01*
X491715Y-259674D01*
X491743Y-259480D01*
X491798Y-259244D01*
X491881Y-259008D01*
X491979Y-258745D01*
X492131Y-258481D01*
Y-258467D01*
X492159Y-258453D01*
X492214Y-258370D01*
X492325Y-258245D01*
X492478Y-258079D01*
X492658Y-257912D01*
X492894Y-257732D01*
X493171Y-257552D01*
X493490Y-257385D01*
X493504D01*
X493532Y-257372D01*
X493587Y-257344D01*
X493657Y-257316D01*
X493754Y-257288D01*
X493865Y-257261D01*
X493989Y-257219D01*
X494142Y-257177D01*
X494309Y-257150D01*
X494503Y-257108D01*
X494711Y-257080D01*
X494933Y-257039D01*
X495168Y-257025D01*
X495432Y-256997D01*
X495695Y-256983D01*
X496167D01*
X496306Y-256997D01*
D02*
G37*
G36*
X523779Y-267288D02*
X521130D01*
Y-266220D01*
X521102Y-266234D01*
X521033Y-266317D01*
X520936Y-266441D01*
X520797Y-266580D01*
X520645Y-266733D01*
X520478Y-266885D01*
X520312Y-267024D01*
X520131Y-267135D01*
X520104Y-267149D01*
X520020Y-267190D01*
X519896Y-267232D01*
X519729Y-267288D01*
X519535Y-267357D01*
X519299Y-267398D01*
X519050Y-267440D01*
X518772Y-267454D01*
X518703D01*
X518634Y-267440D01*
X518523D01*
X518398Y-267412D01*
X518259Y-267398D01*
X518093Y-267357D01*
X517926Y-267315D01*
X517746Y-267246D01*
X517552Y-267176D01*
X517372Y-267079D01*
X517178Y-266968D01*
X516983Y-266844D01*
X516803Y-266691D01*
X516637Y-266511D01*
X516484Y-266317D01*
X516470Y-266303D01*
X516456Y-266261D01*
X516415Y-266206D01*
X516359Y-266109D01*
X516304Y-265998D01*
X516235Y-265873D01*
X516165Y-265720D01*
X516096Y-265540D01*
X516013Y-265346D01*
X515943Y-265138D01*
X515874Y-264916D01*
X515818Y-264666D01*
X515763Y-264417D01*
X515721Y-264139D01*
X515708Y-263848D01*
X515694Y-263557D01*
Y-263529D01*
Y-263474D01*
Y-263377D01*
X515708Y-263252D01*
X515721Y-263099D01*
X515735Y-262933D01*
X515763Y-262725D01*
X515804Y-262517D01*
X515902Y-262073D01*
X515985Y-261837D01*
X516068Y-261601D01*
X516165Y-261380D01*
X516276Y-261158D01*
X516415Y-260950D01*
X516567Y-260755D01*
X516581Y-260742D01*
X516609Y-260714D01*
X516651Y-260672D01*
X516720Y-260603D01*
X516817Y-260534D01*
X516914Y-260450D01*
X517039Y-260353D01*
X517178Y-260270D01*
X517330Y-260173D01*
X517496Y-260090D01*
X517677Y-260007D01*
X517871Y-259937D01*
X518079Y-259868D01*
X518301Y-259826D01*
X518537Y-259799D01*
X518786Y-259785D01*
X518897D01*
X519022Y-259799D01*
X519175Y-259812D01*
X519369Y-259840D01*
X519563Y-259882D01*
X519771Y-259937D01*
X519979Y-260007D01*
X520007Y-260020D01*
X520076Y-260048D01*
X520173Y-260104D01*
X520298Y-260173D01*
X520450Y-260270D01*
X520617Y-260381D01*
X520769Y-260520D01*
X520936Y-260672D01*
Y-257150D01*
X523779D01*
Y-267288D01*
D02*
G37*
G36*
X482923Y-259799D02*
X483020Y-259812D01*
X483131Y-259826D01*
X483408Y-259868D01*
X483699Y-259951D01*
X484004Y-260076D01*
X484157Y-260159D01*
X484309Y-260256D01*
X484448Y-260367D01*
X484573Y-260492D01*
X484587Y-260506D01*
X484601Y-260520D01*
X484628Y-260561D01*
X484684Y-260631D01*
X484725Y-260700D01*
X484781Y-260797D01*
X484850Y-260908D01*
X484906Y-261033D01*
X484975Y-261171D01*
X485031Y-261338D01*
X485086Y-261518D01*
X485141Y-261712D01*
X485183Y-261934D01*
X485211Y-262156D01*
X485225Y-262420D01*
X485239Y-262683D01*
Y-267288D01*
X482423D01*
Y-263099D01*
Y-263071D01*
Y-263016D01*
X482409Y-262933D01*
X482396Y-262822D01*
X482340Y-262572D01*
X482299Y-262461D01*
X482229Y-262364D01*
X482215Y-262350D01*
X482174Y-262309D01*
X482118Y-262239D01*
X482035Y-262170D01*
X481924Y-262101D01*
X481813Y-262031D01*
X481674Y-261990D01*
X481522Y-261976D01*
X481439D01*
X481342Y-261990D01*
X481231Y-262017D01*
X481106Y-262059D01*
X480967Y-262128D01*
X480842Y-262212D01*
X480718Y-262336D01*
X480704Y-262350D01*
X480676Y-262406D01*
X480620Y-262489D01*
X480579Y-262614D01*
X480523Y-262780D01*
X480468Y-262974D01*
X480440Y-263224D01*
X480426Y-263501D01*
Y-267288D01*
X477611D01*
Y-263252D01*
Y-263224D01*
Y-263169D01*
Y-263085D01*
Y-262988D01*
X477583Y-262766D01*
X477569Y-262669D01*
X477556Y-262600D01*
Y-262586D01*
X477542Y-262558D01*
X477514Y-262503D01*
X477486Y-262433D01*
X477375Y-262295D01*
X477237Y-262156D01*
X477223Y-262142D01*
X477195Y-262128D01*
X477153Y-262101D01*
X477084Y-262059D01*
X476931Y-262004D01*
X476834Y-261990D01*
X476723Y-261976D01*
X476640D01*
X476557Y-261990D01*
X476446Y-262017D01*
X476307Y-262073D01*
X476183Y-262128D01*
X476044Y-262225D01*
X475919Y-262350D01*
X475905Y-262364D01*
X475877Y-262420D01*
X475822Y-262503D01*
X475766Y-262642D01*
X475711Y-262808D01*
X475656Y-263016D01*
X475628Y-263266D01*
X475614Y-263557D01*
Y-267288D01*
X472799D01*
Y-259951D01*
X475420D01*
Y-261019D01*
X475448Y-261005D01*
X475517Y-260922D01*
X475628Y-260797D01*
X475766Y-260658D01*
X475947Y-260506D01*
X476141Y-260339D01*
X476335Y-260201D01*
X476557Y-260076D01*
X476585Y-260062D01*
X476668Y-260034D01*
X476779Y-259979D01*
X476945Y-259923D01*
X477153Y-259882D01*
X477389Y-259826D01*
X477666Y-259799D01*
X477958Y-259785D01*
X478096D01*
X478263Y-259799D01*
X478457Y-259826D01*
X478679Y-259868D01*
X478915Y-259923D01*
X479137Y-259993D01*
X479344Y-260104D01*
X479372Y-260117D01*
X479428Y-260159D01*
X479525Y-260228D01*
X479636Y-260339D01*
X479774Y-260464D01*
X479913Y-260631D01*
X480052Y-260811D01*
X480177Y-261033D01*
X480191Y-261019D01*
X480204Y-261005D01*
X480288Y-260922D01*
X480412Y-260797D01*
X480579Y-260644D01*
X480759Y-260478D01*
X480967Y-260312D01*
X481175Y-260159D01*
X481383Y-260048D01*
X481411Y-260034D01*
X481480Y-260007D01*
X481591Y-259965D01*
X481758Y-259909D01*
X481952Y-259868D01*
X482174Y-259826D01*
X482437Y-259799D01*
X482728Y-259785D01*
X482839D01*
X482923Y-259799D01*
D02*
G37*
G36*
X539603D02*
X539769Y-259826D01*
X539977Y-259882D01*
X540213Y-259951D01*
X540462Y-260048D01*
X540740Y-260173D01*
X539866Y-262184D01*
X539838Y-262170D01*
X539783Y-262156D01*
X539700Y-262115D01*
X539575Y-262073D01*
X539325Y-262004D01*
X539201Y-261990D01*
X539076Y-261976D01*
X538979D01*
X538881Y-262004D01*
X538757Y-262031D01*
X538618Y-262087D01*
X538479Y-262170D01*
X538341Y-262281D01*
X538216Y-262433D01*
Y-262447D01*
X538202Y-262461D01*
X538174Y-262503D01*
X538147Y-262558D01*
X538119Y-262642D01*
X538077Y-262725D01*
X538036Y-262850D01*
X538008Y-262974D01*
X537966Y-263127D01*
X537925Y-263307D01*
X537883Y-263501D01*
X537855Y-263723D01*
X537828Y-263959D01*
X537800Y-264223D01*
X537786Y-264514D01*
Y-264833D01*
Y-267288D01*
X534957D01*
Y-259951D01*
X537592D01*
Y-261144D01*
X537606Y-261130D01*
X537633Y-261088D01*
X537661Y-261033D01*
X537730Y-260894D01*
X537828Y-260728D01*
X537952Y-260561D01*
X538077Y-260381D01*
X538216Y-260215D01*
X538368Y-260090D01*
X538382Y-260076D01*
X538438Y-260048D01*
X538521Y-259993D01*
X538646Y-259937D01*
X538784Y-259882D01*
X538965Y-259826D01*
X539159Y-259799D01*
X539367Y-259785D01*
X539478D01*
X539603Y-259799D01*
D02*
G37*
G36*
X514237Y-267288D02*
X511422D01*
Y-257150D01*
X514237D01*
Y-267288D01*
D02*
G37*
G36*
X436602Y-257164D02*
X436727Y-257177D01*
X436866Y-257191D01*
X437032Y-257205D01*
X437198Y-257247D01*
X437559Y-257330D01*
X437934Y-257455D01*
X438114Y-257538D01*
X438294Y-257635D01*
X438461Y-257760D01*
X438613Y-257885D01*
X438627Y-257899D01*
X438641Y-257912D01*
X438682Y-257954D01*
X438738Y-258009D01*
X438793Y-258079D01*
X438863Y-258176D01*
X439015Y-258384D01*
X439154Y-258647D01*
X439279Y-258953D01*
X439334Y-259119D01*
X439376Y-259299D01*
X439390Y-259493D01*
X439403Y-259688D01*
Y-259701D01*
Y-259729D01*
Y-259771D01*
X439390Y-259840D01*
Y-259909D01*
X439376Y-260007D01*
X439334Y-260215D01*
X439265Y-260450D01*
X439168Y-260714D01*
X439029Y-260977D01*
X438835Y-261227D01*
X438821Y-261241D01*
X438766Y-261296D01*
X438682Y-261380D01*
X438558Y-261477D01*
X438405Y-261588D01*
X438225Y-261698D01*
X438003Y-261809D01*
X437753Y-261907D01*
X437767D01*
X437795Y-261920D01*
X437850Y-261934D01*
X437934Y-261962D01*
X438017Y-261990D01*
X438128Y-262017D01*
X438363Y-262115D01*
X438613Y-262239D01*
X438876Y-262392D01*
X439126Y-262586D01*
X439348Y-262808D01*
Y-262822D01*
X439376Y-262836D01*
X439403Y-262877D01*
X439431Y-262919D01*
X439515Y-263058D01*
X439612Y-263252D01*
X439709Y-263487D01*
X439792Y-263751D01*
X439847Y-264070D01*
X439875Y-264417D01*
Y-264431D01*
Y-264444D01*
Y-264486D01*
Y-264541D01*
X439861Y-264694D01*
X439833Y-264888D01*
X439778Y-265096D01*
X439723Y-265346D01*
X439625Y-265582D01*
X439501Y-265831D01*
X439487Y-265859D01*
X439431Y-265928D01*
X439348Y-266053D01*
X439237Y-266192D01*
X439098Y-266344D01*
X438932Y-266511D01*
X438724Y-266677D01*
X438502Y-266830D01*
X438488Y-266844D01*
X438433Y-266871D01*
X438336Y-266899D01*
X438197Y-266955D01*
X438031Y-267010D01*
X437836Y-267066D01*
X437587Y-267121D01*
X437309Y-267163D01*
X437268D01*
X437212Y-267176D01*
X437143D01*
X437060Y-267190D01*
X436963Y-267204D01*
X436741Y-267218D01*
X436505Y-267246D01*
X436269Y-267274D01*
X436075Y-267288D01*
X430500D01*
Y-257150D01*
X436505D01*
X436602Y-257164D01*
D02*
G37*
G36*
X529548Y-259799D02*
X529673D01*
X529826Y-259812D01*
X530006Y-259826D01*
X530186Y-259840D01*
X530574Y-259909D01*
X530990Y-259993D01*
X531393Y-260104D01*
X531587Y-260187D01*
X531767Y-260270D01*
X531781D01*
X531809Y-260298D01*
X531850Y-260326D01*
X531920Y-260353D01*
X532086Y-260464D01*
X532280Y-260617D01*
X532502Y-260811D01*
X532738Y-261047D01*
X532960Y-261338D01*
X533154Y-261657D01*
Y-261671D01*
X533182Y-261698D01*
X533195Y-261754D01*
X533237Y-261823D01*
X533265Y-261907D01*
X533307Y-262017D01*
X533348Y-262142D01*
X533404Y-262295D01*
X533445Y-262447D01*
X533487Y-262628D01*
X533528Y-262822D01*
X533570Y-263030D01*
X533598Y-263252D01*
X533625Y-263501D01*
X533639Y-263751D01*
Y-264014D01*
Y-264320D01*
X527995D01*
Y-264333D01*
Y-264347D01*
X528009Y-264431D01*
X528036Y-264555D01*
X528064Y-264694D01*
X528120Y-264860D01*
X528175Y-265027D01*
X528258Y-265193D01*
X528355Y-265332D01*
X528369Y-265346D01*
X528425Y-265401D01*
X528522Y-265485D01*
X528647Y-265568D01*
X528799Y-265651D01*
X528979Y-265734D01*
X529188Y-265790D01*
X529423Y-265804D01*
X529493D01*
X529576Y-265790D01*
X529673Y-265776D01*
X529798Y-265762D01*
X529936Y-265720D01*
X530075Y-265679D01*
X530214Y-265609D01*
X530228Y-265595D01*
X530255Y-265582D01*
X530297Y-265554D01*
X530366Y-265498D01*
X530436Y-265429D01*
X530519Y-265346D01*
X530616Y-265249D01*
X530713Y-265138D01*
X533487Y-265387D01*
X533473Y-265401D01*
X533459Y-265429D01*
X533417Y-265498D01*
X533376Y-265568D01*
X533307Y-265665D01*
X533237Y-265762D01*
X533057Y-265998D01*
X532835Y-266261D01*
X532571Y-266525D01*
X532266Y-266774D01*
X532114Y-266885D01*
X531947Y-266982D01*
X531934D01*
X531906Y-266996D01*
X531850Y-267024D01*
X531781Y-267052D01*
X531684Y-267093D01*
X531573Y-267135D01*
X531434Y-267176D01*
X531282Y-267218D01*
X531115Y-267260D01*
X530921Y-267301D01*
X530713Y-267343D01*
X530477Y-267384D01*
X530228Y-267412D01*
X529964Y-267440D01*
X529673Y-267454D01*
X529132D01*
X529007Y-267440D01*
X528869Y-267426D01*
X528702D01*
X528536Y-267398D01*
X528161Y-267357D01*
X527787Y-267288D01*
X527412Y-267190D01*
X527232Y-267121D01*
X527066Y-267052D01*
X527052D01*
X527024Y-267038D01*
X526982Y-267010D01*
X526927Y-266968D01*
X526774Y-266871D01*
X526580Y-266733D01*
X526358Y-266552D01*
X526137Y-266331D01*
X525901Y-266053D01*
X525679Y-265748D01*
Y-265734D01*
X525651Y-265707D01*
X525623Y-265651D01*
X525596Y-265582D01*
X525554Y-265498D01*
X525512Y-265401D01*
X525457Y-265277D01*
X525415Y-265152D01*
X525360Y-264999D01*
X525304Y-264833D01*
X525221Y-264472D01*
X525166Y-264070D01*
X525138Y-263640D01*
Y-263626D01*
Y-263557D01*
X525152Y-263474D01*
Y-263349D01*
X525166Y-263210D01*
X525193Y-263044D01*
X525235Y-262850D01*
X525277Y-262642D01*
X525332Y-262433D01*
X525401Y-262198D01*
X525499Y-261976D01*
X525596Y-261740D01*
X525720Y-261504D01*
X525873Y-261282D01*
X526039Y-261061D01*
X526234Y-260853D01*
X526247Y-260839D01*
X526289Y-260811D01*
X526344Y-260755D01*
X526442Y-260686D01*
X526553Y-260603D01*
X526677Y-260520D01*
X526844Y-260423D01*
X527024Y-260312D01*
X527232Y-260215D01*
X527454Y-260117D01*
X527718Y-260034D01*
X527981Y-259951D01*
X528272Y-259882D01*
X528591Y-259826D01*
X528924Y-259799D01*
X529285Y-259785D01*
X529437D01*
X529548Y-259799D01*
D02*
G37*
G36*
X505944D02*
X506097D01*
X506277Y-259826D01*
X506499Y-259854D01*
X506721Y-259896D01*
X506984Y-259951D01*
X507248Y-260020D01*
X507511Y-260104D01*
X507789Y-260201D01*
X508066Y-260326D01*
X508343Y-260478D01*
X508593Y-260644D01*
X508843Y-260853D01*
X509064Y-261074D01*
X509078Y-261088D01*
X509106Y-261116D01*
X509148Y-261185D01*
X509203Y-261255D01*
X509272Y-261352D01*
X509356Y-261477D01*
X509439Y-261615D01*
X509522Y-261768D01*
X509605Y-261948D01*
X509689Y-262142D01*
X509772Y-262350D01*
X509841Y-262572D01*
X509897Y-262808D01*
X509938Y-263058D01*
X509966Y-263321D01*
X509980Y-263598D01*
Y-263612D01*
Y-263668D01*
X509966Y-263765D01*
Y-263876D01*
X509952Y-264028D01*
X509924Y-264195D01*
X509883Y-264389D01*
X509841Y-264583D01*
X509772Y-264805D01*
X509702Y-265027D01*
X509605Y-265263D01*
X509494Y-265498D01*
X509370Y-265720D01*
X509217Y-265956D01*
X509037Y-266178D01*
X508843Y-266386D01*
X508829Y-266400D01*
X508787Y-266428D01*
X508732Y-266483D01*
X508635Y-266552D01*
X508524Y-266636D01*
X508385Y-266719D01*
X508218Y-266816D01*
X508038Y-266913D01*
X507830Y-267024D01*
X507594Y-267121D01*
X507331Y-267204D01*
X507054Y-267288D01*
X506762Y-267357D01*
X506443Y-267412D01*
X506097Y-267440D01*
X505736Y-267454D01*
X505570D01*
X505445Y-267440D01*
X505292Y-267426D01*
X505112Y-267412D01*
X504918Y-267384D01*
X504710Y-267343D01*
X504252Y-267232D01*
X504016Y-267163D01*
X503781Y-267079D01*
X503531Y-266982D01*
X503309Y-266857D01*
X503073Y-266719D01*
X502865Y-266566D01*
X502851Y-266552D01*
X502810Y-266511D01*
X502741Y-266455D01*
X502657Y-266358D01*
X502560Y-266247D01*
X502449Y-266122D01*
X502324Y-265956D01*
X502200Y-265790D01*
X502075Y-265582D01*
X501950Y-265360D01*
X501839Y-265124D01*
X501742Y-264860D01*
X501659Y-264583D01*
X501589Y-264292D01*
X501548Y-263973D01*
X501534Y-263640D01*
Y-263626D01*
Y-263571D01*
X501548Y-263474D01*
Y-263363D01*
X501576Y-263224D01*
X501589Y-263058D01*
X501631Y-262863D01*
X501673Y-262669D01*
X501728Y-262447D01*
X501811Y-262225D01*
X501894Y-262004D01*
X502006Y-261768D01*
X502130Y-261532D01*
X502283Y-261310D01*
X502463Y-261088D01*
X502657Y-260880D01*
X502671Y-260866D01*
X502713Y-260839D01*
X502782Y-260783D01*
X502865Y-260714D01*
X502976Y-260631D01*
X503115Y-260534D01*
X503281Y-260436D01*
X503475Y-260326D01*
X503684Y-260228D01*
X503905Y-260131D01*
X504169Y-260034D01*
X504432Y-259951D01*
X504738Y-259882D01*
X505043Y-259826D01*
X505376Y-259799D01*
X505736Y-259785D01*
X505833D01*
X505944Y-259799D01*
D02*
G37*
G36*
X467390D02*
X467542D01*
X467723Y-259826D01*
X467945Y-259854D01*
X468167Y-259896D01*
X468430Y-259951D01*
X468694Y-260020D01*
X468957Y-260104D01*
X469234Y-260201D01*
X469512Y-260326D01*
X469789Y-260478D01*
X470039Y-260644D01*
X470288Y-260853D01*
X470510Y-261074D01*
X470524Y-261088D01*
X470552Y-261116D01*
X470593Y-261185D01*
X470649Y-261255D01*
X470718Y-261352D01*
X470802Y-261477D01*
X470885Y-261615D01*
X470968Y-261768D01*
X471051Y-261948D01*
X471134Y-262142D01*
X471218Y-262350D01*
X471287Y-262572D01*
X471342Y-262808D01*
X471384Y-263058D01*
X471412Y-263321D01*
X471426Y-263598D01*
Y-263612D01*
Y-263668D01*
X471412Y-263765D01*
Y-263876D01*
X471398Y-264028D01*
X471370Y-264195D01*
X471329Y-264389D01*
X471287Y-264583D01*
X471218Y-264805D01*
X471148Y-265027D01*
X471051Y-265263D01*
X470940Y-265498D01*
X470815Y-265720D01*
X470663Y-265956D01*
X470483Y-266178D01*
X470288Y-266386D01*
X470275Y-266400D01*
X470233Y-266428D01*
X470177Y-266483D01*
X470080Y-266552D01*
X469969Y-266636D01*
X469831Y-266719D01*
X469664Y-266816D01*
X469484Y-266913D01*
X469276Y-267024D01*
X469040Y-267121D01*
X468777Y-267204D01*
X468499Y-267288D01*
X468208Y-267357D01*
X467889Y-267412D01*
X467542Y-267440D01*
X467182Y-267454D01*
X467015D01*
X466891Y-267440D01*
X466738Y-267426D01*
X466558Y-267412D01*
X466364Y-267384D01*
X466156Y-267343D01*
X465698Y-267232D01*
X465462Y-267163D01*
X465227Y-267079D01*
X464977Y-266982D01*
X464755Y-266857D01*
X464519Y-266719D01*
X464311Y-266566D01*
X464297Y-266552D01*
X464256Y-266511D01*
X464186Y-266455D01*
X464103Y-266358D01*
X464006Y-266247D01*
X463895Y-266122D01*
X463770Y-265956D01*
X463646Y-265790D01*
X463521Y-265582D01*
X463396Y-265360D01*
X463285Y-265124D01*
X463188Y-264860D01*
X463105Y-264583D01*
X463035Y-264292D01*
X462994Y-263973D01*
X462980Y-263640D01*
Y-263626D01*
Y-263571D01*
X462994Y-263474D01*
Y-263363D01*
X463021Y-263224D01*
X463035Y-263058D01*
X463077Y-262863D01*
X463119Y-262669D01*
X463174Y-262447D01*
X463257Y-262225D01*
X463340Y-262004D01*
X463451Y-261768D01*
X463576Y-261532D01*
X463729Y-261310D01*
X463909Y-261088D01*
X464103Y-260880D01*
X464117Y-260866D01*
X464159Y-260839D01*
X464228Y-260783D01*
X464311Y-260714D01*
X464422Y-260631D01*
X464561Y-260534D01*
X464727Y-260436D01*
X464921Y-260326D01*
X465129Y-260228D01*
X465351Y-260131D01*
X465615Y-260034D01*
X465878Y-259951D01*
X466183Y-259882D01*
X466488Y-259826D01*
X466821Y-259799D01*
X467182Y-259785D01*
X467279D01*
X467390Y-259799D01*
D02*
G37*
G36*
X460442Y-259951D02*
X461995D01*
Y-262017D01*
X460442D01*
Y-264611D01*
Y-264625D01*
Y-264680D01*
Y-264763D01*
X460456Y-264860D01*
X460484Y-265068D01*
X460497Y-265166D01*
X460525Y-265235D01*
X460539Y-265249D01*
X460553Y-265263D01*
X460594Y-265304D01*
X460636Y-265346D01*
X460705Y-265387D01*
X460789Y-265415D01*
X460886Y-265443D01*
X461011Y-265457D01*
X461066D01*
X461135Y-265443D01*
X461232Y-265429D01*
X461357Y-265415D01*
X461510Y-265387D01*
X461690Y-265346D01*
X461884Y-265290D01*
X462092Y-267232D01*
X462078D01*
X462051Y-267246D01*
X461995D01*
X461912Y-267260D01*
X461815Y-267288D01*
X461718Y-267301D01*
X461593Y-267315D01*
X461454Y-267343D01*
X461149Y-267384D01*
X460816Y-267412D01*
X460484Y-267440D01*
X460137Y-267454D01*
X459970D01*
X459887Y-267440D01*
X459776D01*
X459554Y-267426D01*
X459305Y-267384D01*
X459055Y-267343D01*
X458805Y-267274D01*
X458597Y-267190D01*
X458570Y-267176D01*
X458514Y-267135D01*
X458431Y-267079D01*
X458320Y-266996D01*
X458195Y-266871D01*
X458070Y-266733D01*
X457959Y-266580D01*
X457862Y-266386D01*
X457849Y-266358D01*
X457821Y-266275D01*
X457807Y-266220D01*
X457793Y-266150D01*
X457765Y-266053D01*
X457751Y-265956D01*
X457724Y-265831D01*
X457696Y-265707D01*
X457682Y-265554D01*
X457668Y-265401D01*
X457654Y-265221D01*
X457640Y-265027D01*
X457627Y-264819D01*
Y-264597D01*
Y-262017D01*
X456586D01*
Y-259951D01*
X457627D01*
Y-258606D01*
X460442Y-257150D01*
Y-259951D01*
D02*
G37*
G36*
X454160D02*
X455713D01*
Y-262017D01*
X454160D01*
Y-264611D01*
Y-264625D01*
Y-264680D01*
Y-264763D01*
X454173Y-264860D01*
X454201Y-265068D01*
X454215Y-265166D01*
X454243Y-265235D01*
X454257Y-265249D01*
X454270Y-265263D01*
X454312Y-265304D01*
X454354Y-265346D01*
X454423Y-265387D01*
X454506Y-265415D01*
X454603Y-265443D01*
X454728Y-265457D01*
X454784D01*
X454853Y-265443D01*
X454950Y-265429D01*
X455075Y-265415D01*
X455227Y-265387D01*
X455408Y-265346D01*
X455602Y-265290D01*
X455810Y-267232D01*
X455796D01*
X455768Y-267246D01*
X455713D01*
X455630Y-267260D01*
X455532Y-267288D01*
X455435Y-267301D01*
X455311Y-267315D01*
X455172Y-267343D01*
X454867Y-267384D01*
X454534Y-267412D01*
X454201Y-267440D01*
X453854Y-267454D01*
X453688D01*
X453605Y-267440D01*
X453494D01*
X453272Y-267426D01*
X453022Y-267384D01*
X452773Y-267343D01*
X452523Y-267274D01*
X452315Y-267190D01*
X452287Y-267176D01*
X452232Y-267135D01*
X452149Y-267079D01*
X452038Y-266996D01*
X451913Y-266871D01*
X451788Y-266733D01*
X451677Y-266580D01*
X451580Y-266386D01*
X451566Y-266358D01*
X451538Y-266275D01*
X451525Y-266220D01*
X451511Y-266150D01*
X451483Y-266053D01*
X451469Y-265956D01*
X451441Y-265831D01*
X451413Y-265707D01*
X451400Y-265554D01*
X451386Y-265401D01*
X451372Y-265221D01*
X451358Y-265027D01*
X451344Y-264819D01*
Y-264597D01*
Y-262017D01*
X450304D01*
Y-259951D01*
X451344D01*
Y-258606D01*
X454160Y-257150D01*
Y-259951D01*
D02*
G37*
G36*
X445381Y-259799D02*
X445533D01*
X445714Y-259826D01*
X445936Y-259854D01*
X446157Y-259896D01*
X446421Y-259951D01*
X446684Y-260020D01*
X446948Y-260104D01*
X447225Y-260201D01*
X447503Y-260326D01*
X447780Y-260478D01*
X448030Y-260644D01*
X448279Y-260853D01*
X448501Y-261074D01*
X448515Y-261088D01*
X448543Y-261116D01*
X448584Y-261185D01*
X448640Y-261255D01*
X448709Y-261352D01*
X448792Y-261477D01*
X448876Y-261615D01*
X448959Y-261768D01*
X449042Y-261948D01*
X449125Y-262142D01*
X449208Y-262350D01*
X449278Y-262572D01*
X449333Y-262808D01*
X449375Y-263058D01*
X449403Y-263321D01*
X449417Y-263598D01*
Y-263612D01*
Y-263668D01*
X449403Y-263765D01*
Y-263876D01*
X449389Y-264028D01*
X449361Y-264195D01*
X449319Y-264389D01*
X449278Y-264583D01*
X449208Y-264805D01*
X449139Y-265027D01*
X449042Y-265263D01*
X448931Y-265498D01*
X448806Y-265720D01*
X448654Y-265956D01*
X448473Y-266178D01*
X448279Y-266386D01*
X448265Y-266400D01*
X448224Y-266428D01*
X448168Y-266483D01*
X448071Y-266552D01*
X447960Y-266636D01*
X447822Y-266719D01*
X447655Y-266816D01*
X447475Y-266913D01*
X447267Y-267024D01*
X447031Y-267121D01*
X446768Y-267204D01*
X446490Y-267288D01*
X446199Y-267357D01*
X445880Y-267412D01*
X445533Y-267440D01*
X445173Y-267454D01*
X445006D01*
X444882Y-267440D01*
X444729Y-267426D01*
X444549Y-267412D01*
X444355Y-267384D01*
X444146Y-267343D01*
X443689Y-267232D01*
X443453Y-267163D01*
X443217Y-267079D01*
X442968Y-266982D01*
X442746Y-266857D01*
X442510Y-266719D01*
X442302Y-266566D01*
X442288Y-266552D01*
X442247Y-266511D01*
X442177Y-266455D01*
X442094Y-266358D01*
X441997Y-266247D01*
X441886Y-266122D01*
X441761Y-265956D01*
X441636Y-265790D01*
X441511Y-265582D01*
X441387Y-265360D01*
X441276Y-265124D01*
X441179Y-264860D01*
X441096Y-264583D01*
X441026Y-264292D01*
X440984Y-263973D01*
X440971Y-263640D01*
Y-263626D01*
Y-263571D01*
X440984Y-263474D01*
Y-263363D01*
X441012Y-263224D01*
X441026Y-263058D01*
X441068Y-262863D01*
X441109Y-262669D01*
X441165Y-262447D01*
X441248Y-262225D01*
X441331Y-262004D01*
X441442Y-261768D01*
X441567Y-261532D01*
X441720Y-261310D01*
X441900Y-261088D01*
X442094Y-260880D01*
X442108Y-260866D01*
X442150Y-260839D01*
X442219Y-260783D01*
X442302Y-260714D01*
X442413Y-260631D01*
X442552Y-260534D01*
X442718Y-260436D01*
X442912Y-260326D01*
X443120Y-260228D01*
X443342Y-260131D01*
X443606Y-260034D01*
X443869Y-259951D01*
X444174Y-259882D01*
X444479Y-259826D01*
X444812Y-259799D01*
X445173Y-259785D01*
X445270D01*
X445381Y-259799D01*
D02*
G37*
%LPC*%
G36*
X519660Y-261893D02*
X519577D01*
X519480Y-261920D01*
X519369Y-261948D01*
X519244Y-261990D01*
X519105Y-262073D01*
X518966Y-262170D01*
X518828Y-262309D01*
X518814Y-262323D01*
X518772Y-262392D01*
X518731Y-262489D01*
X518675Y-262628D01*
X518606Y-262822D01*
X518564Y-263058D01*
X518523Y-263335D01*
X518509Y-263668D01*
Y-263682D01*
Y-263709D01*
Y-263751D01*
Y-263806D01*
X518523Y-263973D01*
X518550Y-264167D01*
X518592Y-264375D01*
X518648Y-264597D01*
X518731Y-264791D01*
X518842Y-264971D01*
X518856Y-264985D01*
X518911Y-265041D01*
X518980Y-265096D01*
X519077Y-265180D01*
X519202Y-265249D01*
X519341Y-265318D01*
X519507Y-265374D01*
X519688Y-265387D01*
X519715D01*
X519785Y-265374D01*
X519882Y-265360D01*
X520007Y-265332D01*
X520145Y-265290D01*
X520298Y-265207D01*
X520450Y-265110D01*
X520589Y-264971D01*
X520603Y-264958D01*
X520645Y-264888D01*
X520700Y-264791D01*
X520769Y-264639D01*
X520839Y-264458D01*
X520894Y-264223D01*
X520936Y-263945D01*
X520950Y-263612D01*
Y-263598D01*
Y-263571D01*
Y-263529D01*
Y-263474D01*
X520936Y-263321D01*
X520908Y-263127D01*
X520853Y-262919D01*
X520797Y-262711D01*
X520700Y-262503D01*
X520575Y-262323D01*
X520561Y-262309D01*
X520506Y-262253D01*
X520437Y-262184D01*
X520326Y-262101D01*
X520187Y-262031D01*
X520034Y-261962D01*
X519854Y-261907D01*
X519660Y-261893D01*
D02*
G37*
G36*
X435049Y-259202D02*
X433662D01*
Y-261130D01*
X435146D01*
X435271Y-261116D01*
X435423Y-261102D01*
X435590Y-261074D01*
X435770Y-261019D01*
X435923Y-260963D01*
X436047Y-260880D01*
X436061Y-260866D01*
X436089Y-260839D01*
X436144Y-260769D01*
X436200Y-260700D01*
X436241Y-260589D01*
X436297Y-260464D01*
X436325Y-260312D01*
X436339Y-260145D01*
Y-260131D01*
Y-260076D01*
X436325Y-259993D01*
X436297Y-259896D01*
X436269Y-259785D01*
X436214Y-259660D01*
X436144Y-259549D01*
X436047Y-259452D01*
X436034Y-259438D01*
X435992Y-259410D01*
X435923Y-259369D01*
X435812Y-259327D01*
X435673Y-259285D01*
X435507Y-259244D01*
X435299Y-259216D01*
X435049Y-259202D01*
D02*
G37*
G36*
X435257Y-263058D02*
X433662D01*
Y-265110D01*
X435396D01*
X435534Y-265096D01*
X435714Y-265068D01*
X435895Y-265041D01*
X436089Y-264999D01*
X436269Y-264930D01*
X436408Y-264833D01*
X436422Y-264819D01*
X436463Y-264777D01*
X436519Y-264708D01*
X436574Y-264625D01*
X436630Y-264514D01*
X436685Y-264375D01*
X436727Y-264223D01*
X436741Y-264056D01*
Y-264042D01*
Y-263987D01*
X436727Y-263904D01*
X436699Y-263793D01*
X436658Y-263682D01*
X436602Y-263571D01*
X436519Y-263446D01*
X436408Y-263335D01*
X436394Y-263321D01*
X436339Y-263293D01*
X436255Y-263252D01*
X436144Y-263196D01*
X435978Y-263141D01*
X435784Y-263099D01*
X435548Y-263071D01*
X435257Y-263058D01*
D02*
G37*
G36*
X529396Y-261449D02*
X529368D01*
X529285Y-261463D01*
X529160Y-261477D01*
X529007Y-261518D01*
X528841Y-261574D01*
X528661Y-261671D01*
X528494Y-261809D01*
X528328Y-261990D01*
X528314Y-262004D01*
X528286Y-262045D01*
X528245Y-262128D01*
X528189Y-262239D01*
X528134Y-262378D01*
X528078Y-262544D01*
X528023Y-262739D01*
X527995Y-262974D01*
X530782D01*
Y-262960D01*
Y-262933D01*
X530769Y-262891D01*
Y-262836D01*
X530741Y-262697D01*
X530699Y-262517D01*
X530644Y-262336D01*
X530560Y-262142D01*
X530463Y-261962D01*
X530339Y-261809D01*
X530325Y-261796D01*
X530269Y-261754D01*
X530200Y-261698D01*
X530089Y-261629D01*
X529950Y-261560D01*
X529784Y-261504D01*
X529604Y-261463D01*
X529396Y-261449D01*
D02*
G37*
G36*
X505764Y-261726D02*
X505736D01*
X505667Y-261740D01*
X505556Y-261754D01*
X505403Y-261782D01*
X505251Y-261851D01*
X505084Y-261934D01*
X504904Y-262045D01*
X504751Y-262212D01*
X504738Y-262239D01*
X504696Y-262295D01*
X504627Y-262406D01*
X504557Y-262572D01*
X504474Y-262766D01*
X504419Y-263016D01*
X504363Y-263307D01*
X504349Y-263640D01*
Y-263654D01*
Y-263682D01*
Y-263737D01*
Y-263806D01*
X504363Y-263876D01*
X504377Y-263973D01*
X504405Y-264195D01*
X504446Y-264431D01*
X504516Y-264666D01*
X504613Y-264902D01*
X504738Y-265096D01*
X504751Y-265110D01*
X504807Y-265166D01*
X504904Y-265235D01*
X505015Y-265318D01*
X505168Y-265415D01*
X505334Y-265485D01*
X505528Y-265540D01*
X505750Y-265554D01*
X505778D01*
X505847Y-265540D01*
X505958Y-265526D01*
X506110Y-265498D01*
X506263Y-265443D01*
X506429Y-265360D01*
X506596Y-265249D01*
X506749Y-265096D01*
X506762Y-265068D01*
X506818Y-265013D01*
X506873Y-264902D01*
X506956Y-264736D01*
X507026Y-264528D01*
X507095Y-264278D01*
X507137Y-263973D01*
X507151Y-263612D01*
Y-263598D01*
Y-263571D01*
Y-263515D01*
Y-263460D01*
X507137Y-263293D01*
X507095Y-263085D01*
X507054Y-262850D01*
X506984Y-262614D01*
X506887Y-262392D01*
X506749Y-262198D01*
X506735Y-262184D01*
X506679Y-262128D01*
X506596Y-262045D01*
X506471Y-261962D01*
X506332Y-261879D01*
X506166Y-261796D01*
X505972Y-261740D01*
X505764Y-261726D01*
D02*
G37*
G36*
X467210D02*
X467182D01*
X467113Y-261740D01*
X467002Y-261754D01*
X466849Y-261782D01*
X466697Y-261851D01*
X466530Y-261934D01*
X466350Y-262045D01*
X466197Y-262212D01*
X466183Y-262239D01*
X466142Y-262295D01*
X466072Y-262406D01*
X466003Y-262572D01*
X465920Y-262766D01*
X465864Y-263016D01*
X465809Y-263307D01*
X465795Y-263640D01*
Y-263654D01*
Y-263682D01*
Y-263737D01*
Y-263806D01*
X465809Y-263876D01*
X465823Y-263973D01*
X465851Y-264195D01*
X465892Y-264431D01*
X465961Y-264666D01*
X466059Y-264902D01*
X466183Y-265096D01*
X466197Y-265110D01*
X466253Y-265166D01*
X466350Y-265235D01*
X466461Y-265318D01*
X466613Y-265415D01*
X466780Y-265485D01*
X466974Y-265540D01*
X467196Y-265554D01*
X467224D01*
X467293Y-265540D01*
X467404Y-265526D01*
X467556Y-265498D01*
X467709Y-265443D01*
X467875Y-265360D01*
X468042Y-265249D01*
X468194Y-265096D01*
X468208Y-265068D01*
X468264Y-265013D01*
X468319Y-264902D01*
X468402Y-264736D01*
X468472Y-264528D01*
X468541Y-264278D01*
X468583Y-263973D01*
X468596Y-263612D01*
Y-263598D01*
Y-263571D01*
Y-263515D01*
Y-263460D01*
X468583Y-263293D01*
X468541Y-263085D01*
X468499Y-262850D01*
X468430Y-262614D01*
X468333Y-262392D01*
X468194Y-262198D01*
X468180Y-262184D01*
X468125Y-262128D01*
X468042Y-262045D01*
X467917Y-261962D01*
X467778Y-261879D01*
X467612Y-261796D01*
X467418Y-261740D01*
X467210Y-261726D01*
D02*
G37*
G36*
X445201D02*
X445173D01*
X445103Y-261740D01*
X444992Y-261754D01*
X444840Y-261782D01*
X444687Y-261851D01*
X444521Y-261934D01*
X444341Y-262045D01*
X444188Y-262212D01*
X444174Y-262239D01*
X444133Y-262295D01*
X444063Y-262406D01*
X443994Y-262572D01*
X443911Y-262766D01*
X443855Y-263016D01*
X443800Y-263307D01*
X443786Y-263640D01*
Y-263654D01*
Y-263682D01*
Y-263737D01*
Y-263806D01*
X443800Y-263876D01*
X443814Y-263973D01*
X443841Y-264195D01*
X443883Y-264431D01*
X443952Y-264666D01*
X444049Y-264902D01*
X444174Y-265096D01*
X444188Y-265110D01*
X444244Y-265166D01*
X444341Y-265235D01*
X444452Y-265318D01*
X444604Y-265415D01*
X444771Y-265485D01*
X444965Y-265540D01*
X445187Y-265554D01*
X445214D01*
X445284Y-265540D01*
X445395Y-265526D01*
X445547Y-265498D01*
X445700Y-265443D01*
X445866Y-265360D01*
X446033Y-265249D01*
X446185Y-265096D01*
X446199Y-265068D01*
X446255Y-265013D01*
X446310Y-264902D01*
X446393Y-264736D01*
X446463Y-264528D01*
X446532Y-264278D01*
X446573Y-263973D01*
X446587Y-263612D01*
Y-263598D01*
Y-263571D01*
Y-263515D01*
Y-263460D01*
X446573Y-263293D01*
X446532Y-263085D01*
X446490Y-262850D01*
X446421Y-262614D01*
X446324Y-262392D01*
X446185Y-262198D01*
X446171Y-262184D01*
X446116Y-262128D01*
X446033Y-262045D01*
X445908Y-261962D01*
X445769Y-261879D01*
X445603Y-261796D01*
X445409Y-261740D01*
X445201Y-261726D01*
D02*
G37*
%LPD*%
D47*
X414100Y62800D02*
D03*
X471900D02*
D03*
D48*
X486200Y67800D02*
D03*
X399800D02*
D03*
D49*
X486200Y26000D02*
D03*
X399800D02*
D03*
D50*
X477800Y183000D02*
D03*
D51*
X452400D02*
D03*
X427000D02*
D03*
X401600D02*
D03*
X376200D02*
D03*
D52*
X152400Y170099D02*
D03*
X177800D02*
D03*
X165100D02*
D03*
D53*
X331000Y48000D02*
D03*
X43000Y153000D02*
D03*
M02*
