G04*
G04 #@! TF.GenerationSoftware,Altium Limited,Altium Designer,24.3.1 (35)*
G04*
G04 Layer_Color=8421504*
%FSLAX44Y44*%
%MOMM*%
G71*
G04*
G04 #@! TF.SameCoordinates,098D5FB4-7C3B-420D-97F8-BA0D52642CD7*
G04*
G04*
G04 #@! TF.FilePolarity,Positive*
G04*
G01*
G75*
%ADD19R,0.3000X1.1500*%
%ADD20R,0.6000X1.1500*%
%ADD21R,0.9000X0.7000*%
%ADD22R,0.7000X0.9000*%
%ADD23R,0.6000X1.1000*%
%ADD24R,1.3000X1.0000*%
%ADD25R,0.6000X1.1000*%
%ADD26O,0.7500X0.2500*%
%ADD27O,0.2500X0.7500*%
%ADD28R,3.5000X3.8000*%
%ADD29R,1.6000X0.9000*%
%ADD30R,0.7500X0.8500*%
%ADD31R,1.8000X0.4000*%
%ADD32O,1.0500X2.1000*%
%ADD33O,1.0000X2.0000*%
D19*
X425500Y73550D02*
D03*
X430500D02*
D03*
X435500D02*
D03*
X460500D02*
D03*
X455500D02*
D03*
X450500D02*
D03*
X440500D02*
D03*
X445500D02*
D03*
D20*
X467000D02*
D03*
X419000D02*
D03*
X475000D02*
D03*
X411000D02*
D03*
D21*
X288000Y154600D02*
D03*
Y170400D02*
D03*
X116000Y158100D02*
D03*
Y173900D02*
D03*
X77000Y98900D02*
D03*
Y83100D02*
D03*
X122000Y98900D02*
D03*
Y83100D02*
D03*
X148000Y10100D02*
D03*
Y25900D02*
D03*
X132500Y25400D02*
D03*
Y9600D02*
D03*
X117500Y25400D02*
D03*
Y9600D02*
D03*
X163000Y25900D02*
D03*
Y10100D02*
D03*
X366500Y114600D02*
D03*
Y130400D02*
D03*
X381500Y114600D02*
D03*
Y130400D02*
D03*
X449500Y130400D02*
D03*
Y114600D02*
D03*
X434500Y130400D02*
D03*
Y114600D02*
D03*
X110000Y47100D02*
D03*
Y62900D02*
D03*
X80000Y47100D02*
D03*
Y62900D02*
D03*
X95000Y47100D02*
D03*
Y62900D02*
D03*
X318000Y170400D02*
D03*
Y154600D02*
D03*
X303000Y170400D02*
D03*
Y154600D02*
D03*
X272500Y154600D02*
D03*
Y170400D02*
D03*
X131000Y173900D02*
D03*
Y158100D02*
D03*
X178000Y115100D02*
D03*
Y130900D02*
D03*
X113500Y131900D02*
D03*
Y116100D02*
D03*
X128500D02*
D03*
Y131900D02*
D03*
X381000Y40900D02*
D03*
Y25100D02*
D03*
Y63100D02*
D03*
Y78900D02*
D03*
D22*
X92100Y84100D02*
D03*
X107900D02*
D03*
X229900Y22000D02*
D03*
X214100D02*
D03*
X202100Y176500D02*
D03*
X217900D02*
D03*
X202100Y161500D02*
D03*
X217900D02*
D03*
X285600Y132500D02*
D03*
X301400D02*
D03*
Y117500D02*
D03*
X285600D02*
D03*
X229400Y52500D02*
D03*
X213600D02*
D03*
X214100Y37000D02*
D03*
X229900D02*
D03*
X213600Y82500D02*
D03*
X229400D02*
D03*
X213600Y67500D02*
D03*
X229400D02*
D03*
X164900Y141000D02*
D03*
X149100D02*
D03*
D23*
X254500Y176750D02*
D03*
X245000D02*
D03*
X235500D02*
D03*
Y148250D02*
D03*
X254500D02*
D03*
D24*
X349000Y112300D02*
D03*
Y131700D02*
D03*
X467000Y112800D02*
D03*
Y132200D02*
D03*
D25*
X417602Y136500D02*
D03*
Y108500D02*
D03*
X408102D02*
D03*
X398602Y136500D02*
D03*
Y108500D02*
D03*
D26*
X143500Y80500D02*
D03*
Y75500D02*
D03*
Y70500D02*
D03*
Y65500D02*
D03*
Y60500D02*
D03*
Y55500D02*
D03*
Y50500D02*
D03*
Y45500D02*
D03*
X192500D02*
D03*
Y50500D02*
D03*
Y55500D02*
D03*
Y60500D02*
D03*
Y65500D02*
D03*
Y70500D02*
D03*
Y75500D02*
D03*
Y80500D02*
D03*
D27*
X150500Y38500D02*
D03*
X155500D02*
D03*
X160500D02*
D03*
X165500D02*
D03*
X170500D02*
D03*
X175500D02*
D03*
X180500D02*
D03*
X185500D02*
D03*
Y87500D02*
D03*
X180500D02*
D03*
X175500D02*
D03*
X170500D02*
D03*
X165500D02*
D03*
X160500D02*
D03*
X155500D02*
D03*
X150500D02*
D03*
D28*
X168000Y63000D02*
D03*
D29*
X263000Y10000D02*
D03*
Y51000D02*
D03*
Y64500D02*
D03*
Y105500D02*
D03*
D30*
X151750Y109250D02*
D03*
X162250D02*
D03*
X151750Y122750D02*
D03*
X162250D02*
D03*
D31*
X20500Y50000D02*
D03*
Y81000D02*
D03*
D32*
X486200Y67800D02*
D03*
X399800D02*
D03*
D33*
X486200Y26000D02*
D03*
X399800D02*
D03*
M02*
