G04*
G04 #@! TF.GenerationSoftware,Altium Limited,Altium Designer,24.3.1 (35)*
G04*
G04 Layer_Physical_Order=3*
G04 Layer_Color=16440176*
%FSLAX44Y44*%
%MOMM*%
G71*
G04*
G04 #@! TF.SameCoordinates,098D5FB4-7C3B-420D-97F8-BA0D52642CD7*
G04*
G04*
G04 #@! TF.FilePolarity,Positive*
G04*
G01*
G75*
%ADD32O,1.0500X2.1000*%
%ADD33O,1.0000X2.0000*%
%ADD57C,0.6500*%
%ADD58R,1.5000X1.5000*%
%ADD59C,1.5000*%
%ADD60O,1.1080X2.2600*%
%ADD61C,0.8000*%
%ADD62C,0.7000*%
%ADD63C,0.8000*%
G36*
X471967Y-184716D02*
X472133Y-184744D01*
X472341Y-184799D01*
X472577Y-184869D01*
X472826Y-184966D01*
X473104Y-185091D01*
X472230Y-187101D01*
X472202Y-187088D01*
X472147Y-187074D01*
X472064Y-187032D01*
X471939Y-186991D01*
X471689Y-186921D01*
X471564Y-186907D01*
X471440Y-186893D01*
X471342D01*
X471245Y-186921D01*
X471120Y-186949D01*
X470982Y-187004D01*
X470843Y-187088D01*
X470704Y-187199D01*
X470580Y-187351D01*
Y-187365D01*
X470566Y-187379D01*
X470538Y-187420D01*
X470510Y-187476D01*
X470483Y-187559D01*
X470441Y-187642D01*
X470399Y-187767D01*
X470372Y-187892D01*
X470330Y-188044D01*
X470288Y-188225D01*
X470247Y-188419D01*
X470219Y-188641D01*
X470191Y-188877D01*
X470164Y-189140D01*
X470150Y-189431D01*
Y-189750D01*
Y-192205D01*
X467321D01*
Y-184869D01*
X469956D01*
Y-186061D01*
X469969Y-186047D01*
X469997Y-186006D01*
X470025Y-185950D01*
X470094Y-185812D01*
X470191Y-185645D01*
X470316Y-185479D01*
X470441Y-185299D01*
X470580Y-185132D01*
X470732Y-185007D01*
X470746Y-184993D01*
X470802Y-184966D01*
X470885Y-184910D01*
X471010Y-184855D01*
X471148Y-184799D01*
X471329Y-184744D01*
X471523Y-184716D01*
X471731Y-184702D01*
X471842D01*
X471967Y-184716D01*
D02*
G37*
G36*
X454132Y-192704D02*
Y-192718D01*
X454104Y-192760D01*
X454076Y-192829D01*
X454049Y-192912D01*
X454007Y-193023D01*
X453951Y-193148D01*
X453813Y-193425D01*
X453660Y-193731D01*
X453494Y-194022D01*
X453313Y-194299D01*
X453216Y-194410D01*
X453119Y-194507D01*
X453106Y-194521D01*
X453092Y-194535D01*
X453036Y-194563D01*
X452981Y-194604D01*
X452897Y-194660D01*
X452814Y-194715D01*
X452689Y-194771D01*
X452565Y-194840D01*
X452412Y-194895D01*
X452246Y-194965D01*
X452065Y-195020D01*
X451871Y-195062D01*
X451649Y-195117D01*
X451413Y-195145D01*
X451164Y-195159D01*
X450887Y-195173D01*
X450706D01*
X450623Y-195159D01*
X450526D01*
X450429Y-195145D01*
X450304D01*
X450151Y-195131D01*
X449999Y-195117D01*
X449833Y-195103D01*
X449652Y-195090D01*
X449444Y-195062D01*
X449236Y-195034D01*
X449000Y-195006D01*
X448792Y-193037D01*
X448806D01*
X448820Y-193051D01*
X448903Y-193065D01*
X449014Y-193093D01*
X449181Y-193134D01*
X449389Y-193176D01*
X449611Y-193204D01*
X449860Y-193217D01*
X450138Y-193231D01*
X450221D01*
X450318Y-193217D01*
X450429Y-193204D01*
X450554Y-193176D01*
X450692Y-193134D01*
X450817Y-193079D01*
X450942Y-192995D01*
X450956Y-192982D01*
X450998Y-192954D01*
X451053Y-192898D01*
X451122Y-192815D01*
X451205Y-192704D01*
X451289Y-192566D01*
X451386Y-192399D01*
X451469Y-192205D01*
X448390Y-184869D01*
X451358D01*
X452870Y-189764D01*
X454284Y-184869D01*
X457058D01*
X454132Y-192704D01*
D02*
G37*
G36*
X482493Y-181915D02*
X482631D01*
X482784Y-181929D01*
X482964Y-181942D01*
X483339Y-181984D01*
X483713Y-182053D01*
X484087Y-182136D01*
X484254Y-182192D01*
X484420Y-182248D01*
X484434D01*
X484462Y-182261D01*
X484504Y-182289D01*
X484559Y-182317D01*
X484712Y-182386D01*
X484892Y-182497D01*
X485100Y-182650D01*
X485322Y-182830D01*
X485530Y-183038D01*
X485724Y-183288D01*
Y-183302D01*
X485752Y-183315D01*
X485766Y-183357D01*
X485807Y-183412D01*
X485877Y-183551D01*
X485974Y-183745D01*
X486057Y-183981D01*
X486140Y-184244D01*
X486195Y-184536D01*
X486209Y-184855D01*
Y-184869D01*
Y-184896D01*
Y-184952D01*
X486195Y-185007D01*
Y-185091D01*
X486182Y-185188D01*
X486140Y-185423D01*
X486071Y-185701D01*
X485974Y-185992D01*
X485835Y-186311D01*
X485655Y-186630D01*
Y-186644D01*
X485627Y-186672D01*
X485599Y-186713D01*
X485544Y-186769D01*
X485488Y-186852D01*
X485405Y-186949D01*
X485322Y-187046D01*
X485211Y-187171D01*
X485086Y-187309D01*
X484934Y-187448D01*
X484781Y-187601D01*
X484601Y-187753D01*
X484393Y-187934D01*
X484185Y-188100D01*
X483949Y-188280D01*
X483685Y-188474D01*
X483671D01*
X483644Y-188502D01*
X483602Y-188530D01*
X483547Y-188571D01*
X483408Y-188669D01*
X483228Y-188793D01*
X483033Y-188932D01*
X482853Y-189071D01*
X482687Y-189196D01*
X482548Y-189293D01*
X482534Y-189307D01*
X482493Y-189334D01*
X482437Y-189390D01*
X482354Y-189459D01*
X482257Y-189542D01*
X482146Y-189653D01*
X482021Y-189764D01*
X481882Y-189903D01*
X486279D01*
Y-192205D01*
X477833D01*
Y-192191D01*
X477847Y-192150D01*
Y-192080D01*
X477861Y-191997D01*
X477888Y-191886D01*
X477916Y-191747D01*
X477958Y-191609D01*
X477999Y-191442D01*
X478110Y-191082D01*
X478263Y-190693D01*
X478457Y-190277D01*
X478582Y-190069D01*
X478707Y-189861D01*
X478720Y-189847D01*
X478748Y-189806D01*
X478790Y-189750D01*
X478859Y-189667D01*
X478942Y-189556D01*
X479053Y-189431D01*
X479178Y-189279D01*
X479331Y-189112D01*
X479497Y-188932D01*
X479705Y-188738D01*
X479927Y-188516D01*
X480177Y-188294D01*
X480454Y-188044D01*
X480773Y-187795D01*
X481106Y-187531D01*
X481466Y-187254D01*
X481480Y-187240D01*
X481522Y-187212D01*
X481577Y-187171D01*
X481660Y-187101D01*
X481758Y-187032D01*
X481882Y-186935D01*
X482132Y-186741D01*
X482396Y-186519D01*
X482659Y-186283D01*
X482770Y-186172D01*
X482881Y-186061D01*
X482978Y-185964D01*
X483047Y-185867D01*
X483061Y-185839D01*
X483103Y-185784D01*
X483158Y-185687D01*
X483228Y-185576D01*
X483297Y-185423D01*
X483353Y-185271D01*
X483394Y-185118D01*
X483408Y-184952D01*
Y-184938D01*
Y-184869D01*
X483394Y-184785D01*
X483366Y-184674D01*
X483325Y-184564D01*
X483255Y-184425D01*
X483172Y-184286D01*
X483061Y-184161D01*
X483047Y-184147D01*
X483006Y-184106D01*
X482923Y-184050D01*
X482826Y-183995D01*
X482701Y-183939D01*
X482548Y-183884D01*
X482382Y-183842D01*
X482201Y-183829D01*
X482118D01*
X482007Y-183842D01*
X481882Y-183870D01*
X481744Y-183912D01*
X481605Y-183981D01*
X481452Y-184064D01*
X481314Y-184175D01*
X481300Y-184189D01*
X481258Y-184244D01*
X481203Y-184328D01*
X481133Y-184453D01*
X481050Y-184619D01*
X480981Y-184813D01*
X480912Y-185063D01*
X480856Y-185368D01*
X478041Y-185146D01*
Y-185132D01*
X478055Y-185091D01*
Y-185035D01*
X478069Y-184952D01*
X478096Y-184855D01*
X478110Y-184730D01*
X478180Y-184466D01*
X478249Y-184161D01*
X478360Y-183856D01*
X478485Y-183565D01*
X478637Y-183288D01*
Y-183274D01*
X478665Y-183260D01*
X478720Y-183177D01*
X478817Y-183052D01*
X478956Y-182913D01*
X479137Y-182747D01*
X479358Y-182567D01*
X479608Y-182414D01*
X479885Y-182261D01*
X479899D01*
X479927Y-182248D01*
X479969Y-182234D01*
X480038Y-182206D01*
X480121Y-182178D01*
X480218Y-182150D01*
X480329Y-182109D01*
X480468Y-182081D01*
X480620Y-182053D01*
X480787Y-182012D01*
X480967Y-181984D01*
X481161Y-181956D01*
X481383Y-181929D01*
X481619Y-181915D01*
X481855Y-181901D01*
X482368D01*
X482493Y-181915D01*
D02*
G37*
G36*
X443869Y-184716D02*
X444146D01*
X444479Y-184744D01*
X444812Y-184771D01*
X445145Y-184799D01*
X445450Y-184855D01*
X445492D01*
X445519Y-184869D01*
X445575Y-184883D01*
X445728Y-184924D01*
X445908Y-184980D01*
X446102Y-185063D01*
X446324Y-185160D01*
X446532Y-185285D01*
X446740Y-185437D01*
X446754Y-185451D01*
X446795Y-185493D01*
X446865Y-185562D01*
X446948Y-185673D01*
X447031Y-185798D01*
X447128Y-185950D01*
X447225Y-186117D01*
X447309Y-186325D01*
X447322Y-186353D01*
X447336Y-186422D01*
X447378Y-186533D01*
X447420Y-186672D01*
X447447Y-186838D01*
X447489Y-187018D01*
X447503Y-187212D01*
X447517Y-187407D01*
Y-190652D01*
Y-190679D01*
Y-190735D01*
Y-190832D01*
X447530Y-190943D01*
Y-191082D01*
X447544Y-191206D01*
X447558Y-191345D01*
X447572Y-191470D01*
Y-191484D01*
X447586Y-191525D01*
X447600Y-191581D01*
X447641Y-191664D01*
X447669Y-191775D01*
X447725Y-191900D01*
X447794Y-192052D01*
X447863Y-192205D01*
X445228D01*
Y-192191D01*
X445201Y-192163D01*
X445173Y-192108D01*
X445145Y-192052D01*
X445062Y-191900D01*
X445006Y-191775D01*
Y-191761D01*
Y-191747D01*
X444992Y-191706D01*
X444979Y-191664D01*
X444965Y-191595D01*
X444951Y-191512D01*
X444937Y-191415D01*
X444923Y-191304D01*
X444895Y-191331D01*
X444826Y-191387D01*
X444715Y-191484D01*
X444576Y-191595D01*
X444410Y-191733D01*
X444216Y-191858D01*
X444022Y-191969D01*
X443814Y-192066D01*
X443800D01*
X443786Y-192080D01*
X443744Y-192094D01*
X443675Y-192108D01*
X443606Y-192136D01*
X443522Y-192163D01*
X443314Y-192219D01*
X443065Y-192274D01*
X442774Y-192330D01*
X442441Y-192358D01*
X442080Y-192371D01*
X441955D01*
X441858Y-192358D01*
X441761D01*
X441623Y-192344D01*
X441331Y-192302D01*
X441012Y-192219D01*
X440679Y-192122D01*
X440360Y-191969D01*
X440222Y-191886D01*
X440083Y-191775D01*
X440069Y-191761D01*
X440055Y-191747D01*
X439972Y-191664D01*
X439875Y-191539D01*
X439750Y-191359D01*
X439625Y-191137D01*
X439515Y-190888D01*
X439431Y-190596D01*
X439417Y-190444D01*
X439403Y-190277D01*
Y-190263D01*
Y-190236D01*
Y-190194D01*
X439417Y-190139D01*
X439431Y-189986D01*
X439459Y-189792D01*
X439528Y-189570D01*
X439612Y-189334D01*
X439723Y-189112D01*
X439889Y-188904D01*
X439917Y-188877D01*
X439986Y-188821D01*
X440042Y-188766D01*
X440111Y-188724D01*
X440208Y-188669D01*
X440305Y-188599D01*
X440416Y-188530D01*
X440555Y-188474D01*
X440707Y-188405D01*
X440860Y-188336D01*
X441054Y-188266D01*
X441248Y-188211D01*
X441470Y-188155D01*
X441706Y-188100D01*
X441720D01*
X441775Y-188086D01*
X441858Y-188072D01*
X441969Y-188044D01*
X442094Y-188017D01*
X442233Y-187989D01*
X442565Y-187920D01*
X442912Y-187850D01*
X443245Y-187781D01*
X443411Y-187739D01*
X443550Y-187712D01*
X443675Y-187684D01*
X443772Y-187656D01*
X443800D01*
X443855Y-187628D01*
X443952Y-187601D01*
X444077Y-187559D01*
X444230Y-187504D01*
X444396Y-187448D01*
X444576Y-187379D01*
X444771Y-187309D01*
Y-187282D01*
Y-187226D01*
X444757Y-187129D01*
X444743Y-187032D01*
X444715Y-186907D01*
X444674Y-186782D01*
X444618Y-186685D01*
X444549Y-186588D01*
X444535Y-186574D01*
X444507Y-186561D01*
X444452Y-186519D01*
X444368Y-186477D01*
X444271Y-186450D01*
X444133Y-186408D01*
X443980Y-186394D01*
X443786Y-186380D01*
X443675D01*
X443550Y-186394D01*
X443398Y-186408D01*
X443231Y-186436D01*
X443051Y-186477D01*
X442884Y-186533D01*
X442746Y-186602D01*
X442732Y-186616D01*
X442704Y-186644D01*
X442649Y-186685D01*
X442593Y-186755D01*
X442524Y-186838D01*
X442455Y-186949D01*
X442385Y-187088D01*
X442316Y-187254D01*
X439625Y-186963D01*
Y-186949D01*
X439639Y-186935D01*
X439653Y-186852D01*
X439681Y-186727D01*
X439736Y-186561D01*
X439792Y-186394D01*
X439861Y-186214D01*
X439958Y-186034D01*
X440055Y-185867D01*
X440069Y-185853D01*
X440111Y-185798D01*
X440180Y-185715D01*
X440263Y-185618D01*
X440388Y-185507D01*
X440527Y-185396D01*
X440693Y-185271D01*
X440887Y-185160D01*
X440901Y-185146D01*
X440957Y-185118D01*
X441040Y-185077D01*
X441165Y-185035D01*
X441317Y-184980D01*
X441498Y-184924D01*
X441720Y-184869D01*
X441955Y-184827D01*
X441983D01*
X442025Y-184813D01*
X442080D01*
X442219Y-184785D01*
X442399Y-184758D01*
X442607Y-184744D01*
X442857Y-184716D01*
X443134Y-184702D01*
X443744D01*
X443869Y-184716D01*
D02*
G37*
G36*
X433634Y-189709D02*
X438516D01*
Y-192205D01*
X430500D01*
Y-182067D01*
X433634D01*
Y-189709D01*
D02*
G37*
G36*
X461912Y-184716D02*
X462037D01*
X462189Y-184730D01*
X462370Y-184744D01*
X462550Y-184758D01*
X462938Y-184827D01*
X463354Y-184910D01*
X463756Y-185021D01*
X463951Y-185104D01*
X464131Y-185188D01*
X464145D01*
X464173Y-185215D01*
X464214Y-185243D01*
X464283Y-185271D01*
X464450Y-185382D01*
X464644Y-185534D01*
X464866Y-185728D01*
X465102Y-185964D01*
X465324Y-186255D01*
X465518Y-186574D01*
Y-186588D01*
X465545Y-186616D01*
X465559Y-186672D01*
X465601Y-186741D01*
X465629Y-186824D01*
X465670Y-186935D01*
X465712Y-187060D01*
X465767Y-187212D01*
X465809Y-187365D01*
X465851Y-187545D01*
X465892Y-187739D01*
X465934Y-187947D01*
X465961Y-188169D01*
X465989Y-188419D01*
X466003Y-188669D01*
Y-188932D01*
Y-189237D01*
X460359D01*
Y-189251D01*
Y-189265D01*
X460373Y-189348D01*
X460400Y-189473D01*
X460428Y-189612D01*
X460484Y-189778D01*
X460539Y-189944D01*
X460622Y-190111D01*
X460719Y-190250D01*
X460733Y-190263D01*
X460789Y-190319D01*
X460886Y-190402D01*
X461011Y-190485D01*
X461163Y-190569D01*
X461343Y-190652D01*
X461551Y-190707D01*
X461787Y-190721D01*
X461856D01*
X461940Y-190707D01*
X462037Y-190693D01*
X462162Y-190679D01*
X462300Y-190638D01*
X462439Y-190596D01*
X462578Y-190527D01*
X462592Y-190513D01*
X462619Y-190499D01*
X462661Y-190471D01*
X462730Y-190416D01*
X462799Y-190347D01*
X462883Y-190263D01*
X462980Y-190166D01*
X463077Y-190055D01*
X465851Y-190305D01*
X465837Y-190319D01*
X465823Y-190347D01*
X465781Y-190416D01*
X465740Y-190485D01*
X465670Y-190582D01*
X465601Y-190679D01*
X465421Y-190915D01*
X465199Y-191179D01*
X464935Y-191442D01*
X464630Y-191692D01*
X464478Y-191803D01*
X464311Y-191900D01*
X464297D01*
X464270Y-191914D01*
X464214Y-191942D01*
X464145Y-191969D01*
X464048Y-192011D01*
X463937Y-192052D01*
X463798Y-192094D01*
X463646Y-192136D01*
X463479Y-192177D01*
X463285Y-192219D01*
X463077Y-192260D01*
X462841Y-192302D01*
X462592Y-192330D01*
X462328Y-192358D01*
X462037Y-192371D01*
X461496D01*
X461371Y-192358D01*
X461232Y-192344D01*
X461066D01*
X460900Y-192316D01*
X460525Y-192274D01*
X460151Y-192205D01*
X459776Y-192108D01*
X459596Y-192039D01*
X459430Y-191969D01*
X459416D01*
X459388Y-191955D01*
X459346Y-191928D01*
X459291Y-191886D01*
X459138Y-191789D01*
X458944Y-191650D01*
X458722Y-191470D01*
X458500Y-191248D01*
X458265Y-190971D01*
X458043Y-190666D01*
Y-190652D01*
X458015Y-190624D01*
X457987Y-190569D01*
X457959Y-190499D01*
X457918Y-190416D01*
X457876Y-190319D01*
X457821Y-190194D01*
X457779Y-190069D01*
X457724Y-189917D01*
X457668Y-189750D01*
X457585Y-189390D01*
X457529Y-188988D01*
X457502Y-188558D01*
Y-188544D01*
Y-188474D01*
X457516Y-188391D01*
Y-188266D01*
X457529Y-188128D01*
X457557Y-187961D01*
X457599Y-187767D01*
X457640Y-187559D01*
X457696Y-187351D01*
X457765Y-187115D01*
X457862Y-186893D01*
X457959Y-186658D01*
X458084Y-186422D01*
X458237Y-186200D01*
X458403Y-185978D01*
X458597Y-185770D01*
X458611Y-185756D01*
X458653Y-185728D01*
X458708Y-185673D01*
X458805Y-185604D01*
X458916Y-185520D01*
X459041Y-185437D01*
X459208Y-185340D01*
X459388Y-185229D01*
X459596Y-185132D01*
X459818Y-185035D01*
X460081Y-184952D01*
X460345Y-184869D01*
X460636Y-184799D01*
X460955Y-184744D01*
X461288Y-184716D01*
X461648Y-184702D01*
X461801D01*
X461912Y-184716D01*
D02*
G37*
%LPC*%
G36*
X444771Y-188724D02*
X444743Y-188738D01*
X444674Y-188752D01*
X444549Y-188793D01*
X444396Y-188849D01*
X444216Y-188904D01*
X444008Y-188974D01*
X443786Y-189029D01*
X443550Y-189098D01*
X443536D01*
X443509Y-189112D01*
X443467Y-189126D01*
X443411Y-189140D01*
X443259Y-189182D01*
X443092Y-189237D01*
X442898Y-189307D01*
X442718Y-189376D01*
X442565Y-189459D01*
X442510Y-189501D01*
X442455Y-189542D01*
X442441Y-189556D01*
X442413Y-189584D01*
X442385Y-189625D01*
X442344Y-189695D01*
X442260Y-189847D01*
X442233Y-189944D01*
X442219Y-190055D01*
Y-190069D01*
Y-190111D01*
X442233Y-190166D01*
X442247Y-190250D01*
X442274Y-190333D01*
X442316Y-190430D01*
X442371Y-190513D01*
X442441Y-190596D01*
X442455Y-190610D01*
X442482Y-190624D01*
X442538Y-190666D01*
X442621Y-190693D01*
X442718Y-190735D01*
X442829Y-190777D01*
X442968Y-190790D01*
X443134Y-190804D01*
X443217D01*
X443301Y-190790D01*
X443425Y-190777D01*
X443550Y-190749D01*
X443703Y-190707D01*
X443855Y-190652D01*
X444008Y-190582D01*
X444022Y-190569D01*
X444077Y-190541D01*
X444146Y-190499D01*
X444244Y-190430D01*
X444327Y-190347D01*
X444424Y-190263D01*
X444521Y-190152D01*
X444590Y-190042D01*
X444604Y-190028D01*
X444618Y-189986D01*
X444646Y-189903D01*
X444687Y-189806D01*
X444715Y-189681D01*
X444743Y-189542D01*
X444757Y-189376D01*
X444771Y-189182D01*
Y-188724D01*
D02*
G37*
G36*
X461759Y-186366D02*
X461732D01*
X461648Y-186380D01*
X461524Y-186394D01*
X461371Y-186436D01*
X461205Y-186491D01*
X461024Y-186588D01*
X460858Y-186727D01*
X460691Y-186907D01*
X460678Y-186921D01*
X460650Y-186963D01*
X460608Y-187046D01*
X460553Y-187157D01*
X460497Y-187296D01*
X460442Y-187462D01*
X460386Y-187656D01*
X460359Y-187892D01*
X463146D01*
Y-187878D01*
Y-187850D01*
X463132Y-187809D01*
Y-187753D01*
X463105Y-187615D01*
X463063Y-187434D01*
X463008Y-187254D01*
X462924Y-187060D01*
X462827Y-186880D01*
X462702Y-186727D01*
X462689Y-186713D01*
X462633Y-186672D01*
X462564Y-186616D01*
X462453Y-186547D01*
X462314Y-186477D01*
X462148Y-186422D01*
X461967Y-186380D01*
X461759Y-186366D01*
D02*
G37*
%LPD*%
D32*
X486200Y67800D02*
D03*
X399800D02*
D03*
D33*
X486200Y26000D02*
D03*
X399800D02*
D03*
D57*
X414100Y62800D02*
D03*
X471900D02*
D03*
D58*
X477800Y183000D02*
D03*
D59*
X452400D02*
D03*
X427000D02*
D03*
X401600D02*
D03*
X376200D02*
D03*
D60*
X152400Y170099D02*
D03*
X177800D02*
D03*
X165100D02*
D03*
D61*
X98000Y116000D02*
D03*
X121000Y131900D02*
D03*
X136000Y35000D02*
D03*
X191000Y9000D02*
D03*
X331375Y110000D02*
D03*
X228375Y162000D02*
D03*
X202771Y153000D02*
D03*
X245500Y188000D02*
D03*
X228875D02*
D03*
X179000D02*
D03*
Y153000D02*
D03*
X195625Y188000D02*
D03*
X212250D02*
D03*
X245000Y162000D02*
D03*
X110000Y99000D02*
D03*
X89000D02*
D03*
X102500Y62900D02*
D03*
X244000Y137000D02*
D03*
X192000Y125000D02*
D03*
X202000Y132000D02*
D03*
X263000Y147000D02*
D03*
X374000Y114000D02*
D03*
X408000Y116000D02*
D03*
X442000Y131000D02*
D03*
X162950Y131950D02*
D03*
X144000Y109000D02*
D03*
X241000Y37000D02*
D03*
X229400Y60000D02*
D03*
X199000Y35000D02*
D03*
X102500Y47100D02*
D03*
X264000Y35000D02*
D03*
X467000Y83000D02*
D03*
X419000D02*
D03*
X132000Y58000D02*
D03*
Y68000D02*
D03*
D62*
X157000Y74000D02*
D03*
X168000D02*
D03*
X179000D02*
D03*
X157000Y63000D02*
D03*
X168000D02*
D03*
X179000D02*
D03*
X157000Y52000D02*
D03*
X168000D02*
D03*
X179000D02*
D03*
D63*
X98000Y116000D02*
X113000D01*
X122000Y107000D01*
Y97000D02*
Y107000D01*
Y97000D02*
X318375D01*
X102500Y62900D02*
X122000Y82400D01*
Y97000D01*
X318375D02*
X331375Y110000D01*
M02*
