G04*
G04 #@! TF.GenerationSoftware,Altium Limited,Altium Designer,24.3.1 (35)*
G04*
G04 Layer_Physical_Order=2*
G04 Layer_Color=36540*
%FSLAX44Y44*%
%MOMM*%
G71*
G04*
G04 #@! TF.SameCoordinates,098D5FB4-7C3B-420D-97F8-BA0D52642CD7*
G04*
G04*
G04 #@! TF.FilePolarity,Positive*
G04*
G01*
G75*
%ADD32O,1.0500X2.1000*%
%ADD33O,1.0000X2.0000*%
%ADD57C,0.6500*%
%ADD58R,1.5000X1.5000*%
%ADD59C,1.5000*%
%ADD60O,1.1080X2.2600*%
%ADD61C,0.8000*%
%ADD62C,0.7000*%
G36*
X493719Y197003D02*
X495687Y195688D01*
X497003Y193719D01*
X497445Y191495D01*
X497425Y191397D01*
Y8602D01*
X497445Y8504D01*
X497003Y6280D01*
X495687Y4312D01*
X493719Y2996D01*
X491495Y2554D01*
X491397Y2573D01*
X72000D01*
Y197426D01*
X491397D01*
X491495Y197446D01*
X493719Y197003D01*
D02*
G37*
G36*
X471967Y-158699D02*
X472133Y-158727D01*
X472341Y-158783D01*
X472577Y-158852D01*
X472826Y-158949D01*
X473104Y-159074D01*
X472230Y-161085D01*
X472202Y-161071D01*
X472147Y-161057D01*
X472064Y-161015D01*
X471939Y-160974D01*
X471689Y-160904D01*
X471564Y-160891D01*
X471440Y-160877D01*
X471342D01*
X471245Y-160904D01*
X471120Y-160932D01*
X470982Y-160988D01*
X470843Y-161071D01*
X470704Y-161182D01*
X470580Y-161334D01*
Y-161348D01*
X470566Y-161362D01*
X470538Y-161404D01*
X470510Y-161459D01*
X470483Y-161542D01*
X470441Y-161625D01*
X470399Y-161750D01*
X470372Y-161875D01*
X470330Y-162028D01*
X470288Y-162208D01*
X470247Y-162402D01*
X470219Y-162624D01*
X470191Y-162860D01*
X470164Y-163123D01*
X470150Y-163415D01*
Y-163734D01*
Y-166188D01*
X467321D01*
Y-158852D01*
X469956D01*
Y-160044D01*
X469969Y-160031D01*
X469997Y-159989D01*
X470025Y-159934D01*
X470094Y-159795D01*
X470191Y-159628D01*
X470316Y-159462D01*
X470441Y-159282D01*
X470580Y-159115D01*
X470732Y-158990D01*
X470746Y-158977D01*
X470802Y-158949D01*
X470885Y-158893D01*
X471010Y-158838D01*
X471148Y-158783D01*
X471329Y-158727D01*
X471523Y-158699D01*
X471731Y-158685D01*
X471842D01*
X471967Y-158699D01*
D02*
G37*
G36*
X454132Y-166688D02*
Y-166701D01*
X454104Y-166743D01*
X454076Y-166812D01*
X454049Y-166896D01*
X454007Y-167006D01*
X453951Y-167131D01*
X453813Y-167409D01*
X453660Y-167714D01*
X453494Y-168005D01*
X453313Y-168282D01*
X453216Y-168393D01*
X453119Y-168490D01*
X453106Y-168504D01*
X453092Y-168518D01*
X453036Y-168546D01*
X452981Y-168587D01*
X452897Y-168643D01*
X452814Y-168698D01*
X452689Y-168754D01*
X452565Y-168823D01*
X452412Y-168879D01*
X452246Y-168948D01*
X452065Y-169004D01*
X451871Y-169045D01*
X451649Y-169101D01*
X451413Y-169128D01*
X451164Y-169142D01*
X450887Y-169156D01*
X450706D01*
X450623Y-169142D01*
X450526D01*
X450429Y-169128D01*
X450304D01*
X450151Y-169114D01*
X449999Y-169101D01*
X449833Y-169087D01*
X449652Y-169073D01*
X449444Y-169045D01*
X449236Y-169017D01*
X449000Y-168990D01*
X448792Y-167020D01*
X448806D01*
X448820Y-167034D01*
X448903Y-167048D01*
X449014Y-167076D01*
X449181Y-167117D01*
X449389Y-167159D01*
X449611Y-167187D01*
X449860Y-167201D01*
X450138Y-167215D01*
X450221D01*
X450318Y-167201D01*
X450429Y-167187D01*
X450554Y-167159D01*
X450692Y-167117D01*
X450817Y-167062D01*
X450942Y-166979D01*
X450956Y-166965D01*
X450998Y-166937D01*
X451053Y-166882D01*
X451122Y-166798D01*
X451205Y-166688D01*
X451289Y-166549D01*
X451386Y-166382D01*
X451469Y-166188D01*
X448390Y-158852D01*
X451358D01*
X452870Y-163747D01*
X454284Y-158852D01*
X457058D01*
X454132Y-166688D01*
D02*
G37*
G36*
X484420Y-166188D02*
X481577D01*
Y-159448D01*
X481563D01*
X481550Y-159476D01*
X481508Y-159504D01*
X481452Y-159531D01*
X481328Y-159628D01*
X481147Y-159739D01*
X480939Y-159878D01*
X480718Y-160017D01*
X480482Y-160156D01*
X480232Y-160294D01*
X480218D01*
X480204Y-160308D01*
X480163Y-160322D01*
X480121Y-160350D01*
X479982Y-160405D01*
X479788Y-160488D01*
X479552Y-160585D01*
X479289Y-160683D01*
X478970Y-160793D01*
X478623Y-160904D01*
Y-158602D01*
X478637D01*
X478693Y-158574D01*
X478762Y-158561D01*
X478859Y-158519D01*
X478984Y-158477D01*
X479123Y-158422D01*
X479275Y-158366D01*
X479442Y-158297D01*
X479788Y-158131D01*
X480163Y-157936D01*
X480523Y-157729D01*
X480690Y-157618D01*
X480842Y-157493D01*
X480856Y-157479D01*
X480884Y-157465D01*
X480925Y-157423D01*
X480967Y-157382D01*
X481120Y-157229D01*
X481300Y-157049D01*
X481494Y-156813D01*
X481702Y-156536D01*
X481910Y-156231D01*
X482090Y-155884D01*
X484420D01*
Y-166188D01*
D02*
G37*
G36*
X443869Y-158699D02*
X444146D01*
X444479Y-158727D01*
X444812Y-158755D01*
X445145Y-158783D01*
X445450Y-158838D01*
X445492D01*
X445519Y-158852D01*
X445575Y-158866D01*
X445728Y-158907D01*
X445908Y-158963D01*
X446102Y-159046D01*
X446324Y-159143D01*
X446532Y-159268D01*
X446740Y-159420D01*
X446754Y-159434D01*
X446795Y-159476D01*
X446865Y-159545D01*
X446948Y-159656D01*
X447031Y-159781D01*
X447128Y-159934D01*
X447225Y-160100D01*
X447309Y-160308D01*
X447322Y-160336D01*
X447336Y-160405D01*
X447378Y-160516D01*
X447420Y-160655D01*
X447447Y-160821D01*
X447489Y-161001D01*
X447503Y-161196D01*
X447517Y-161390D01*
Y-164635D01*
Y-164663D01*
Y-164718D01*
Y-164815D01*
X447530Y-164926D01*
Y-165065D01*
X447544Y-165190D01*
X447558Y-165328D01*
X447572Y-165453D01*
Y-165467D01*
X447586Y-165509D01*
X447600Y-165564D01*
X447641Y-165647D01*
X447669Y-165758D01*
X447725Y-165883D01*
X447794Y-166036D01*
X447863Y-166188D01*
X445228D01*
Y-166174D01*
X445201Y-166147D01*
X445173Y-166091D01*
X445145Y-166036D01*
X445062Y-165883D01*
X445006Y-165758D01*
Y-165744D01*
Y-165731D01*
X444992Y-165689D01*
X444979Y-165647D01*
X444965Y-165578D01*
X444951Y-165495D01*
X444937Y-165398D01*
X444923Y-165287D01*
X444895Y-165315D01*
X444826Y-165370D01*
X444715Y-165467D01*
X444576Y-165578D01*
X444410Y-165717D01*
X444216Y-165842D01*
X444022Y-165952D01*
X443814Y-166050D01*
X443800D01*
X443786Y-166063D01*
X443744Y-166077D01*
X443675Y-166091D01*
X443606Y-166119D01*
X443522Y-166147D01*
X443314Y-166202D01*
X443065Y-166258D01*
X442774Y-166313D01*
X442441Y-166341D01*
X442080Y-166355D01*
X441955D01*
X441858Y-166341D01*
X441761D01*
X441623Y-166327D01*
X441331Y-166285D01*
X441012Y-166202D01*
X440679Y-166105D01*
X440360Y-165952D01*
X440222Y-165869D01*
X440083Y-165758D01*
X440069Y-165744D01*
X440055Y-165731D01*
X439972Y-165647D01*
X439875Y-165523D01*
X439750Y-165342D01*
X439625Y-165120D01*
X439515Y-164871D01*
X439431Y-164580D01*
X439417Y-164427D01*
X439403Y-164261D01*
Y-164247D01*
Y-164219D01*
Y-164177D01*
X439417Y-164122D01*
X439431Y-163969D01*
X439459Y-163775D01*
X439528Y-163553D01*
X439612Y-163318D01*
X439723Y-163096D01*
X439889Y-162888D01*
X439917Y-162860D01*
X439986Y-162804D01*
X440042Y-162749D01*
X440111Y-162707D01*
X440208Y-162652D01*
X440305Y-162582D01*
X440416Y-162513D01*
X440555Y-162458D01*
X440707Y-162388D01*
X440860Y-162319D01*
X441054Y-162250D01*
X441248Y-162194D01*
X441470Y-162139D01*
X441706Y-162083D01*
X441720D01*
X441775Y-162069D01*
X441858Y-162055D01*
X441969Y-162028D01*
X442094Y-162000D01*
X442233Y-161972D01*
X442565Y-161903D01*
X442912Y-161834D01*
X443245Y-161764D01*
X443411Y-161723D01*
X443550Y-161695D01*
X443675Y-161667D01*
X443772Y-161639D01*
X443800D01*
X443855Y-161612D01*
X443952Y-161584D01*
X444077Y-161542D01*
X444230Y-161487D01*
X444396Y-161431D01*
X444576Y-161362D01*
X444771Y-161293D01*
Y-161265D01*
Y-161210D01*
X444757Y-161112D01*
X444743Y-161015D01*
X444715Y-160891D01*
X444674Y-160766D01*
X444618Y-160669D01*
X444549Y-160571D01*
X444535Y-160558D01*
X444507Y-160544D01*
X444452Y-160502D01*
X444368Y-160461D01*
X444271Y-160433D01*
X444133Y-160391D01*
X443980Y-160377D01*
X443786Y-160364D01*
X443675D01*
X443550Y-160377D01*
X443398Y-160391D01*
X443231Y-160419D01*
X443051Y-160461D01*
X442884Y-160516D01*
X442746Y-160585D01*
X442732Y-160599D01*
X442704Y-160627D01*
X442649Y-160669D01*
X442593Y-160738D01*
X442524Y-160821D01*
X442455Y-160932D01*
X442385Y-161071D01*
X442316Y-161237D01*
X439625Y-160946D01*
Y-160932D01*
X439639Y-160918D01*
X439653Y-160835D01*
X439681Y-160710D01*
X439736Y-160544D01*
X439792Y-160377D01*
X439861Y-160197D01*
X439958Y-160017D01*
X440055Y-159850D01*
X440069Y-159837D01*
X440111Y-159781D01*
X440180Y-159698D01*
X440263Y-159601D01*
X440388Y-159490D01*
X440527Y-159379D01*
X440693Y-159254D01*
X440887Y-159143D01*
X440901Y-159129D01*
X440957Y-159101D01*
X441040Y-159060D01*
X441165Y-159018D01*
X441317Y-158963D01*
X441498Y-158907D01*
X441720Y-158852D01*
X441955Y-158810D01*
X441983D01*
X442025Y-158796D01*
X442080D01*
X442219Y-158769D01*
X442399Y-158741D01*
X442607Y-158727D01*
X442857Y-158699D01*
X443134Y-158685D01*
X443744D01*
X443869Y-158699D01*
D02*
G37*
G36*
X433634Y-163692D02*
X438516D01*
Y-166188D01*
X430500D01*
Y-156050D01*
X433634D01*
Y-163692D01*
D02*
G37*
G36*
X461912Y-158699D02*
X462037D01*
X462189Y-158713D01*
X462370Y-158727D01*
X462550Y-158741D01*
X462938Y-158810D01*
X463354Y-158893D01*
X463756Y-159004D01*
X463951Y-159088D01*
X464131Y-159171D01*
X464145D01*
X464173Y-159199D01*
X464214Y-159226D01*
X464283Y-159254D01*
X464450Y-159365D01*
X464644Y-159517D01*
X464866Y-159712D01*
X465102Y-159948D01*
X465324Y-160239D01*
X465518Y-160558D01*
Y-160571D01*
X465545Y-160599D01*
X465559Y-160655D01*
X465601Y-160724D01*
X465629Y-160807D01*
X465670Y-160918D01*
X465712Y-161043D01*
X465767Y-161196D01*
X465809Y-161348D01*
X465851Y-161528D01*
X465892Y-161723D01*
X465934Y-161931D01*
X465961Y-162153D01*
X465989Y-162402D01*
X466003Y-162652D01*
Y-162915D01*
Y-163220D01*
X460359D01*
Y-163234D01*
Y-163248D01*
X460373Y-163331D01*
X460400Y-163456D01*
X460428Y-163595D01*
X460484Y-163761D01*
X460539Y-163928D01*
X460622Y-164094D01*
X460719Y-164233D01*
X460733Y-164247D01*
X460789Y-164302D01*
X460886Y-164385D01*
X461011Y-164469D01*
X461163Y-164552D01*
X461343Y-164635D01*
X461551Y-164690D01*
X461787Y-164704D01*
X461856D01*
X461940Y-164690D01*
X462037Y-164677D01*
X462162Y-164663D01*
X462300Y-164621D01*
X462439Y-164580D01*
X462578Y-164510D01*
X462592Y-164496D01*
X462619Y-164482D01*
X462661Y-164455D01*
X462730Y-164399D01*
X462799Y-164330D01*
X462883Y-164247D01*
X462980Y-164150D01*
X463077Y-164039D01*
X465851Y-164288D01*
X465837Y-164302D01*
X465823Y-164330D01*
X465781Y-164399D01*
X465740Y-164469D01*
X465670Y-164566D01*
X465601Y-164663D01*
X465421Y-164898D01*
X465199Y-165162D01*
X464935Y-165425D01*
X464630Y-165675D01*
X464478Y-165786D01*
X464311Y-165883D01*
X464297D01*
X464270Y-165897D01*
X464214Y-165925D01*
X464145Y-165952D01*
X464048Y-165994D01*
X463937Y-166036D01*
X463798Y-166077D01*
X463646Y-166119D01*
X463479Y-166161D01*
X463285Y-166202D01*
X463077Y-166244D01*
X462841Y-166285D01*
X462592Y-166313D01*
X462328Y-166341D01*
X462037Y-166355D01*
X461496D01*
X461371Y-166341D01*
X461232Y-166327D01*
X461066D01*
X460900Y-166299D01*
X460525Y-166258D01*
X460151Y-166188D01*
X459776Y-166091D01*
X459596Y-166022D01*
X459430Y-165952D01*
X459416D01*
X459388Y-165939D01*
X459346Y-165911D01*
X459291Y-165869D01*
X459138Y-165772D01*
X458944Y-165634D01*
X458722Y-165453D01*
X458500Y-165231D01*
X458265Y-164954D01*
X458043Y-164649D01*
Y-164635D01*
X458015Y-164607D01*
X457987Y-164552D01*
X457959Y-164482D01*
X457918Y-164399D01*
X457876Y-164302D01*
X457821Y-164177D01*
X457779Y-164053D01*
X457724Y-163900D01*
X457668Y-163734D01*
X457585Y-163373D01*
X457529Y-162971D01*
X457502Y-162541D01*
Y-162527D01*
Y-162458D01*
X457516Y-162374D01*
Y-162250D01*
X457529Y-162111D01*
X457557Y-161945D01*
X457599Y-161750D01*
X457640Y-161542D01*
X457696Y-161334D01*
X457765Y-161098D01*
X457862Y-160877D01*
X457959Y-160641D01*
X458084Y-160405D01*
X458237Y-160183D01*
X458403Y-159961D01*
X458597Y-159753D01*
X458611Y-159739D01*
X458653Y-159712D01*
X458708Y-159656D01*
X458805Y-159587D01*
X458916Y-159504D01*
X459041Y-159420D01*
X459208Y-159323D01*
X459388Y-159212D01*
X459596Y-159115D01*
X459818Y-159018D01*
X460081Y-158935D01*
X460345Y-158852D01*
X460636Y-158783D01*
X460955Y-158727D01*
X461288Y-158699D01*
X461648Y-158685D01*
X461801D01*
X461912Y-158699D01*
D02*
G37*
%LPC*%
G36*
X378700Y193200D02*
Y185500D01*
X386400D01*
X385984Y187053D01*
X384602Y189447D01*
X382647Y191402D01*
X380253Y192784D01*
X378700Y193200D01*
D02*
G37*
G36*
X373700Y193200D02*
X372147Y192784D01*
X369753Y191402D01*
X367798Y189447D01*
X366416Y187053D01*
X365999Y185500D01*
X373700D01*
Y193200D01*
D02*
G37*
G36*
X162600Y184067D02*
X160793Y183318D01*
X159009Y181950D01*
X158539Y181337D01*
X156911Y181301D01*
X155962Y182029D01*
X154244Y182741D01*
X152400Y182984D01*
X150556Y182741D01*
X148837Y182029D01*
X147362Y180897D01*
X146230Y179421D01*
X145518Y177703D01*
X145275Y175859D01*
Y164339D01*
X145518Y162495D01*
X146230Y160776D01*
X147362Y159301D01*
X148837Y158168D01*
X150556Y157457D01*
X152400Y157214D01*
X154244Y157457D01*
X155962Y158168D01*
X156911Y158896D01*
X158539Y158861D01*
X159009Y158248D01*
X160793Y156879D01*
X162600Y156131D01*
Y170099D01*
Y184067D01*
D02*
G37*
G36*
X486824Y192024D02*
X468776D01*
Y173976D01*
X486824D01*
Y192024D01*
D02*
G37*
G36*
X453588D02*
X451212D01*
X448917Y191409D01*
X446859Y190221D01*
X445179Y188541D01*
X443991Y186483D01*
X443376Y184188D01*
Y181812D01*
X443991Y179517D01*
X445179Y177459D01*
X446859Y175779D01*
X448917Y174591D01*
X451212Y173976D01*
X453588D01*
X455883Y174591D01*
X457941Y175779D01*
X459621Y177459D01*
X460809Y179517D01*
X461424Y181812D01*
Y184188D01*
X460809Y186483D01*
X459621Y188541D01*
X457941Y190221D01*
X455883Y191409D01*
X453588Y192024D01*
D02*
G37*
G36*
X428188D02*
X425812D01*
X423517Y191409D01*
X421459Y190221D01*
X419779Y188541D01*
X418591Y186483D01*
X417976Y184188D01*
Y181812D01*
X418591Y179517D01*
X419779Y177459D01*
X421459Y175779D01*
X423517Y174591D01*
X425812Y173976D01*
X428188D01*
X430483Y174591D01*
X432541Y175779D01*
X434221Y177459D01*
X435409Y179517D01*
X436024Y181812D01*
Y184188D01*
X435409Y186483D01*
X434221Y188541D01*
X432541Y190221D01*
X430483Y191409D01*
X428188Y192024D01*
D02*
G37*
G36*
X402788D02*
X400412D01*
X398117Y191409D01*
X396059Y190221D01*
X394379Y188541D01*
X393191Y186483D01*
X392576Y184188D01*
Y181812D01*
X393191Y179517D01*
X394379Y177459D01*
X396059Y175779D01*
X398117Y174591D01*
X400412Y173976D01*
X402788D01*
X405083Y174591D01*
X407141Y175779D01*
X408821Y177459D01*
X410009Y179517D01*
X410624Y181812D01*
Y184188D01*
X410009Y186483D01*
X408821Y188541D01*
X407141Y190221D01*
X405083Y191409D01*
X402788Y192024D01*
D02*
G37*
G36*
X373700Y180500D02*
X365999D01*
X366416Y178947D01*
X367798Y176553D01*
X369753Y174598D01*
X372147Y173216D01*
X373700Y172799D01*
Y180500D01*
D02*
G37*
G36*
X386400D02*
X378700D01*
Y172799D01*
X380253Y173216D01*
X382647Y174598D01*
X384602Y176553D01*
X385984Y178947D01*
X386400Y180500D01*
D02*
G37*
G36*
X167600Y184067D02*
Y170099D01*
Y156131D01*
X169407Y156879D01*
X171191Y158248D01*
X171661Y158861D01*
X173289Y158896D01*
X174237Y158168D01*
X175956Y157457D01*
X177800Y157214D01*
X179644Y157457D01*
X181362Y158168D01*
X182838Y159301D01*
X183970Y160776D01*
X184682Y162495D01*
X184925Y164339D01*
Y175859D01*
X184682Y177703D01*
X183970Y179421D01*
X182838Y180897D01*
X181362Y182029D01*
X179644Y182741D01*
X177800Y182984D01*
X175956Y182741D01*
X174237Y182029D01*
X173289Y181301D01*
X171661Y181337D01*
X171191Y181950D01*
X169407Y183318D01*
X167600Y184067D01*
D02*
G37*
G36*
X264099Y152524D02*
X261901D01*
X259871Y151683D01*
X258317Y150129D01*
X257476Y148099D01*
Y145901D01*
X258317Y143871D01*
X259871Y142317D01*
X261901Y141476D01*
X264099D01*
X266129Y142317D01*
X267683Y143871D01*
X268524Y145901D01*
Y148099D01*
X267683Y150129D01*
X266129Y151683D01*
X264099Y152524D01*
D02*
G37*
G36*
X245099Y142524D02*
X242901D01*
X240871Y141683D01*
X239317Y140129D01*
X238476Y138099D01*
Y135901D01*
X239317Y133871D01*
X240871Y132317D01*
X242901Y131476D01*
X245099D01*
X247129Y132317D01*
X248683Y133871D01*
X249524Y135901D01*
Y138099D01*
X248683Y140129D01*
X247129Y141683D01*
X245099Y142524D01*
D02*
G37*
G36*
X203099Y137524D02*
X200901D01*
X198871Y136683D01*
X197317Y135129D01*
X196476Y133099D01*
Y130901D01*
X197020Y129588D01*
X195943Y128869D01*
X195129Y129683D01*
X193099Y130524D01*
X190901D01*
X188871Y129683D01*
X187317Y128129D01*
X186476Y126099D01*
Y123901D01*
X187317Y121871D01*
X188871Y120317D01*
X190901Y119476D01*
X193099D01*
X195129Y120317D01*
X196683Y121871D01*
X197524Y123901D01*
Y126099D01*
X196980Y127412D01*
X198057Y128131D01*
X198871Y127317D01*
X200901Y126476D01*
X203099D01*
X205129Y127317D01*
X206683Y128871D01*
X207524Y130901D01*
Y133099D01*
X206683Y135129D01*
X205129Y136683D01*
X203099Y137524D01*
D02*
G37*
G36*
X99099Y121524D02*
X96901D01*
X94871Y120683D01*
X93317Y119129D01*
X92476Y117099D01*
Y114901D01*
X93317Y112871D01*
X94871Y111317D01*
X96901Y110476D01*
X99099D01*
X101129Y111317D01*
X102683Y112871D01*
X103524Y114901D01*
Y117099D01*
X102683Y119129D01*
X101129Y120683D01*
X99099Y121524D01*
D02*
G37*
G36*
X332474Y115524D02*
X330276D01*
X328246Y114683D01*
X326692Y113129D01*
X325851Y111099D01*
Y108901D01*
X326692Y106871D01*
X328246Y105317D01*
X330276Y104476D01*
X332474D01*
X334504Y105317D01*
X336058Y106871D01*
X336899Y108901D01*
Y111099D01*
X336058Y113129D01*
X334504Y114683D01*
X332474Y115524D01*
D02*
G37*
G36*
X468099Y88524D02*
X465901D01*
X463871Y87683D01*
X462317Y86129D01*
X461476Y84099D01*
Y81901D01*
X462317Y79871D01*
X463871Y78317D01*
X465901Y77476D01*
X468099D01*
X470129Y78317D01*
X471683Y79871D01*
X472524Y81901D01*
Y84099D01*
X471683Y86129D01*
X470129Y87683D01*
X468099Y88524D01*
D02*
G37*
G36*
X420099D02*
X417901D01*
X415871Y87683D01*
X414317Y86129D01*
X413476Y84099D01*
Y81901D01*
X414317Y79871D01*
X415871Y78317D01*
X417901Y77476D01*
X420099D01*
X422129Y78317D01*
X423683Y79871D01*
X424524Y81901D01*
Y84099D01*
X423683Y86129D01*
X422129Y87683D01*
X420099Y88524D01*
D02*
G37*
G36*
X402300Y80944D02*
Y70300D01*
X408121D01*
Y73050D01*
X407838Y75204D01*
X407006Y77211D01*
X405684Y78934D01*
X403961Y80256D01*
X402300Y80944D01*
D02*
G37*
G36*
X397300Y80944D02*
X395639Y80256D01*
X393916Y78934D01*
X392594Y77211D01*
X391762Y75204D01*
X391479Y73050D01*
Y70300D01*
X397300D01*
Y80944D01*
D02*
G37*
G36*
X488700Y80944D02*
Y70300D01*
X494521D01*
Y73050D01*
X494238Y75204D01*
X493406Y77211D01*
X492084Y78934D01*
X490361Y80256D01*
X488700Y80944D01*
D02*
G37*
G36*
X483700Y80944D02*
X482039Y80256D01*
X480316Y78934D01*
X478994Y77211D01*
X478162Y75204D01*
X477879Y73050D01*
Y70300D01*
X483700D01*
Y80944D01*
D02*
G37*
G36*
X415050Y67574D02*
X413150D01*
X411396Y66847D01*
X410053Y65504D01*
X409326Y63750D01*
X408121Y63907D01*
Y65300D01*
X402300D01*
Y54656D01*
X403961Y55344D01*
X405684Y56666D01*
X407006Y58389D01*
X407838Y60396D01*
X408056Y62055D01*
X409326Y61972D01*
Y61850D01*
X410053Y60096D01*
X411396Y58753D01*
X413150Y58026D01*
X415050D01*
X416804Y58753D01*
X418147Y60096D01*
X418874Y61850D01*
Y63750D01*
X418147Y65504D01*
X416804Y66847D01*
X415050Y67574D01*
D02*
G37*
G36*
X103599Y68424D02*
X101401D01*
X99371Y67583D01*
X97817Y66029D01*
X96976Y63999D01*
Y61801D01*
X97817Y59771D01*
X99371Y58217D01*
X101401Y57376D01*
X103599D01*
X105629Y58217D01*
X107183Y59771D01*
X108024Y61801D01*
Y63999D01*
X107183Y66029D01*
X105629Y67583D01*
X103599Y68424D01*
D02*
G37*
G36*
X494521Y65300D02*
X488700D01*
Y54656D01*
X490361Y55344D01*
X492084Y56666D01*
X493406Y58389D01*
X494238Y60396D01*
X494521Y62550D01*
Y65300D01*
D02*
G37*
G36*
X397300Y65300D02*
X391479D01*
Y62550D01*
X391762Y60396D01*
X392594Y58389D01*
X393916Y56666D01*
X395639Y55344D01*
X397300Y54656D01*
Y65300D01*
D02*
G37*
G36*
X472850Y67574D02*
X470950D01*
X469196Y66847D01*
X467853Y65504D01*
X467126Y63750D01*
Y61850D01*
X467853Y60096D01*
X469196Y58753D01*
X470950Y58026D01*
X472850D01*
X474604Y58753D01*
X475947Y60096D01*
X476674Y61850D01*
Y61972D01*
X477944Y62055D01*
X478162Y60396D01*
X478994Y58389D01*
X480316Y56666D01*
X482039Y55344D01*
X483700Y54656D01*
Y65300D01*
X477879D01*
Y63907D01*
X476674Y63750D01*
X475947Y65504D01*
X474604Y66847D01*
X472850Y67574D01*
D02*
G37*
G36*
X133099Y73524D02*
X130901D01*
X128871Y72683D01*
X127317Y71129D01*
X126476Y69099D01*
Y66901D01*
X127317Y64871D01*
X128358Y63830D01*
X128729Y63000D01*
X128358Y62170D01*
X127317Y61129D01*
X126476Y59099D01*
Y56901D01*
X127317Y54871D01*
X128871Y53317D01*
X130901Y52476D01*
X133099D01*
X135129Y53317D01*
X136683Y54871D01*
X137524Y56901D01*
Y59099D01*
X136683Y61129D01*
X135642Y62170D01*
X135271Y63000D01*
X135642Y63830D01*
X136683Y64871D01*
X137524Y66901D01*
Y69099D01*
X136683Y71129D01*
X135129Y72683D01*
X133099Y73524D01*
D02*
G37*
G36*
X242099Y42524D02*
X239901D01*
X237871Y41683D01*
X236317Y40129D01*
X235476Y38099D01*
Y35901D01*
X236317Y33871D01*
X237871Y32317D01*
X239901Y31476D01*
X242099D01*
X244129Y32317D01*
X245683Y33871D01*
X246524Y35901D01*
Y38099D01*
X245683Y40129D01*
X244129Y41683D01*
X242099Y42524D01*
D02*
G37*
G36*
X332677Y65024D02*
X329323D01*
X326034Y64370D01*
X322936Y63087D01*
X320148Y61223D01*
X317777Y58852D01*
X315914Y56064D01*
X314630Y52966D01*
X313976Y49677D01*
Y46323D01*
X314630Y43034D01*
X315914Y39936D01*
X317777Y37148D01*
X320148Y34777D01*
X322936Y32913D01*
X326034Y31630D01*
X329323Y30976D01*
X332677D01*
X335966Y31630D01*
X339064Y32913D01*
X341852Y34777D01*
X344223Y37148D01*
X346087Y39936D01*
X347370Y43034D01*
X348024Y46323D01*
Y49677D01*
X347370Y52966D01*
X346087Y56064D01*
X344223Y58852D01*
X341852Y61223D01*
X339064Y63087D01*
X335966Y64370D01*
X332677Y65024D01*
D02*
G37*
G36*
X200099Y40524D02*
X197901D01*
X195871Y39683D01*
X194317Y38129D01*
X193476Y36099D01*
Y33901D01*
X194317Y31871D01*
X195871Y30317D01*
X197901Y29476D01*
X200099D01*
X202129Y30317D01*
X203683Y31871D01*
X204524Y33901D01*
Y36099D01*
X203683Y38129D01*
X202129Y39683D01*
X200099Y40524D01*
D02*
G37*
G36*
X137099D02*
X134901D01*
X132871Y39683D01*
X131317Y38129D01*
X130476Y36099D01*
Y33901D01*
X131317Y31871D01*
X132871Y30317D01*
X134901Y29476D01*
X137099D01*
X139129Y30317D01*
X140683Y31871D01*
X141524Y33901D01*
Y36099D01*
X140683Y38129D01*
X139129Y39683D01*
X137099Y40524D01*
D02*
G37*
G36*
X265099Y40524D02*
X262901D01*
X260871Y39683D01*
X259317Y38129D01*
X258476Y36099D01*
Y33901D01*
X259317Y31871D01*
X260871Y30317D01*
X262901Y29476D01*
X265099D01*
X267129Y30317D01*
X268683Y31871D01*
X269524Y33901D01*
Y36099D01*
X268683Y38129D01*
X267129Y39683D01*
X265099Y40524D01*
D02*
G37*
G36*
X402300Y38624D02*
Y28500D01*
X407869D01*
Y31000D01*
X407594Y33088D01*
X406788Y35034D01*
X405506Y36706D01*
X403834Y37988D01*
X402300Y38624D01*
D02*
G37*
G36*
X397300Y38624D02*
X395765Y37988D01*
X394094Y36706D01*
X392812Y35034D01*
X392006Y33088D01*
X391731Y31000D01*
Y28500D01*
X397300D01*
Y38624D01*
D02*
G37*
G36*
X488700Y38624D02*
Y28500D01*
X494269D01*
Y31000D01*
X493994Y33088D01*
X493188Y35034D01*
X491906Y36706D01*
X490234Y37988D01*
X488700Y38624D01*
D02*
G37*
G36*
X483700D02*
X482165Y37988D01*
X480494Y36706D01*
X479212Y35034D01*
X478406Y33088D01*
X478131Y31000D01*
Y28500D01*
X483700D01*
Y38624D01*
D02*
G37*
G36*
X397300Y23500D02*
X391731D01*
Y21000D01*
X392006Y18912D01*
X392812Y16966D01*
X394094Y15294D01*
X395765Y14012D01*
X397300Y13376D01*
Y23500D01*
D02*
G37*
G36*
X494269Y23500D02*
X488700D01*
Y13376D01*
X490234Y14012D01*
X491906Y15294D01*
X493188Y16966D01*
X493994Y18912D01*
X494269Y21000D01*
Y23500D01*
D02*
G37*
G36*
X483700D02*
X478131D01*
Y21000D01*
X478406Y18912D01*
X479212Y16966D01*
X480494Y15294D01*
X482165Y14012D01*
X483700Y13376D01*
Y23500D01*
D02*
G37*
G36*
X407869Y23500D02*
X402300D01*
Y13376D01*
X403834Y14012D01*
X405506Y15294D01*
X406788Y16966D01*
X407594Y18912D01*
X407869Y21000D01*
Y23500D01*
D02*
G37*
G36*
X444771Y-162707D02*
X444743Y-162721D01*
X444674Y-162735D01*
X444549Y-162777D01*
X444396Y-162832D01*
X444216Y-162888D01*
X444008Y-162957D01*
X443786Y-163012D01*
X443550Y-163082D01*
X443536D01*
X443509Y-163096D01*
X443467Y-163109D01*
X443411Y-163123D01*
X443259Y-163165D01*
X443092Y-163220D01*
X442898Y-163290D01*
X442718Y-163359D01*
X442565Y-163442D01*
X442510Y-163484D01*
X442455Y-163526D01*
X442441Y-163539D01*
X442413Y-163567D01*
X442385Y-163609D01*
X442344Y-163678D01*
X442260Y-163831D01*
X442233Y-163928D01*
X442219Y-164039D01*
Y-164053D01*
Y-164094D01*
X442233Y-164150D01*
X442247Y-164233D01*
X442274Y-164316D01*
X442316Y-164413D01*
X442371Y-164496D01*
X442441Y-164580D01*
X442455Y-164593D01*
X442482Y-164607D01*
X442538Y-164649D01*
X442621Y-164677D01*
X442718Y-164718D01*
X442829Y-164760D01*
X442968Y-164774D01*
X443134Y-164788D01*
X443217D01*
X443301Y-164774D01*
X443425Y-164760D01*
X443550Y-164732D01*
X443703Y-164690D01*
X443855Y-164635D01*
X444008Y-164566D01*
X444022Y-164552D01*
X444077Y-164524D01*
X444146Y-164482D01*
X444244Y-164413D01*
X444327Y-164330D01*
X444424Y-164247D01*
X444521Y-164136D01*
X444590Y-164025D01*
X444604Y-164011D01*
X444618Y-163969D01*
X444646Y-163886D01*
X444687Y-163789D01*
X444715Y-163664D01*
X444743Y-163526D01*
X444757Y-163359D01*
X444771Y-163165D01*
Y-162707D01*
D02*
G37*
G36*
X461759Y-160350D02*
X461732D01*
X461648Y-160364D01*
X461524Y-160377D01*
X461371Y-160419D01*
X461205Y-160474D01*
X461024Y-160571D01*
X460858Y-160710D01*
X460691Y-160891D01*
X460678Y-160904D01*
X460650Y-160946D01*
X460608Y-161029D01*
X460553Y-161140D01*
X460497Y-161279D01*
X460442Y-161445D01*
X460386Y-161639D01*
X460359Y-161875D01*
X463146D01*
Y-161861D01*
Y-161834D01*
X463132Y-161792D01*
Y-161737D01*
X463105Y-161598D01*
X463063Y-161418D01*
X463008Y-161237D01*
X462924Y-161043D01*
X462827Y-160863D01*
X462702Y-160710D01*
X462689Y-160696D01*
X462633Y-160655D01*
X462564Y-160599D01*
X462453Y-160530D01*
X462314Y-160461D01*
X462148Y-160405D01*
X461967Y-160364D01*
X461759Y-160350D01*
D02*
G37*
%LPD*%
D32*
X486200Y67800D02*
D03*
X399800D02*
D03*
D33*
X486200Y26000D02*
D03*
X399800D02*
D03*
D57*
X414100Y62800D02*
D03*
X471900D02*
D03*
D58*
X477800Y183000D02*
D03*
D59*
X452400D02*
D03*
X427000D02*
D03*
X401600D02*
D03*
X376200D02*
D03*
D60*
X152400Y170099D02*
D03*
X177800D02*
D03*
X165100D02*
D03*
D61*
X98000Y116000D02*
D03*
X121000Y131900D02*
D03*
X136000Y35000D02*
D03*
X191000Y9000D02*
D03*
X331375Y110000D02*
D03*
X228375Y162000D02*
D03*
X202771Y153000D02*
D03*
X245500Y188000D02*
D03*
X228875D02*
D03*
X179000D02*
D03*
Y153000D02*
D03*
X195625Y188000D02*
D03*
X212250D02*
D03*
X245000Y162000D02*
D03*
X110000Y99000D02*
D03*
X89000D02*
D03*
X102500Y62900D02*
D03*
X244000Y137000D02*
D03*
X192000Y125000D02*
D03*
X202000Y132000D02*
D03*
X263000Y147000D02*
D03*
X374000Y114000D02*
D03*
X408000Y116000D02*
D03*
X442000Y131000D02*
D03*
X162950Y131950D02*
D03*
X144000Y109000D02*
D03*
X241000Y37000D02*
D03*
X229400Y60000D02*
D03*
X199000Y35000D02*
D03*
X102500Y47100D02*
D03*
X264000Y35000D02*
D03*
X467000Y83000D02*
D03*
X419000D02*
D03*
X132000Y58000D02*
D03*
Y68000D02*
D03*
D62*
X157000Y74000D02*
D03*
X168000D02*
D03*
X179000D02*
D03*
X157000Y63000D02*
D03*
X168000D02*
D03*
X179000D02*
D03*
X157000Y52000D02*
D03*
X168000D02*
D03*
X179000D02*
D03*
M02*
